<svg width="92" height="20" viewBox="0 0 92 20" fill="none" xmlns="http://www.w3.org/2000/svg">
<path d="M75.0019 5.05519C73.8538 6.11177 71.7103 5.83784 70.8876 4.48239C69.7202 2.55782 72.4504 0.851176 74.0663 1.1079C75.3792 1.31651 75.8495 2.49373 75.6577 3.78842C75.5787 4.32382 75.3381 4.74579 75.0019 5.05519Z" fill="#F5896B"/>
<path d="M82.0799 5.18973C81.7551 5.39658 81.3579 5.53267 80.8864 5.56937C79.8166 5.6519 78.5643 5.41625 77.8101 4.56459C76.8373 3.46587 76.8759 1.84035 77.9005 0.838558C79.1806 -0.412935 81.5366 -0.236985 82.5981 1.18853C83.473 2.36434 83.398 4.34948 82.0799 5.18973Z" fill="#F6B76D"/>
<path d="M69.2054 6.54546C68.7178 7.3216 67.4745 7.24399 67.1839 6.23763C66.9814 5.53734 67.5198 4.91924 68.1625 4.81317C68.9738 4.67919 69.5963 5.46412 69.3311 6.27539C69.2988 6.3746 69.256 6.46468 69.2054 6.54546Z" fill="#E25553"/>
<path d="M21.517 12.7567C21.517 13.0373 21.4728 13.4212 21.4138 13.8199L20.5867 19.0628H18.3419L19.1393 13.9826C19.154 13.8349 19.1835 13.6428 19.1835 13.4656C19.1688 13.1112 19.0211 12.8603 18.519 12.8603C18.0316 12.8603 17.5295 13.1112 17.1455 13.3918L16.2447 19.0628H14L15.6687 8.44434H17.9283L17.3968 11.7523C17.958 11.3684 18.7703 11.0141 19.6711 11.0141C21.0443 11.0142 21.517 11.6936 21.517 12.7567Z" fill="#1E4759"/>
<path d="M25.2699 15.7993C25.137 15.7993 24.9893 15.7993 24.8564 15.7844C24.8564 16.9069 25.4029 17.3646 26.4663 17.3646C27.1752 17.3646 27.8398 17.0988 28.4304 16.8032L28.1497 18.7232C27.559 19.0184 26.732 19.2251 25.7721 19.2251C23.4683 19.2251 22.582 17.778 22.582 15.9764C22.582 13.6725 23.8669 11.0141 26.732 11.0141C28.3122 11.0141 29.154 11.8707 29.154 13.0523C29.1538 14.987 27.175 15.7993 25.2699 15.7993ZM24.9449 14.3371C25.0336 14.3521 25.137 14.3521 25.2255 14.3521C26.1116 14.3521 27.2192 14.027 27.2192 13.2149C27.2192 12.7864 26.9831 12.5797 26.5548 12.5797C25.7572 12.5796 25.0483 13.4214 24.9449 14.3371Z" fill="#1E4759"/>
<path d="M29.8281 16.0944C29.8281 13.8052 30.9948 11.0141 33.4613 11.0141C34.1405 11.0141 34.7609 11.2208 35.2334 11.6492L35.4253 11.147H37.3453L36.4298 16.9804C36.3706 17.3497 36.4148 17.6303 36.7694 17.6303C36.9761 17.6303 37.2272 17.5562 37.4043 17.512L37.1977 18.9891C36.7694 19.1366 36.3411 19.2251 35.8536 19.2251C35.0266 19.2251 34.5688 18.8707 34.3473 18.354C33.8453 18.797 33.2397 19.2105 32.1912 19.2105C30.7291 19.2105 29.8281 18.1619 29.8281 16.0944ZM33.092 17.4531C33.476 17.4531 33.8599 17.2905 34.1405 17.0839L34.7904 13.0669C34.5243 12.8454 34.2144 12.6976 33.8599 12.6976C32.516 12.6976 32.1467 14.9129 32.1467 15.9321C32.1469 16.936 32.4423 17.4531 33.092 17.4531Z" fill="#1E4759"/>
<path d="M39.857 8.44434H42.1166L40.9055 16.1386C40.876 16.3307 40.8465 16.5373 40.8465 16.7293C40.8465 17.0836 40.9498 17.3644 41.393 17.3644C41.6441 17.3644 42.1314 17.3052 42.5597 17.1131L42.2938 18.8855C41.6587 19.1364 41.009 19.2251 40.4478 19.2251C38.956 19.2251 38.4688 18.5753 38.4688 17.5416C38.4688 17.3202 38.4835 17.0838 38.5278 16.8327L39.857 8.44434Z" fill="#1E4759"/>
<path d="M46.5013 12.7272L45.9106 16.3306C45.8956 16.4929 45.8663 16.6407 45.8663 16.7884C45.8663 17.1574 46.0286 17.379 46.4568 17.379C46.7671 17.379 47.2987 17.261 47.6678 17.0985L47.4168 18.8854C46.9146 19.1069 46.1171 19.225 45.4673 19.225C44.0645 19.225 43.5328 18.5014 43.5328 17.5561C43.5328 17.2903 43.5623 17.0838 43.5919 16.8771L44.2564 12.7272H43.2227L43.4738 11.147H44.4928L44.7437 9.71442L47.1362 8.76917L46.7522 11.1468H48.4211L48.1847 12.727L46.5013 12.7272Z" fill="#1E4759"/>
<path d="M56.0716 12.7567C56.0716 13.0373 56.0275 13.4212 55.9683 13.8199L55.1412 19.0628H52.8966L53.6939 13.9826C53.7087 13.8349 53.7382 13.6428 53.7382 13.4656C53.7234 13.1112 53.5758 12.8603 53.0737 12.8603C52.5863 12.8603 52.0842 13.1112 51.7002 13.3918L50.7994 19.0628H48.5547L50.2234 8.44434H52.483L51.9515 11.7523C52.5127 11.3684 53.325 11.0141 54.2258 11.0141C55.5992 11.0142 56.0716 11.6936 56.0716 12.7567Z" fill="#1E4759"/>
<path d="M62.7648 11.7819L63.2817 8.44434H64.2712L62.6022 19.0628H61.6719L61.7899 18.2949C61.2142 18.7822 60.4609 19.2107 59.5452 19.2107C58.2459 19.2107 57.4336 18.3541 57.4336 16.508C57.4336 14.2042 58.4672 11.1027 61.0223 11.1027C61.8048 11.1026 62.2775 11.4127 62.7648 11.7819ZM59.8702 18.3242C60.5938 18.3242 61.347 17.9255 61.8346 17.5268L62.5878 12.6829C62.13 12.2694 61.6278 11.9886 60.9487 11.9886C59.1322 11.9886 58.4823 15.0456 58.4823 16.4782C58.4819 17.7925 58.8956 18.3242 59.8702 18.3242Z" fill="#E25553"/>
<path d="M67.3453 11.265L66.1195 19.0628H65.1445L66.3707 11.265H67.3453ZM67.2716 8.57727C67.67 8.57727 67.8621 8.7987 67.8621 9.13831C67.8621 9.58152 67.552 9.99488 67.0498 9.99488C66.6954 9.99488 66.4884 9.74395 66.4884 9.38959C66.4884 8.96113 66.7839 8.57727 67.2716 8.57727Z" fill="#E25553"/>
<path d="M74.0468 12.3433L73.146 12.7568C73.013 12.3287 72.8799 12.0479 72.3781 12.0479C71.7874 12.0479 71.0491 12.6089 70.5912 13.0522L69.6457 19.0627H68.6562L69.8825 11.2649H70.8124L70.6799 12.092C71.2409 11.5604 71.9352 11.1025 72.7326 11.1025C73.589 11.1028 73.9288 11.7525 74.0468 12.3433Z" fill="#E25553"/>
<path d="M75.2868 15.4447C75.2573 15.7253 75.2425 15.9912 75.2425 16.2425C75.2425 17.5421 75.7595 18.369 77.074 18.369C77.8714 18.369 78.5803 18.0885 79.1268 17.8229L78.9791 18.7827C78.4918 19.034 77.7978 19.2405 76.8229 19.2405C74.8734 19.2405 74.2383 17.8671 74.2383 16.1835C74.2383 14.0865 75.2132 11.1032 77.9304 11.1032C79.2892 11.1032 79.9686 11.8711 79.9686 12.8606C79.9684 15.0314 77.1034 15.4003 75.2868 15.4447ZM78.9345 12.9342C78.9345 12.299 78.5211 11.9596 77.7383 11.9596C76.4387 11.9596 75.6264 13.4659 75.4492 14.6623C76.6749 14.6621 78.9345 14.2635 78.9345 12.9342Z" fill="#E25553"/>
<path d="M86.038 17.8074L85.8903 18.7674C85.3438 19.0332 84.5761 19.2397 83.6753 19.2397C81.6078 19.2397 80.9727 17.8221 80.9727 16.2419C80.9727 13.9674 81.9176 11.1025 84.6648 11.1025C86.2448 11.1025 86.7026 12.3134 86.7618 13.288L85.8464 13.4948C85.7576 12.6825 85.4179 11.9738 84.5171 11.9738C82.6414 11.9738 82.0062 14.6173 82.0062 16.0791C82.0062 17.6151 82.5086 18.383 83.8228 18.383C84.5612 18.3833 85.3586 18.147 86.038 17.8074Z" fill="#E25553"/>
<path d="M89.8462 12.0624L89.0779 16.8768C89.0339 17.1572 88.9893 17.4528 88.9893 17.6742C88.9893 18.132 89.1519 18.3831 89.6836 18.3831C90.0824 18.3831 90.5844 18.2059 90.9389 18.0435L90.806 18.9443C90.4959 19.0918 89.9052 19.2395 89.3735 19.2395C88.369 19.2395 87.9854 18.7373 87.9854 17.8807C87.9854 17.7035 87.9999 17.5114 88.0296 17.3047L88.8713 12.0621H87.8672L87.9852 11.2643H88.9893L89.1961 9.99421L90.2594 9.43317L89.9642 11.2643H92.0024L91.884 12.0621H89.8462V12.0624Z" fill="#E25553"/>
<path d="M9.35672 12.2H10.1367L7.27672 19.2H6.55672L7.40672 17.13L5.38672 12.2H6.20672L7.80672 16.24L9.35672 12.2Z" fill="#1E4759"/>
<path d="M0.67 13.21C0.816667 12.9033 1.04667 12.6467 1.36 12.44C1.67333 12.2333 2.07 12.13 2.55 12.13C3.01 12.13 3.41 12.2367 3.75 12.45C4.09667 12.6633 4.36333 12.9633 4.55 13.35C4.74333 13.73 4.84 14.18 4.84 14.7C4.84 15.22 4.74333 15.6733 4.55 16.06C4.35667 16.4467 4.08667 16.7467 3.74 16.96C3.4 17.1667 3.00333 17.27 2.55 17.27C2.09667 17.27 1.72 17.1733 1.42 16.98C1.12 16.7867 0.893333 16.55 0.74 16.27L0.69 17.2H0V10H0.75V13.22L0.67 13.21ZM4.03 14.7C4.03 14.1267 3.88 13.6733 3.58 13.34C3.28667 13 2.89 12.83 2.39 12.83C2.07667 12.83 1.79333 12.9067 1.54 13.06C1.29333 13.2067 1.1 13.42 0.96 13.7C0.82 13.9733 0.75 14.3067 0.75 14.7C0.75 15.0933 0.82 15.43 0.96 15.71C1.1 15.99 1.29333 16.2033 1.54 16.35C1.79333 16.4967 2.07667 16.57 2.39 16.57C2.89 16.57 3.28667 16.4033 3.58 16.07C3.88 15.73 4.03 15.2733 4.03 14.7Z" fill="#1E4759"/>
</svg>
