<svg width="162" height="33" viewBox="0 0 162 33" fill="none" xmlns="http://www.w3.org/2000/svg">
<path d="M8.57853 25.6253C6.94313 25.6253 5.49043 25.2252 4.22043 24.4336C2.95033 23.642 1.95003 22.5547 1.22803 21.1802C0.506027 19.8058 0.140625 18.2314 0.140625 16.4568C0.140625 14.6822 0.506027 13.2382 1.22803 11.9073C1.95003 10.5764 2.94163 9.5326 4.20303 8.7758C5.46433 8.019 6.89963 7.6362 8.50893 7.6362C10.1181 7.6362 11.5099 7.9842 12.7626 8.6888C14.0065 9.3847 14.9808 10.3589 15.6854 11.5942C16.3813 12.8294 16.7118 14.2386 16.6683 15.8305C16.6683 16.0828 16.6596 16.3524 16.6335 16.6308C16.6074 16.9091 16.59 17.2136 16.5639 17.5442H3.01993C3.06343 18.6402 3.33313 19.6058 3.82893 20.4495C4.31603 21.2933 4.96853 21.9457 5.76873 22.4242C6.56903 22.9026 7.49113 23.1375 8.51763 23.1375C9.86593 23.1375 11.0141 22.8852 11.9623 22.372C12.9104 21.8587 13.589 21.128 14.0065 20.1712L16.2769 21.0846C15.581 22.5547 14.5632 23.6768 13.2323 24.4597C11.9014 25.2426 10.353 25.634 8.57853 25.634V25.6253ZM13.789 15.2738C13.8151 14.2734 13.5977 13.3861 13.1453 12.6119C12.693 11.8464 12.058 11.2375 11.2403 10.7939C10.4226 10.3503 9.48313 10.1328 8.40453 10.1328C7.47373 10.1328 6.62123 10.3503 5.85573 10.7939C5.09023 11.2375 4.44653 11.8464 3.95073 12.6293C3.44623 13.4122 3.15043 14.2908 3.05473 15.2738H13.789Z" fill="url(#paint0_linear_236_14)"/>
<path d="M150.325 19.9452C150.492 20.6141 150.779 21.1277 151.185 21.486C151.615 21.8444 152.081 22.0952 152.582 22.2385C153.084 22.358 153.562 22.4177 154.016 22.4177C154.947 22.4177 155.676 22.2385 156.202 21.8802C156.751 21.498 157.026 21.0202 157.026 20.4469C157.026 19.9691 156.847 19.5988 156.488 19.336C156.13 19.0733 155.664 18.8702 155.091 18.7269C154.541 18.5597 153.968 18.3924 153.371 18.2252C152.726 18.058 152.033 17.8669 151.292 17.6519C150.576 17.4369 149.895 17.1383 149.25 16.756C148.605 16.3738 148.079 15.8841 147.673 15.2869C147.267 14.6897 147.064 13.9491 147.064 13.0652C147.064 11.9424 147.375 10.9749 147.996 10.1627C148.617 9.32661 149.465 8.68161 150.54 8.22771C151.615 7.77381 152.821 7.54691 154.159 7.54691C155.76 7.54691 157.145 7.88131 158.316 8.55021C159.486 9.21911 160.334 10.1985 160.86 11.4885L157.312 12.6352C157.145 12.3008 156.894 12.0141 156.56 11.7752C156.249 11.5363 155.867 11.3691 155.413 11.2735C154.983 11.1541 154.541 11.0944 154.087 11.0944C153.323 11.0944 152.678 11.2497 152.152 11.5602C151.627 11.8708 151.364 12.3127 151.364 12.886C151.364 13.1727 151.448 13.4235 151.615 13.6385C151.806 13.8535 152.057 14.0327 152.367 14.176C152.678 14.2955 153.048 14.4149 153.478 14.5344C153.908 14.6299 154.362 14.7494 154.84 14.8927C155.604 15.1077 156.357 15.3466 157.097 15.6094C157.862 15.8483 158.555 16.1588 159.176 16.541C159.821 16.9233 160.322 17.4249 160.681 18.046C161.063 18.6672 161.278 19.4555 161.326 20.411C161.326 21.4383 161.027 22.3819 160.43 23.2419C159.833 24.078 158.973 24.7469 157.85 25.2485C156.751 25.7263 155.437 25.9652 153.908 25.9652C152.14 25.9652 150.623 25.583 149.357 24.8185C148.091 24.0541 147.231 22.8238 146.777 21.1277L150.325 19.9452Z" fill="white"/>
<path d="M137.02 7.7977V2.78101H141.141V7.7977H145.333V11.3452H141.141V19.3002C141.141 20.3752 141.344 21.1277 141.75 21.5577C142.156 21.9638 142.682 22.1907 143.327 22.2385C143.996 22.2624 144.664 22.2266 145.333 22.131V25.571C144.306 25.786 143.291 25.8457 142.288 25.7502C141.308 25.6785 140.424 25.4157 139.636 24.9618C138.848 24.4841 138.214 23.7913 137.737 22.8835C137.259 21.9757 137.02 20.7813 137.02 19.3002V11.3452H134.512V7.7977H137.02Z" fill="white"/>
<path d="M122.133 19.9452C122.301 20.6141 122.587 21.1277 122.993 21.486C123.423 21.8444 123.889 22.0952 124.391 22.2385C124.893 22.358 125.37 22.4177 125.824 22.4177C126.756 22.4177 127.485 22.2385 128.01 21.8802C128.56 21.498 128.834 21.0202 128.834 20.4469C128.834 19.9691 128.655 19.5988 128.297 19.336C127.938 19.0733 127.473 18.8702 126.899 18.7269C126.35 18.5597 125.776 18.3924 125.179 18.2252C124.534 18.058 123.841 17.8669 123.101 17.6519C122.384 17.4369 121.703 17.1383 121.058 16.756C120.413 16.3738 119.888 15.8841 119.482 15.2869C119.076 14.6897 118.873 13.9491 118.873 13.0652C118.873 11.9424 119.183 10.9749 119.804 10.1627C120.425 9.32661 121.273 8.68161 122.348 8.22771C123.423 7.77381 124.63 7.54691 125.968 7.54691C127.568 7.54691 128.954 7.88131 130.124 8.55021C131.295 9.21911 132.143 10.1985 132.668 11.4885L129.121 12.6352C128.954 12.3008 128.703 12.0141 128.368 11.7752C128.058 11.5363 127.676 11.3691 127.222 11.2735C126.792 11.1541 126.35 11.0944 125.896 11.0944C125.131 11.0944 124.486 11.2497 123.961 11.5602C123.435 11.8708 123.173 12.3127 123.173 12.886C123.173 13.1727 123.256 13.4235 123.423 13.6385C123.615 13.8535 123.865 14.0327 124.176 14.176C124.486 14.2955 124.857 14.4149 125.287 14.5344C125.717 14.6299 126.171 14.7494 126.648 14.8927C127.413 15.1077 128.165 15.3466 128.906 15.6094C129.67 15.8483 130.363 16.1588 130.984 16.541C131.629 16.9233 132.131 17.4249 132.489 18.046C132.871 18.6672 133.086 19.4555 133.134 20.411C133.134 21.4383 132.836 22.3819 132.238 23.2419C131.641 24.078 130.781 24.7469 129.658 25.2485C128.56 25.7263 127.246 25.9652 125.717 25.9652C123.949 25.9652 122.432 25.583 121.166 24.8185C119.9 24.0541 119.04 22.8238 118.586 21.1277L122.133 19.9452Z" fill="white"/>
<path d="M108.537 25.9652C106.745 25.9652 105.169 25.571 103.807 24.7827C102.469 23.9944 101.418 22.8955 100.654 21.486C99.913 20.0766 99.543 18.4522 99.543 16.6127C99.543 14.8688 99.913 13.316 100.654 11.9544C101.394 10.5927 102.422 9.51771 103.735 8.72941C105.049 7.94101 106.542 7.54691 108.215 7.54691C109.911 7.54691 111.404 7.91721 112.694 8.65771C113.984 9.39831 114.987 10.4374 115.704 11.7752C116.444 13.0891 116.815 14.618 116.815 16.3619C116.815 16.6485 116.803 16.9591 116.779 17.2935C116.755 17.6041 116.719 17.9385 116.671 18.2969H103.915C104.034 19.133 104.297 19.8616 104.703 20.4827C105.133 21.0799 105.67 21.5458 106.315 21.8802C106.96 22.2147 107.701 22.3819 108.537 22.3819C109.54 22.3819 110.436 22.1788 111.225 21.7727C112.037 21.3666 112.598 20.8291 112.909 20.1602L116.456 21.3427C115.74 22.776 114.677 23.9108 113.267 24.7469C111.858 25.5591 110.281 25.9652 108.537 25.9652ZM112.407 15.0002C112.383 14.2597 112.18 13.5908 111.798 12.9935C111.416 12.3963 110.914 11.9305 110.293 11.596C109.672 11.2377 108.979 11.0585 108.215 11.0585C107.546 11.0585 106.913 11.2258 106.315 11.5602C105.718 11.8947 105.205 12.3605 104.775 12.9577C104.369 13.531 104.106 14.2119 103.986 15.0002H112.407Z" fill="white"/>
<path d="M96.8692 25.7143H93.1422L92.8913 23.9226C92.2943 24.5676 91.5772 25.0693 90.7412 25.4276C89.9052 25.7859 89.0212 25.9651 88.0902 25.9651C86.6802 25.9651 85.4622 25.6784 84.4352 25.1051C83.4312 24.5079 82.6552 23.6479 82.1052 22.5251C81.5562 21.3784 81.2812 19.969 81.2812 18.2968V7.79761H85.3302V17.7593C85.3302 19.2404 85.6292 20.3751 86.2262 21.1634C86.8232 21.9279 87.7432 22.3101 88.9852 22.3101C90.1802 22.3101 91.1122 21.9279 91.7802 21.1634C92.4732 20.3751 92.8203 19.2165 92.8203 17.6876V7.79761H96.8692V25.7143Z" fill="white"/>
<path d="M74.2712 23.0627C73.6982 23.8749 72.8862 24.5677 71.8352 25.141C70.7842 25.6905 69.5532 25.9652 68.1442 25.9652C66.5432 25.9652 65.1342 25.583 63.9162 24.8185C62.7212 24.0541 61.7892 22.9791 61.1212 21.5935C60.4522 20.208 60.1172 18.5955 60.1172 16.756C60.1172 14.8927 60.4522 13.2802 61.1212 11.9185C61.7892 10.533 62.7212 9.45801 63.9162 8.69351C65.1342 7.92911 66.5432 7.54691 68.1442 7.54691C69.4582 7.54691 70.5922 7.78581 71.5482 8.26351C72.5042 8.74131 73.2922 9.32661 73.9132 10.0194L74.2002 7.79771H77.8552V32.881H73.8062V22.9552L74.2712 23.0627ZM64.4532 16.756C64.4532 18.4044 64.8832 19.7422 65.7432 20.7694C66.6032 21.7966 67.7262 22.3102 69.1112 22.3102C69.9472 22.3102 70.7122 22.0952 71.4052 21.6652C72.1212 21.2352 72.6952 20.6141 73.1252 19.8019C73.5792 18.9658 73.8062 17.9505 73.8062 16.756C73.8062 15.5377 73.5792 14.5224 73.1252 13.7102C72.6952 12.898 72.1212 12.2769 71.4052 11.8469C70.7122 11.4169 69.9472 11.2019 69.1112 11.2019C67.7262 11.2019 66.6032 11.7155 65.7432 12.7427C64.8832 13.7699 64.4532 15.1077 64.4532 16.756Z" fill="white"/>
<path d="M50.0684 25.9652C48.2767 25.9652 46.7001 25.571 45.3384 24.7827C44.0006 23.9944 42.9495 22.8955 42.1851 21.486C41.4445 20.0766 41.0742 18.4522 41.0742 16.6127C41.0742 14.8688 41.4445 13.316 42.1851 11.9544C42.9256 10.5927 43.9528 9.51771 45.2667 8.72941C46.5806 7.94101 48.0737 7.54691 49.7459 7.54691C51.442 7.54691 52.935 7.91721 54.225 8.65771C55.515 9.39831 56.518 10.4374 57.235 11.7752C57.976 13.0891 58.346 14.618 58.346 16.3619C58.346 16.6485 58.334 16.9591 58.31 17.2935C58.286 17.6041 58.25 17.9385 58.203 18.2969H45.4459C45.5653 19.133 45.8281 19.8616 46.2342 20.4827C46.6642 21.0799 47.2017 21.5458 47.8467 21.8802C48.4917 22.2147 49.2323 22.3819 50.0684 22.3819C51.072 22.3819 51.968 22.1788 52.756 21.7727C53.568 21.3666 54.129 20.8291 54.44 20.1602L57.988 21.3427C57.271 22.776 56.208 23.9108 54.798 24.7469C53.389 25.5591 51.812 25.9652 50.0684 25.9652ZM53.938 15.0002C53.914 14.2597 53.711 13.5908 53.329 12.9935C52.947 12.3963 52.445 11.9305 51.824 11.596C51.203 11.2377 50.5103 11.0585 49.7459 11.0585C49.077 11.0585 48.4439 11.2258 47.8467 11.5602C47.2495 11.8947 46.7359 12.3605 46.3059 12.9577C45.8998 13.531 45.637 14.2119 45.5176 15.0002H53.938Z" fill="white"/>
<path d="M34.5332 8.1918C34.5332 6.9496 34.163 5.9701 33.4224 5.2535C32.6818 4.53682 31.5352 4.17848 29.9824 4.17848H24.4282V12.241H29.9824C31.0335 12.241 31.8816 12.0857 32.5266 11.7751C33.1955 11.4407 33.6971 10.9749 34.0316 10.3776C34.366 9.7565 34.5332 9.0279 34.5332 8.1918ZM29.9824 0.630981C31.9891 0.630981 33.6374 0.977371 34.9274 1.67015C36.2413 2.33904 37.2207 3.25876 37.8657 4.42931C38.5107 5.576 38.8332 6.8301 38.8332 8.1918C38.8332 9.0996 38.678 9.9954 38.3674 10.8793C38.0568 11.7632 37.5552 12.5874 36.8624 13.3518C36.1696 14.0924 35.2499 14.6896 34.1032 15.1435C32.9805 15.5735 31.6068 15.7885 29.9824 15.7885H24.4282V25.7143H20.1641V0.630981H29.9824ZM32.5266 14.391L39.3707 25.7143H34.5691L27.9757 14.391H32.5266Z" fill="white"/>
<defs>
<linearGradient id="paint0_linear_236_14" x1="-12.0464" y1="34.4198" x2="25.08" y2="2.59963" gradientUnits="userSpaceOnUse">
<stop stop-color="#67DE7F"/>
<stop offset="1" stop-color="#4699F7"/>
</linearGradient>
</defs>
</svg>
