<svg width="211" height="43" viewBox="0 0 211 43" fill="none" xmlns="http://www.w3.org/2000/svg">
<path d="M28.5147 9.29943C27.8747 4.06795 23.3552 0 17.8878 0H0V35.0238H21.4419L23.4083 40.5964C23.7228 41.4909 24.3716 42.2148 25.233 42.6326C25.7356 42.8775 26.276 43 26.8185 43C27.2149 43 27.6134 42.9344 28.001 42.801C30.8487 41.819 32.7619 39.1595 32.7619 36.1785V36.0342L28.5169 9.29943H28.5147ZM3.76446 31.3057V19.3709H11.2115V15.6529H3.76446V3.71802H17.8878C21.4508 3.71802 24.3937 6.38187 24.7857 9.79808C24.8167 10.0649 24.8322 10.3273 24.8322 10.5789C24.8322 10.697 24.8277 10.8151 24.8233 10.931C24.8233 10.9703 24.8189 11.0097 24.8145 11.0491C24.81 11.1256 24.8034 11.2044 24.7945 11.2809C24.7901 11.3268 24.7857 11.375 24.779 11.4209C24.7702 11.4887 24.7613 11.5587 24.7502 11.6265C24.7436 11.6746 24.7347 11.7249 24.7281 11.773C24.7148 11.8452 24.6993 11.9152 24.686 11.9851C24.6661 12.0836 24.6417 12.1798 24.6174 12.2782C24.6085 12.3176 24.5974 12.3548 24.5864 12.3941C24.5664 12.4663 24.5443 12.5363 24.5222 12.6085C24.5133 12.6391 24.5022 12.6675 24.4934 12.6981C24.469 12.7747 24.4424 12.8512 24.4137 12.9278C24.4114 12.9365 24.407 12.9453 24.4048 12.954C24.3074 13.2143 24.1944 13.4658 24.0682 13.7107C24.0616 13.7261 24.0527 13.7392 24.0461 13.7545C24.0062 13.8288 23.9663 13.9032 23.9221 13.9776C23.911 13.9951 23.8999 14.0148 23.8888 14.0322C23.7693 14.2335 23.6408 14.4303 23.5013 14.6184C23.4637 14.6709 23.4238 14.7234 23.384 14.7737C23.3574 14.8065 23.3308 14.8415 23.3042 14.8743C23.2445 14.9486 23.1825 15.0208 23.1182 15.093C23.1094 15.1039 23.0983 15.1148 23.0894 15.1258C22.8348 15.4101 22.5536 15.6747 22.2502 15.9175L22.1284 16.0159C21.2936 16.6545 20.3015 17.1095 19.2098 17.3172C18.2621 17.4966 17.4405 18.074 16.96 18.8963C16.4817 19.7164 16.3887 20.6984 16.7031 21.5908L20.131 31.3101H3.76446V31.3057ZM26.9137 39.2339L20.43 20.8537C22.6532 20.3201 24.5797 19.1106 26.0036 17.4747L28.993 36.3076C28.9421 37.6023 28.125 38.7483 26.9137 39.2339Z" fill="url(#paint0_linear_5397_3216)"/>
<path d="M57.5785 30.6253C55.9431 30.6253 54.4904 30.2252 53.2204 29.4336C51.9503 28.642 50.95 27.5547 50.228 26.1802C49.506 24.8058 49.1406 23.2314 49.1406 21.4568C49.1406 19.6822 49.506 18.2382 50.228 16.9073C50.95 15.5764 51.9416 14.5326 53.203 13.7758C54.4643 13.019 55.8996 12.6362 57.5089 12.6362C59.1181 12.6362 60.5099 12.9842 61.7626 13.6888C63.0065 14.3847 63.9808 15.3589 64.6854 16.5942C65.3813 17.8294 65.7118 19.2386 65.6683 20.8305C65.6683 21.0828 65.6596 21.3524 65.6335 21.6308C65.6074 21.9091 65.59 22.2136 65.5639 22.5442H52.0199C52.0634 23.6402 52.3331 24.6058 52.8289 25.4495C53.316 26.2933 53.9685 26.9457 54.7687 27.4242C55.569 27.9026 56.4911 28.1375 57.5176 28.1375C58.8659 28.1375 60.0141 27.8852 60.9623 27.372C61.9104 26.8587 62.589 26.128 63.0065 25.1712L65.2769 26.0846C64.581 27.5547 63.5632 28.6768 62.2323 29.4597C60.9014 30.2426 59.353 30.634 57.5785 30.634V30.6253ZM62.789 20.2738C62.8151 19.2734 62.5977 18.3861 62.1453 17.6119C61.693 16.8464 61.058 16.2375 60.2403 15.7939C59.4226 15.3503 58.4831 15.1328 57.4045 15.1328C56.4737 15.1328 55.6212 15.3503 54.8557 15.7939C54.0902 16.2375 53.4465 16.8464 52.9507 17.6293C52.4462 18.4122 52.1504 19.2908 52.0547 20.2738H62.789Z" fill="url(#paint1_linear_5397_3216)"/>
<path d="M199.325 24.9452C199.492 25.6141 199.779 26.1277 200.185 26.486C200.615 26.8444 201.081 27.0952 201.582 27.2385C202.084 27.358 202.562 27.4177 203.016 27.4177C203.947 27.4177 204.676 27.2385 205.202 26.8802C205.751 26.498 206.026 26.0202 206.026 25.4469C206.026 24.9691 205.847 24.5988 205.488 24.336C205.13 24.0733 204.664 23.8702 204.091 23.7269C203.541 23.5597 202.968 23.3924 202.371 23.2252C201.726 23.058 201.033 22.8669 200.292 22.6519C199.576 22.4369 198.895 22.1383 198.25 21.756C197.605 21.3738 197.079 20.8841 196.673 20.2869C196.267 19.6897 196.064 18.9491 196.064 18.0652C196.064 16.9424 196.375 15.9749 196.996 15.1627C197.617 14.3266 198.465 13.6816 199.54 13.2277C200.615 12.7738 201.821 12.5469 203.159 12.5469C204.76 12.5469 206.145 12.8813 207.316 13.5502C208.486 14.2191 209.334 15.1985 209.86 16.4885L206.312 17.6352C206.145 17.3008 205.894 17.0141 205.56 16.7752C205.249 16.5363 204.867 16.3691 204.413 16.2735C203.983 16.1541 203.541 16.0944 203.087 16.0944C202.323 16.0944 201.678 16.2497 201.152 16.5602C200.627 16.8708 200.364 17.3127 200.364 17.886C200.364 18.1727 200.448 18.4235 200.615 18.6385C200.806 18.8535 201.057 19.0327 201.367 19.176C201.678 19.2955 202.048 19.4149 202.478 19.5344C202.908 19.6299 203.362 19.7494 203.84 19.8927C204.604 20.1077 205.357 20.3466 206.097 20.6094C206.862 20.8483 207.555 21.1588 208.176 21.541C208.821 21.9233 209.322 22.4249 209.681 23.046C210.063 23.6672 210.278 24.4555 210.326 25.411C210.326 26.4383 210.027 27.3819 209.43 28.2419C208.833 29.078 207.973 29.7469 206.85 30.2485C205.751 30.7263 204.437 30.9652 202.908 30.9652C201.14 30.9652 199.623 30.583 198.357 29.8185C197.091 29.0541 196.231 27.8238 195.777 26.1277L199.325 24.9452Z" fill="white"/>
<path d="M186.02 12.7977V7.78101H190.141V12.7977H194.333V16.3452H190.141V24.3002C190.141 25.3752 190.344 26.1277 190.75 26.5577C191.156 26.9638 191.682 27.1907 192.327 27.2385C192.996 27.2624 193.664 27.2266 194.333 27.131V30.571C193.306 30.786 192.291 30.8457 191.288 30.7502C190.308 30.6785 189.424 30.4157 188.636 29.9618C187.848 29.4841 187.214 28.7913 186.737 27.8835C186.259 26.9757 186.02 25.7813 186.02 24.3002V16.3452H183.512V12.7977H186.02Z" fill="white"/>
<path d="M171.133 24.9452C171.301 25.6141 171.587 26.1277 171.993 26.486C172.423 26.8444 172.889 27.0952 173.391 27.2385C173.893 27.358 174.37 27.4177 174.824 27.4177C175.756 27.4177 176.485 27.2385 177.01 26.8802C177.56 26.498 177.834 26.0202 177.834 25.4469C177.834 24.9691 177.655 24.5988 177.297 24.336C176.938 24.0733 176.473 23.8702 175.899 23.7269C175.35 23.5597 174.776 23.3924 174.179 23.2252C173.534 23.058 172.841 22.8669 172.101 22.6519C171.384 22.4369 170.703 22.1383 170.058 21.756C169.413 21.3738 168.888 20.8841 168.482 20.2869C168.076 19.6897 167.873 18.9491 167.873 18.0652C167.873 16.9424 168.183 15.9749 168.804 15.1627C169.425 14.3266 170.273 13.6816 171.348 13.2277C172.423 12.7738 173.63 12.5469 174.968 12.5469C176.568 12.5469 177.954 12.8813 179.124 13.5502C180.295 14.2191 181.143 15.1985 181.668 16.4885L178.121 17.6352C177.954 17.3008 177.703 17.0141 177.368 16.7752C177.058 16.5363 176.676 16.3691 176.222 16.2735C175.792 16.1541 175.35 16.0944 174.896 16.0944C174.131 16.0944 173.486 16.2497 172.961 16.5602C172.435 16.8708 172.173 17.3127 172.173 17.886C172.173 18.1727 172.256 18.4235 172.423 18.6385C172.615 18.8535 172.865 19.0327 173.176 19.176C173.486 19.2955 173.857 19.4149 174.287 19.5344C174.717 19.6299 175.171 19.7494 175.648 19.8927C176.413 20.1077 177.165 20.3466 177.906 20.6094C178.67 20.8483 179.363 21.1588 179.984 21.541C180.629 21.9233 181.131 22.4249 181.489 23.046C181.871 23.6672 182.086 24.4555 182.134 25.411C182.134 26.4383 181.836 27.3819 181.238 28.2419C180.641 29.078 179.781 29.7469 178.658 30.2485C177.56 30.7263 176.246 30.9652 174.717 30.9652C172.949 30.9652 171.432 30.583 170.166 29.8185C168.9 29.0541 168.04 27.8238 167.586 26.1277L171.133 24.9452Z" fill="white"/>
<path d="M157.537 30.9652C155.745 30.9652 154.169 30.571 152.807 29.7827C151.469 28.9944 150.418 27.8955 149.654 26.486C148.913 25.0766 148.543 23.4522 148.543 21.6127C148.543 19.8688 148.913 18.316 149.654 16.9544C150.394 15.5927 151.422 14.5177 152.735 13.7294C154.049 12.941 155.542 12.5469 157.215 12.5469C158.911 12.5469 160.404 12.9172 161.694 13.6577C162.984 14.3983 163.987 15.4374 164.704 16.7752C165.444 18.0891 165.815 19.618 165.815 21.3619C165.815 21.6485 165.803 21.9591 165.779 22.2935C165.755 22.6041 165.719 22.9385 165.671 23.2969H152.915C153.034 24.133 153.297 24.8616 153.703 25.4827C154.133 26.0799 154.67 26.5458 155.315 26.8802C155.96 27.2147 156.701 27.3819 157.537 27.3819C158.54 27.3819 159.436 27.1788 160.225 26.7727C161.037 26.3666 161.598 25.8291 161.909 25.1602L165.456 26.3427C164.74 27.776 163.677 28.9108 162.267 29.7469C160.858 30.5591 159.281 30.9652 157.537 30.9652ZM161.407 20.0002C161.383 19.2597 161.18 18.5908 160.798 17.9935C160.416 17.3963 159.914 16.9305 159.293 16.596C158.672 16.2377 157.979 16.0585 157.215 16.0585C156.546 16.0585 155.913 16.2258 155.315 16.5602C154.718 16.8947 154.205 17.3605 153.775 17.9577C153.369 18.531 153.106 19.2119 152.986 20.0002H161.407Z" fill="white"/>
<path d="M145.869 30.7143H142.142L141.891 28.9226C141.294 29.5676 140.577 30.0693 139.741 30.4276C138.905 30.7859 138.021 30.9651 137.09 30.9651C135.68 30.9651 134.462 30.6784 133.435 30.1051C132.431 29.5079 131.655 28.6479 131.105 27.5251C130.556 26.3784 130.281 24.969 130.281 23.2968V12.7976H134.33V22.7593C134.33 24.2404 134.629 25.3751 135.226 26.1634C135.823 26.9279 136.743 27.3101 137.985 27.3101C139.18 27.3101 140.112 26.9279 140.78 26.1634C141.473 25.3751 141.82 24.2165 141.82 22.6876V12.7976H145.869V30.7143Z" fill="white"/>
<path d="M123.271 28.0627C122.698 28.8749 121.886 29.5677 120.835 30.141C119.784 30.6905 118.553 30.9652 117.144 30.9652C115.543 30.9652 114.134 30.583 112.916 29.8185C111.721 29.0541 110.789 27.9791 110.121 26.5935C109.452 25.208 109.117 23.5955 109.117 21.756C109.117 19.8927 109.452 18.2802 110.121 16.9185C110.789 15.533 111.721 14.458 112.916 13.6935C114.134 12.9291 115.543 12.5469 117.144 12.5469C118.458 12.5469 119.592 12.7858 120.548 13.2635C121.504 13.7413 122.292 14.3266 122.913 15.0194L123.2 12.7977H126.855V37.881H122.806V27.9552L123.271 28.0627ZM113.453 21.756C113.453 23.4044 113.883 24.7422 114.743 25.7694C115.603 26.7966 116.726 27.3102 118.111 27.3102C118.947 27.3102 119.712 27.0952 120.405 26.6652C121.121 26.2352 121.695 25.6141 122.125 24.8019C122.579 23.9658 122.806 22.9505 122.806 21.756C122.806 20.5377 122.579 19.5224 122.125 18.7102C121.695 17.898 121.121 17.2769 120.405 16.8469C119.712 16.4169 118.947 16.2019 118.111 16.2019C116.726 16.2019 115.603 16.7155 114.743 17.7427C113.883 18.7699 113.453 20.1077 113.453 21.756Z" fill="white"/>
<path d="M99.0684 30.9652C97.2767 30.9652 95.7001 30.571 94.3384 29.7827C93.0006 28.9944 91.9495 27.8955 91.1851 26.486C90.4445 25.0766 90.0742 23.4522 90.0742 21.6127C90.0742 19.8688 90.4445 18.316 91.1851 16.9544C91.9256 15.5927 92.9528 14.5177 94.2667 13.7294C95.5806 12.941 97.0737 12.5469 98.7459 12.5469C100.442 12.5469 101.935 12.9172 103.225 13.6577C104.515 14.3983 105.518 15.4374 106.235 16.7752C106.976 18.0891 107.346 19.618 107.346 21.3619C107.346 21.6485 107.334 21.9591 107.31 22.2935C107.286 22.6041 107.25 22.9385 107.203 23.2969H94.4459C94.5653 24.133 94.8281 24.8616 95.2342 25.4827C95.6642 26.0799 96.2017 26.5458 96.8467 26.8802C97.4917 27.2147 98.2323 27.3819 99.0684 27.3819C100.072 27.3819 100.968 27.1788 101.756 26.7727C102.568 26.3666 103.129 25.8291 103.44 25.1602L106.988 26.3427C106.271 27.776 105.208 28.9108 103.798 29.7469C102.389 30.5591 100.812 30.9652 99.0684 30.9652ZM102.938 20.0002C102.914 19.2597 102.711 18.5908 102.329 17.9935C101.947 17.3963 101.445 16.9305 100.824 16.596C100.203 16.2377 99.5103 16.0585 98.7459 16.0585C98.077 16.0585 97.4439 16.2258 96.8467 16.5602C96.2495 16.8947 95.7359 17.3605 95.3059 17.9577C94.8998 18.531 94.637 19.2119 94.5176 20.0002H102.938Z" fill="white"/>
<path d="M83.5332 13.1918C83.5332 11.9496 83.163 10.9701 82.4224 10.2535C81.6818 9.53682 80.5352 9.17848 78.9824 9.17848H73.4282V17.241H78.9824C80.0335 17.241 80.8816 17.0857 81.5266 16.7751C82.1955 16.4407 82.6971 15.9749 83.0316 15.3776C83.366 14.7565 83.5332 14.0279 83.5332 13.1918ZM78.9824 5.63098C80.9891 5.63098 82.6374 5.97737 83.9274 6.67015C85.2413 7.33904 86.2207 8.25876 86.8657 9.42931C87.5107 10.576 87.8332 11.8301 87.8332 13.1918C87.8332 14.0996 87.678 14.9954 87.3674 15.8793C87.0568 16.7632 86.5552 17.5874 85.8624 18.3518C85.1696 19.0924 84.2499 19.6896 83.1032 20.1435C81.9805 20.5735 80.6068 20.7885 78.9824 20.7885H73.4282V30.7143H69.1641V5.63098H78.9824ZM81.5266 19.391L88.3707 30.7143H83.5691L76.9757 19.391H81.5266Z" fill="white"/>
<defs>
<linearGradient id="paint0_linear_5397_3216" x1="16.3798" y1="4.45288" x2="16.3798" y2="49.1697" gradientUnits="userSpaceOnUse">
<stop stop-color="#4699F7"/>
<stop offset="1" stop-color="#67DE7F"/>
</linearGradient>
<linearGradient id="paint1_linear_5397_3216" x1="36.9536" y1="39.4198" x2="74.08" y2="7.59962" gradientUnits="userSpaceOnUse">
<stop stop-color="#67DE7F"/>
<stop offset="1" stop-color="#4699F7"/>
</linearGradient>
</defs>
</svg>
