<svg width="354" height="83" viewBox="0 0 354 83" fill="none" xmlns="http://www.w3.org/2000/svg">
<g clip-path="url(#clip0_378_3948)">
<path d="M53.9624 17.7338C52.7513 7.75749 44.1983 0 33.8517 0H0V66.7895H40.5776L44.2989 77.4164C44.894 79.1222 46.1218 80.5027 47.7519 81.2993C48.7032 81.7664 49.7257 82 50.7524 82C51.5025 82 52.2568 81.8749 52.9902 81.6205C58.3793 79.7478 62 74.6763 62 68.9916V68.7163L53.9666 17.7338H53.9624ZM7.12403 59.6993V36.9398H21.217V29.8497H7.12403V7.09018H33.8517C40.5944 7.09018 46.1637 12.1701 46.9054 18.6847C46.9641 19.1935 46.9934 19.694 46.9934 20.1736C46.9934 20.3989 46.9851 20.6241 46.9767 20.8451C46.9767 20.9202 46.9683 20.9953 46.9599 21.0703C46.9515 21.2163 46.939 21.3665 46.9222 21.5124C46.9138 21.6 46.9054 21.6918 46.8929 21.7794C46.8761 21.9087 46.8593 22.0421 46.8384 22.1714C46.8258 22.2632 46.8091 22.3591 46.7965 22.4508C46.7713 22.5885 46.742 22.7219 46.7169 22.8554C46.6791 23.0431 46.6331 23.2266 46.587 23.4143C46.5702 23.4893 46.5492 23.5602 46.5283 23.6353C46.4906 23.773 46.4487 23.9064 46.4068 24.044C46.39 24.1024 46.369 24.1567 46.3523 24.215C46.3062 24.361 46.2559 24.507 46.2014 24.653C46.1972 24.6697 46.1888 24.6863 46.1847 24.703C46.0003 25.1993 45.7866 25.679 45.5477 26.1461C45.5351 26.1753 45.5183 26.2003 45.5058 26.2295C45.4303 26.3713 45.3549 26.5131 45.2711 26.6549C45.2502 26.6883 45.2292 26.7258 45.2082 26.7592C44.982 27.1429 44.7389 27.5182 44.4749 27.8769C44.4036 27.977 44.3282 28.0771 44.2528 28.173C44.2025 28.2356 44.1522 28.3023 44.1019 28.3649C43.9888 28.5067 43.8714 28.6443 43.7499 28.782C43.7332 28.8028 43.7122 28.8237 43.6954 28.8445C43.2135 29.3867 42.6813 29.8914 42.1072 30.3543L41.8767 30.542C40.2969 31.7598 38.4195 32.6273 36.3535 33.0235C34.5599 33.3655 33.0052 34.4666 32.0958 36.0348C31.1907 37.5988 31.0147 39.4714 31.6097 41.1731L38.0968 59.7076H7.12403V59.6993ZM50.9326 74.8181L38.6625 39.7676C42.8699 38.7499 46.5157 36.4435 49.2103 33.3238L54.8676 69.2377C54.7712 71.7067 53.2249 73.8922 50.9326 74.8181Z" fill="white"/>
<path d="M96.8714 46.333C94.1429 46.333 91.7286 45.6805 89.6429 44.3612C87.5571 43.049 85.9286 41.2349 84.7571 38.9261C83.5857 36.6172 83 33.9499 83 30.9383C83 28.0773 83.5929 25.5319 84.7857 23.3019C85.9786 21.0719 87.6072 19.3152 89.6714 18.046C91.7357 16.7769 94.1 16.1387 96.7571 16.1387C99.4143 16.1387 101.7 16.7195 103.75 17.874C105.8 19.0284 107.4 20.6202 108.55 22.6351C109.7 24.6499 110.257 26.9516 110.214 29.5401C110.214 29.9345 110.207 30.3503 110.186 30.8021C110.164 31.2538 110.136 31.7342 110.1 32.2433H86.6286C86.6643 34.3944 87.1357 36.2946 88.0357 37.9437C88.9357 39.5857 90.1357 40.8692 91.6357 41.7942C93.1357 42.712 94.8429 43.1709 96.7571 43.1709C99.1786 43.1709 101.25 42.669 102.993 41.6723C104.729 40.6756 105.986 39.2559 106.771 37.4131L109.636 38.5891C108.543 41.0987 106.886 43.0132 104.664 44.3468C102.443 45.6805 99.8429 46.3474 96.8786 46.3474L96.8714 46.333ZM106.586 29.2963C106.621 27.3388 106.236 25.6179 105.414 24.1265C104.593 22.6351 103.436 21.4663 101.929 20.5987C100.429 19.7382 98.6571 19.308 96.6286 19.308C94.8357 19.308 93.2143 19.7382 91.7714 20.5987C90.3286 21.4591 89.15 22.6494 88.2286 24.1552C87.3143 25.6609 86.7714 27.3747 86.6214 29.2963H106.579H106.586Z" fill="white"/>
<path d="M133.864 4.78809C137.179 4.78809 139.914 5.36888 142.057 6.52331C144.2 7.67773 145.821 9.22653 146.914 11.1625C148.007 13.0985 148.55 15.2066 148.55 17.4796C148.55 19.0069 148.279 20.527 147.729 22.0328C147.179 23.5385 146.321 24.9081 145.15 26.1485C143.979 27.389 142.464 28.3713 140.614 29.117C138.764 29.8628 136.507 30.2356 133.857 30.2356H124.9V45.9243H117V4.78809H133.857H133.864ZM140.479 17.4796C140.479 15.601 139.921 14.1239 138.814 13.0411C137.7 11.9656 135.979 11.4278 133.636 11.4278H124.914V23.5887H133.636C135.236 23.5887 136.536 23.3521 137.529 22.886C138.521 22.4128 139.264 21.7101 139.75 20.7708C140.236 19.8315 140.479 18.7344 140.479 17.4796ZM138.314 27.5826L149.379 45.9172H140.543L129.95 27.5826H138.321H138.314Z" fill="white"/>
<path d="M168.393 46.333C165.429 46.333 162.836 45.6877 160.607 44.397C158.386 43.1064 156.657 41.3066 155.429 38.9906C154.2 36.6818 153.586 34.0144 153.586 31.0028C153.586 28.1419 154.2 25.5964 155.429 23.3664C156.657 21.1365 158.343 19.3726 160.493 18.0747C162.636 16.7841 165.093 16.1387 167.865 16.1387C170.636 16.1387 173.15 16.7339 175.3 17.9313C177.443 19.1288 179.115 20.821 180.307 23.0151C181.5 25.2092 182.115 27.7547 182.15 30.6515C182.15 31.0817 182.122 31.5621 182.065 32.0927C182.007 32.6233 181.922 33.1826 181.8 33.7634H161.665C161.822 35.0182 162.222 36.0866 162.865 36.9686C163.507 37.8505 164.307 38.5389 165.265 39.0265C166.222 39.514 167.322 39.7578 168.572 39.7578C169.979 39.7578 171.25 39.4638 172.407 38.8759C173.557 38.2879 174.386 37.4848 174.893 36.4666L181.565 38.4026C180.393 40.9123 178.65 42.8554 176.329 44.2465C174.007 45.6375 171.365 46.333 168.4 46.333H168.393ZM173.95 28.2925C173.872 27.1954 173.557 26.2059 173.015 25.3239C172.465 24.442 171.757 23.7608 170.879 23.2661C170 22.7785 168.993 22.5347 167.865 22.5347C166.886 22.5705 165.972 22.8358 165.115 23.3306C164.257 23.8182 163.522 24.485 162.922 25.3311C162.315 26.17 161.915 27.1595 161.722 28.2996H173.95V28.2925Z" fill="white"/>
<path d="M189.291 13.9589C189.291 11.3704 189.741 9.26952 190.634 7.64185C191.534 6.01418 192.884 4.8741 194.698 4.20726C196.512 3.54042 198.784 3.34682 201.52 3.61929V10.259C199.841 10.0654 198.634 10.302 197.891 10.9617C197.148 11.6286 196.777 12.7256 196.777 14.2529V16.5474H201.812V23.1871H196.777V45.9243H189.284V23.1871H185.77V16.5474H189.284V13.9661L189.291 13.9589Z" fill="white"/>
<path d="M219.901 46.333C216.937 46.333 214.344 45.6877 212.115 44.397C209.894 43.1064 208.165 41.3066 206.937 38.9906C205.708 36.6818 205.094 34.0144 205.094 31.0028C205.094 28.1419 205.708 25.5964 206.937 23.3664C208.165 21.1365 209.851 19.3726 212.001 18.0747C214.144 16.7841 216.601 16.1387 219.372 16.1387C222.144 16.1387 224.658 16.7339 226.808 17.9313C228.951 19.1288 230.622 20.821 231.815 23.0151C233.008 25.2092 233.622 27.7547 233.658 30.6515C233.658 31.0817 233.629 31.5621 233.572 32.0927C233.515 32.6233 233.429 33.1826 233.308 33.7634H213.172C213.329 35.0182 213.729 36.0866 214.372 36.9686C215.015 37.8505 215.815 38.5389 216.772 39.0265C217.729 39.514 218.829 39.7578 220.079 39.7578C221.487 39.7578 222.758 39.4638 223.915 38.8759C225.065 38.2879 225.894 37.4848 226.401 36.4666L233.072 38.4026C231.901 40.9123 230.158 42.8554 227.837 44.2465C225.515 45.6375 222.872 46.333 219.908 46.333H219.901ZM225.458 28.2925C225.379 27.1954 225.065 26.2059 224.522 25.3239C223.972 24.442 223.265 23.7608 222.387 23.2661C221.508 22.7785 220.501 22.5347 219.372 22.5347C218.394 22.5705 217.479 22.8358 216.622 23.3306C215.765 23.8182 215.029 24.485 214.429 25.3311C213.822 26.17 213.422 27.1595 213.229 28.2996H225.458V28.2925Z" fill="white"/>
<path d="M239.328 16.5403H246.178L246.65 20.3047C247.471 19.2865 248.392 18.4476 249.428 17.7807C250.464 17.1139 251.592 16.6622 252.821 16.4327C254.05 16.1961 255.364 16.2391 256.771 16.5474V23.5385C255.757 23.223 254.664 23.1513 253.492 23.3019C252.321 23.4596 251.235 23.8683 250.242 24.5352C249.25 25.202 248.428 26.1628 247.785 27.4105C247.142 28.6653 246.821 30.2141 246.821 32.0497V45.9171H239.328V16.5403Z" fill="white"/>
<path d="M261.57 16.5403H268.42L268.892 20.3047C269.713 19.2865 270.635 18.4476 271.67 17.7807C272.706 17.1139 273.835 16.6622 275.063 16.4327C276.292 16.1961 277.606 16.2391 279.013 16.5474V23.5385C277.999 23.223 276.906 23.1513 275.735 23.3019C274.563 23.4596 273.477 23.8683 272.485 24.5352C271.492 25.202 270.67 26.1628 270.027 27.4105C269.385 28.6653 269.063 30.2141 269.063 32.0497V45.9171H261.57V16.5403Z" fill="white"/>
<path d="M301.021 45.9171L300.435 42.3319C299.457 43.5868 298.357 44.5548 297.128 45.2431C295.9 45.9315 294.25 46.2685 292.185 46.2685C290.235 46.2685 288.528 45.9243 287.064 45.2431C285.6 44.5619 284.457 43.6011 283.643 42.3678C282.821 41.1345 282.414 39.6718 282.414 37.9939C282.414 35.5273 283.3 33.4766 285.078 31.8561C286.857 30.2284 289.535 29.2031 293.128 28.7728L300.443 28.0056V25.8904C300.443 25.0299 300.071 24.2555 299.328 23.5672C298.585 22.8788 297.414 22.5418 295.814 22.5418C294.407 22.5418 293.193 22.886 292.157 23.5672C291.121 24.2555 290.428 25.2809 290.078 26.6504L283.585 24.2985C284.443 21.6742 285.964 19.6593 288.15 18.2468C290.335 16.8342 293.007 16.1315 296.171 16.1315C300.035 16.1315 302.957 17.1139 304.95 19.0714C306.943 21.0289 307.935 23.5743 307.935 26.7078V45.9171H301.028H301.021ZM300.435 33.2256L294.114 33.9283C292.785 34.1219 291.8 34.5235 291.157 35.1329C290.514 35.7424 290.193 36.4523 290.193 37.2769C290.193 38.1015 290.535 38.8543 291.214 39.4208C291.9 39.9872 292.821 40.2741 293.993 40.2741C295.357 40.2741 296.521 40.0303 297.478 39.5427C298.435 39.0551 299.164 38.3094 299.671 37.3127C300.178 36.316 300.435 35.0899 300.435 33.6415V33.2328V33.2256Z" fill="white"/>
<path d="M314.77 3.61926H322.262V45.9243H314.77V3.61926Z" fill="white"/>
<path d="M334.727 36.3447C334.92 37.3271 335.313 38.0656 335.899 38.5747C336.484 39.0838 337.134 39.4495 337.863 39.6646C338.584 39.8797 339.313 39.9873 340.056 39.9873C341.42 39.9873 342.484 39.722 343.249 39.1914C344.013 38.6608 344.391 38.0083 344.391 37.2195C344.391 36.4308 344.127 35.9074 343.599 35.513C343.07 35.1258 342.377 34.8103 341.52 34.5737C340.663 34.337 339.784 34.0861 338.884 33.8064C337.834 33.5698 336.699 33.2902 335.492 32.9532C334.284 32.6233 333.149 32.1429 332.099 31.5119C331.049 30.8881 330.177 30.0707 329.492 29.074C328.806 28.0773 328.47 26.8082 328.47 25.2809C328.47 23.4381 328.97 21.832 329.963 20.4624C330.956 19.0929 332.341 18.0245 334.12 17.2573C335.899 16.4972 337.956 16.11 340.292 16.11C343.063 16.11 345.406 16.698 347.313 17.8739C349.227 19.0499 350.613 20.7349 351.47 22.929L344.913 24.8077C344.677 24.2627 344.327 23.811 343.856 23.4596C343.384 23.1083 342.82 22.8502 342.156 22.6924C341.491 22.5347 340.849 22.4558 340.227 22.4558C339.099 22.4558 338.156 22.6852 337.42 23.1298C336.677 23.5815 336.306 24.2197 336.306 25.0371C336.306 25.4673 336.441 25.833 336.713 26.127C336.984 26.421 337.363 26.6791 337.856 26.8942C338.342 27.1093 338.906 27.2886 339.556 27.4248C340.199 27.5611 340.892 27.7475 341.634 27.9841C342.884 28.2996 344.12 28.651 345.349 29.0453C346.577 29.4397 347.706 29.9488 348.742 30.5726C349.777 31.2036 350.606 32.0425 351.227 33.0966C351.849 34.1578 352.199 35.4843 352.277 37.0905C352.277 38.8113 351.791 40.3816 350.813 41.7942C349.834 43.2068 348.434 44.311 346.599 45.1141C344.763 45.9171 342.541 46.3187 339.927 46.3187C336.884 46.3187 334.299 45.6734 332.17 44.3827C330.042 43.092 328.649 41.0557 327.984 38.2736L334.713 36.3376L334.727 36.3447Z" fill="white"/>
<path d="M89.696 66.732C90.212 66.732 90.65 66.654 91.01 66.498C91.382 66.33 91.682 66.096 91.91 65.796C92.15 65.484 92.306 65.118 92.378 64.698C92.462 64.266 92.45 63.9 92.342 63.6C92.246 63.3 92.042 63.072 91.73 62.916C91.43 62.76 91.022 62.682 90.506 62.682H87.716L86.906 66.732H89.696ZM94.556 64.698C94.436 65.298 94.172 65.892 93.764 66.48C93.356 67.068 92.786 67.554 92.054 67.938C91.334 68.322 90.434 68.514 89.354 68.514H86.546L85.556 73.5H83.414L85.934 60.9H90.866C91.862 60.9 92.654 61.074 93.242 61.422C93.83 61.758 94.226 62.22 94.43 62.808C94.646 63.384 94.688 64.014 94.556 64.698ZM99.2169 73.5L99.2529 72.402C98.8929 72.786 98.4909 73.08 98.0469 73.284C97.6149 73.488 97.0689 73.59 96.4089 73.59C95.7849 73.59 95.2629 73.488 94.8429 73.284C94.4349 73.068 94.1409 72.774 93.9609 72.402C93.7929 72.018 93.7629 71.574 93.8709 71.07C94.0149 70.314 94.4169 69.684 95.0769 69.18C95.7369 68.664 96.6189 68.346 97.7229 68.226L100.135 67.974L100.279 67.272C100.339 66.984 100.261 66.726 100.045 66.498C99.8409 66.258 99.4629 66.138 98.9109 66.138C98.4429 66.138 98.0049 66.258 97.5969 66.498C97.2009 66.726 96.8949 67.074 96.6789 67.542L95.0409 66.894C95.4249 66.102 96.0009 65.484 96.7689 65.04C97.5369 64.596 98.4069 64.374 99.3789 64.374C100.555 64.374 101.377 64.668 101.845 65.256C102.313 65.844 102.457 66.594 102.277 67.506L101.089 73.5H99.2169ZM99.8289 69.54L97.6149 69.81C97.1589 69.87 96.7929 70.002 96.5169 70.206C96.2409 70.398 96.0729 70.644 96.0129 70.944C95.9649 71.22 96.0309 71.46 96.2109 71.664C96.3909 71.856 96.6789 71.952 97.0749 71.952C97.5669 71.952 97.9989 71.862 98.3709 71.682C98.7549 71.502 99.0609 71.244 99.2889 70.908C99.5289 70.572 99.7029 70.158 99.8109 69.666L99.8289 69.54ZM105.721 64.5L106.225 61.98H108.295L107.791 64.5H109.897L109.537 66.282H107.431L106.639 70.278C106.531 70.818 106.561 71.196 106.729 71.412C106.897 71.616 107.137 71.73 107.449 71.754C107.773 71.766 108.115 71.748 108.475 71.7L108.115 73.428C107.575 73.536 107.059 73.566 106.567 73.518C106.087 73.482 105.673 73.35 105.325 73.122C104.977 72.882 104.731 72.534 104.587 72.078C104.443 71.622 104.443 71.022 104.587 70.278L105.379 66.282H104.119L104.461 64.5H105.721ZM112.423 60.54H114.457L113.503 65.328C113.851 65.04 114.253 64.812 114.709 64.644C115.165 64.464 115.651 64.374 116.167 64.374C116.839 64.374 117.397 64.524 117.841 64.824C118.297 65.112 118.609 65.544 118.777 66.12C118.945 66.684 118.945 67.392 118.777 68.244L117.733 73.5H115.627L116.599 68.514C116.755 67.758 116.719 67.188 116.491 66.804C116.263 66.42 115.843 66.228 115.231 66.228C114.619 66.228 114.109 66.426 113.701 66.822C113.293 67.218 113.011 67.794 112.855 68.55L111.883 73.5H109.849L112.423 60.54ZM124.005 73.626C123.141 73.626 122.403 73.44 121.791 73.068C121.191 72.684 120.765 72.15 120.513 71.466C120.261 70.77 120.225 69.954 120.405 69.018C120.597 68.07 120.963 67.248 121.503 66.552C122.043 65.856 122.691 65.322 123.447 64.95C124.215 64.566 125.031 64.374 125.895 64.374C126.759 64.374 127.497 64.566 128.109 64.95C128.733 65.322 129.177 65.856 129.441 66.552C129.705 67.236 129.747 68.046 129.567 68.982C129.375 69.93 129.003 70.752 128.451 71.448C127.899 72.144 127.233 72.684 126.453 73.068C125.685 73.44 124.869 73.626 124.005 73.626ZM124.347 71.808C124.767 71.808 125.187 71.706 125.607 71.502C126.027 71.298 126.399 70.992 126.723 70.584C127.047 70.164 127.269 69.63 127.389 68.982C127.509 68.358 127.497 67.842 127.353 67.434C127.209 67.014 126.969 66.702 126.633 66.498C126.309 66.294 125.931 66.192 125.499 66.192C125.079 66.192 124.665 66.294 124.257 66.498C123.861 66.702 123.513 67.014 123.213 67.434C122.925 67.842 122.715 68.37 122.583 69.018C122.463 69.642 122.463 70.164 122.583 70.584C122.715 70.992 122.937 71.298 123.249 71.502C123.561 71.706 123.927 71.808 124.347 71.808ZM133.148 60.54H135.182L132.608 73.5H130.574L133.148 60.54ZM138.982 73.626C138.118 73.626 137.38 73.44 136.768 73.068C136.168 72.684 135.742 72.15 135.49 71.466C135.238 70.77 135.202 69.954 135.382 69.018C135.574 68.07 135.94 67.248 136.48 66.552C137.02 65.856 137.668 65.322 138.424 64.95C139.192 64.566 140.008 64.374 140.872 64.374C141.736 64.374 142.474 64.566 143.086 64.95C143.71 65.322 144.154 65.856 144.418 66.552C144.682 67.236 144.724 68.046 144.544 68.982C144.352 69.93 143.98 70.752 143.428 71.448C142.876 72.144 142.21 72.684 141.43 73.068C140.662 73.44 139.846 73.626 138.982 73.626ZM139.324 71.808C139.744 71.808 140.164 71.706 140.584 71.502C141.004 71.298 141.376 70.992 141.7 70.584C142.024 70.164 142.246 69.63 142.366 68.982C142.486 68.358 142.474 67.842 142.33 67.434C142.186 67.014 141.946 66.702 141.61 66.498C141.286 66.294 140.908 66.192 140.476 66.192C140.056 66.192 139.642 66.294 139.234 66.498C138.838 66.702 138.49 67.014 138.19 67.434C137.902 67.842 137.692 68.37 137.56 69.018C137.44 69.642 137.44 70.164 137.56 70.584C137.692 70.992 137.914 71.298 138.226 71.502C138.538 71.706 138.904 71.808 139.324 71.808ZM153.92 64.5H155.756L154.244 72.15C154.04 73.17 153.614 74.046 152.966 74.778C152.318 75.522 151.478 76.092 150.446 76.488C149.414 76.896 148.232 77.1 146.9 77.1L146.936 75.354C148.46 75.318 149.666 75.03 150.554 74.49C151.454 73.95 152.006 73.176 152.21 72.168V72.15H152.444C152.096 72.558 151.628 72.906 151.04 73.194C150.464 73.482 149.81 73.626 149.078 73.626C148.298 73.626 147.638 73.434 147.098 73.05C146.57 72.666 146.198 72.126 145.982 71.43C145.778 70.734 145.766 69.924 145.946 69C146.138 68.076 146.474 67.266 146.954 66.57C147.434 65.874 148.016 65.334 148.7 64.95C149.396 64.566 150.14 64.374 150.932 64.374C151.376 64.374 151.766 64.434 152.102 64.554C152.45 64.662 152.744 64.812 152.984 65.004C153.236 65.184 153.428 65.388 153.56 65.616L153.92 64.5ZM148.124 69C147.956 69.828 148.04 70.5 148.376 71.016C148.712 71.532 149.24 71.79 149.96 71.79C150.38 71.79 150.788 71.682 151.184 71.466C151.58 71.238 151.928 70.914 152.228 70.494C152.528 70.074 152.726 69.576 152.822 69C152.954 68.4 152.954 67.896 152.822 67.488C152.69 67.068 152.468 66.75 152.156 66.534C151.844 66.318 151.478 66.21 151.058 66.21C150.578 66.21 150.134 66.33 149.726 66.57C149.33 66.798 148.994 67.122 148.718 67.542C148.442 67.95 148.244 68.436 148.124 69ZM164.317 64.5H166.459L158.665 77.1H156.631L159.025 73.248L157.261 64.5H159.511L160.609 70.872L164.317 64.5Z" fill="white"/>
<path d="M172 67.5L353 67.5" stroke="white"/>
</g>
<defs>
<clipPath id="clip0_378_3948">
<rect width="354" height="82" fill="white" transform="translate(0 0.5)"/>
</clipPath>
</defs>
</svg>
