<svg width="1204" height="464" viewBox="0 0 1204 464" fill="none" xmlns="http://www.w3.org/2000/svg">
<g clip-path="url(#clip0_5129_3405)">
<rect width="1204" height="464" rx="6" fill="#E1E1E1"/>
<path d="M29.0063 18.2H32.1983L25.9103 28.952V35H23.0783V28.976L16.8143 18.2H19.9823L24.4943 26.36L29.0063 18.2ZM39.7452 35.168C38.5932 35.168 37.5612 34.92 36.6492 34.424C35.7372 33.912 35.0252 33.2 34.5132 32.288C34.0012 31.36 33.7452 30.272 33.7452 29.024C33.7452 27.76 34.0092 26.664 34.5372 25.736C35.0652 24.808 35.7932 24.096 36.7212 23.6C37.6492 23.088 38.6812 22.832 39.8172 22.832C40.9692 22.832 42.0012 23.088 42.9132 23.6C43.8412 24.096 44.5772 24.808 45.1212 25.736C45.6652 26.648 45.9372 27.728 45.9372 28.976C45.9372 30.24 45.6572 31.336 45.0972 32.264C44.5532 33.192 43.8092 33.912 42.8652 34.424C41.9372 34.92 40.8972 35.168 39.7452 35.168ZM39.7212 32.744C40.2812 32.744 40.8092 32.608 41.3052 32.336C41.8172 32.064 42.2332 31.656 42.5532 31.112C42.8732 30.552 43.0332 29.84 43.0332 28.976C43.0332 28.144 42.8812 27.456 42.5772 26.912C42.2732 26.352 41.8732 25.936 41.3772 25.664C40.8812 25.392 40.3452 25.256 39.7692 25.256C39.2092 25.256 38.6892 25.392 38.2092 25.664C37.7452 25.936 37.3692 26.352 37.0812 26.912C36.7932 27.456 36.6492 28.16 36.6492 29.024C36.6492 29.856 36.7852 30.552 37.0572 31.112C37.3452 31.656 37.7212 32.064 38.1852 32.336C38.6492 32.608 39.1612 32.744 39.7212 32.744ZM58.7511 35H56.2551L56.0871 33.8C55.6871 34.232 55.2071 34.568 54.6471 34.808C54.0871 35.048 53.4951 35.168 52.8711 35.168C51.9271 35.168 51.1111 34.976 50.4231 34.592C49.7511 34.192 49.2311 33.616 48.8631 32.864C48.4951 32.096 48.3111 31.152 48.3111 30.032V23H51.0231V29.672C51.0231 30.664 51.2231 31.424 51.6231 31.952C52.0231 32.464 52.6391 32.72 53.4711 32.72C54.2711 32.72 54.8951 32.464 55.3431 31.952C55.8071 31.424 56.0391 30.648 56.0391 29.624V23H58.7511V35ZM61.9088 23H64.3568L64.5728 24.488C64.8928 24.088 65.2688 23.76 65.7008 23.504C66.1328 23.232 66.5968 23.048 67.0928 22.952C67.6048 22.856 68.1168 22.872 68.6288 23V25.496C68.2128 25.352 67.7648 25.32 67.2848 25.4C66.8208 25.464 66.3888 25.64 65.9888 25.928C65.5888 26.2 65.2608 26.592 65.0048 27.104C64.7488 27.6 64.6208 28.216 64.6208 28.952V35H61.9088V23ZM84.6467 35L84.4067 33.536C84.0227 34.048 83.5667 34.44 83.0387 34.712C82.5107 34.984 81.8067 35.12 80.9267 35.12C80.0947 35.12 79.3747 34.984 78.7667 34.712C78.1587 34.424 77.6867 34.032 77.3507 33.536C77.0307 33.024 76.8707 32.432 76.8707 31.76C76.8707 30.752 77.2387 29.912 77.9747 29.24C78.7267 28.552 79.8227 28.128 81.2627 27.968L84.4067 27.632V26.696C84.4067 26.312 84.2387 25.968 83.9027 25.664C83.5667 25.344 83.0307 25.184 82.2947 25.184C81.6547 25.184 81.0947 25.344 80.6147 25.664C80.1507 25.968 79.8387 26.432 79.6787 27.056L77.3267 26.192C77.6307 25.136 78.2307 24.312 79.1267 23.72C80.0387 23.128 81.1427 22.832 82.4387 22.832C84.0067 22.832 85.1827 23.224 85.9667 24.008C86.7507 24.792 87.1427 25.792 87.1427 27.008V35H84.6467ZM84.4067 29.72L81.5267 30.08C80.9187 30.16 80.4627 30.336 80.1587 30.608C79.8547 30.864 79.7027 31.192 79.7027 31.592C79.7027 31.96 79.8467 32.28 80.1347 32.552C80.4387 32.808 80.8467 32.936 81.3587 32.936C82.0147 32.936 82.5667 32.816 83.0147 32.576C83.4787 32.336 83.8227 31.992 84.0467 31.544C84.2867 31.096 84.4067 30.544 84.4067 29.888V29.72ZM90.151 23H92.599L92.791 24.176C93.191 23.76 93.663 23.432 94.207 23.192C94.767 22.952 95.367 22.832 96.007 22.832C96.951 22.832 97.759 23.032 98.431 23.432C99.119 23.816 99.647 24.392 100.015 25.16C100.383 25.912 100.567 26.856 100.567 27.992V35H97.855V28.352C97.855 27.344 97.647 26.584 97.231 26.072C96.831 25.56 96.223 25.304 95.407 25.304C94.575 25.304 93.943 25.568 93.511 26.096C93.079 26.608 92.863 27.368 92.863 28.376V35H90.151V23ZM110.709 35L110.469 33.536C110.085 34.048 109.629 34.44 109.101 34.712C108.573 34.984 107.869 35.12 106.989 35.12C106.157 35.12 105.437 34.984 104.829 34.712C104.221 34.424 103.749 34.032 103.413 33.536C103.093 33.024 102.933 32.432 102.933 31.76C102.933 30.752 103.301 29.912 104.037 29.24C104.789 28.552 105.885 28.128 107.325 27.968L110.469 27.632V26.696C110.469 26.312 110.301 25.968 109.965 25.664C109.629 25.344 109.093 25.184 108.357 25.184C107.717 25.184 107.157 25.344 106.677 25.664C106.213 25.968 105.901 26.432 105.741 27.056L103.389 26.192C103.693 25.136 104.293 24.312 105.189 23.72C106.101 23.128 107.205 22.832 108.501 22.832C110.069 22.832 111.245 23.224 112.029 24.008C112.813 24.792 113.205 25.792 113.205 27.008V35H110.709ZM110.469 29.72L107.589 30.08C106.981 30.16 106.525 30.336 106.221 30.608C105.917 30.864 105.765 31.192 105.765 31.592C105.765 31.96 105.909 32.28 106.197 32.552C106.501 32.808 106.909 32.936 107.421 32.936C108.077 32.936 108.629 32.816 109.077 32.576C109.541 32.336 109.885 31.992 110.109 31.544C110.349 31.096 110.469 30.544 110.469 29.888V29.72ZM116.213 17.72H118.925V35H116.213V17.72ZM130.304 23H133.16L126.104 39.8H123.416L125.576 34.664L120.896 23H123.896L127.064 31.496L130.304 23ZM135.942 23V19.64H138.702V23H141.51V25.376H138.702V30.704C138.702 31.424 138.838 31.928 139.11 32.216C139.382 32.488 139.734 32.64 140.166 32.672C140.614 32.688 141.062 32.664 141.51 32.6V34.904C140.822 35.048 140.142 35.088 139.47 35.024C138.814 34.976 138.222 34.8 137.694 34.496C137.166 34.176 136.742 33.712 136.422 33.104C136.102 32.496 135.942 31.696 135.942 30.704V25.376H134.262V23H135.942ZM144.23 23H146.942V35H144.23V23ZM145.598 21.176C145.102 21.176 144.686 21.008 144.35 20.672C144.014 20.336 143.846 19.936 143.846 19.472C143.846 18.976 144.014 18.56 144.35 18.224C144.686 17.888 145.102 17.72 145.598 17.72C146.078 17.72 146.486 17.888 146.822 18.224C147.158 18.56 147.326 18.976 147.326 19.472C147.326 19.936 147.158 20.336 146.822 20.672C146.486 21.008 146.078 21.176 145.598 21.176ZM155.71 35.168C154.558 35.168 153.542 34.912 152.662 34.4C151.782 33.872 151.094 33.152 150.598 32.24C150.118 31.328 149.878 30.264 149.878 29.048C149.878 27.816 150.126 26.736 150.622 25.808C151.118 24.88 151.806 24.152 152.686 23.624C153.582 23.096 154.614 22.832 155.782 22.832C157.014 22.832 158.11 23.128 159.07 23.72C160.03 24.296 160.718 25.08 161.134 26.072L158.662 26.888C158.454 26.392 158.094 26 157.582 25.712C157.086 25.408 156.518 25.256 155.878 25.256C155.238 25.256 154.686 25.416 154.222 25.736C153.758 26.04 153.398 26.472 153.142 27.032C152.902 27.592 152.782 28.256 152.782 29.024C152.782 30.176 153.062 31.088 153.622 31.76C154.182 32.416 154.95 32.744 155.926 32.744C156.55 32.744 157.11 32.608 157.606 32.336C158.102 32.048 158.486 31.648 158.758 31.136L161.182 31.976C160.718 32.952 159.99 33.728 158.998 34.304C158.022 34.88 156.926 35.168 155.71 35.168ZM165.449 31.136C165.561 31.584 165.753 31.928 166.025 32.168C166.313 32.408 166.625 32.576 166.961 32.672C167.297 32.752 167.617 32.792 167.921 32.792C168.545 32.792 169.033 32.672 169.385 32.432C169.753 32.176 169.937 31.856 169.937 31.472C169.937 31.152 169.817 30.904 169.577 30.728C169.337 30.552 169.025 30.416 168.641 30.32C168.273 30.208 167.889 30.096 167.489 29.984C167.057 29.872 166.593 29.744 166.097 29.6C165.617 29.456 165.161 29.256 164.729 29C164.297 28.744 163.945 28.416 163.673 28.016C163.401 27.616 163.265 27.12 163.265 26.528C163.265 25.776 163.473 25.128 163.889 24.584C164.305 24.024 164.873 23.592 165.593 23.288C166.313 22.984 167.121 22.832 168.017 22.832C169.089 22.832 170.017 23.056 170.801 23.504C171.585 23.952 172.153 24.608 172.505 25.472L170.129 26.24C170.017 26.016 169.849 25.824 169.625 25.664C169.417 25.504 169.161 25.392 168.857 25.328C168.569 25.248 168.273 25.208 167.969 25.208C167.457 25.208 167.025 25.312 166.673 25.52C166.321 25.728 166.145 26.024 166.145 26.408C166.145 26.6 166.201 26.768 166.313 26.912C166.441 27.056 166.609 27.176 166.817 27.272C167.025 27.352 167.273 27.432 167.561 27.512C167.849 27.576 168.153 27.656 168.473 27.752C168.985 27.896 169.489 28.056 169.985 28.232C170.497 28.392 170.961 28.6 171.377 28.856C171.809 29.112 172.145 29.448 172.385 29.864C172.641 30.28 172.785 30.808 172.817 31.448C172.817 32.136 172.617 32.768 172.217 33.344C171.817 33.904 171.241 34.352 170.489 34.688C169.753 35.008 168.873 35.168 167.849 35.168C166.665 35.168 165.649 34.912 164.801 34.4C163.953 33.888 163.377 33.064 163.073 31.928L165.449 31.136Z" fill="black"/>
<g clip-path="url(#clip1_5129_3405)">
<rect x="33" y="80" width="1140" height="342" rx="4" fill="white" fill-opacity="0.7"/>
<g clip-path="url(#clip2_5129_3405)">
<rect x="905" y="94" width="81" height="17" rx="2" fill="#B4B4B4"/>
<path d="M910.489 102.6C910.489 101.863 910.61 101.191 910.853 100.584C911.095 99.968 911.436 99.4407 911.875 99.002C912.323 98.554 912.836 98.2087 913.415 97.966C914.003 97.7233 914.642 97.602 915.333 97.602C916.341 97.602 917.223 97.8353 917.979 98.302C918.744 98.7687 919.323 99.4313 919.715 100.29L918.805 100.626C918.59 100.169 918.305 99.7953 917.951 99.506C917.596 99.2073 917.195 98.9833 916.747 98.834C916.299 98.6847 915.827 98.61 915.333 98.61C914.633 98.61 914.003 98.7687 913.443 99.086C912.883 99.4033 912.439 99.8607 912.113 100.458C911.795 101.055 911.637 101.769 911.637 102.6C911.637 103.421 911.795 104.131 912.113 104.728C912.439 105.325 912.883 105.787 913.443 106.114C914.003 106.431 914.633 106.59 915.333 106.59C915.837 106.59 916.317 106.511 916.775 106.352C917.232 106.193 917.643 105.946 918.007 105.61C918.38 105.274 918.679 104.854 918.903 104.35L919.813 104.686C919.411 105.647 918.823 106.375 918.049 106.87C917.274 107.355 916.369 107.598 915.333 107.598C914.642 107.598 914.003 107.477 913.415 107.234C912.836 106.991 912.323 106.646 911.875 106.198C911.436 105.75 911.095 105.223 910.853 104.616C910.61 104 910.489 103.328 910.489 102.6ZM921.67 100.5H922.636L922.692 101.522C922.878 101.27 923.102 101.055 923.364 100.878C923.634 100.701 923.928 100.579 924.246 100.514C924.572 100.439 924.918 100.435 925.282 100.5V101.55C924.89 101.475 924.535 101.475 924.218 101.55C923.91 101.625 923.644 101.765 923.42 101.97C923.196 102.175 923.023 102.437 922.902 102.754C922.78 103.062 922.72 103.421 922.72 103.832V107.5H921.67V100.5ZM929.518 107.598C928.865 107.598 928.281 107.439 927.768 107.122C927.264 106.805 926.867 106.371 926.578 105.82C926.289 105.269 926.144 104.639 926.144 103.93C926.144 103.249 926.289 102.642 926.578 102.11C926.867 101.578 927.264 101.163 927.768 100.864C928.272 100.556 928.846 100.402 929.49 100.402C930.125 100.402 930.689 100.542 931.184 100.822C931.688 101.102 932.08 101.489 932.36 101.984C932.64 102.479 932.771 103.043 932.752 103.678C932.752 103.781 932.747 103.888 932.738 104C932.729 104.112 932.719 104.233 932.71 104.364H927.292C927.311 104.803 927.418 105.19 927.614 105.526C927.81 105.862 928.067 106.128 928.384 106.324C928.711 106.511 929.079 106.604 929.49 106.604C930.031 106.604 930.489 106.501 930.862 106.296C931.245 106.091 931.52 105.797 931.688 105.414L932.598 105.778C932.318 106.366 931.912 106.819 931.38 107.136C930.848 107.444 930.227 107.598 929.518 107.598ZM931.604 103.454C931.613 103.053 931.525 102.698 931.338 102.39C931.161 102.082 930.909 101.839 930.582 101.662C930.255 101.485 929.877 101.396 929.448 101.396C929.075 101.396 928.734 101.485 928.426 101.662C928.118 101.839 927.861 102.087 927.656 102.404C927.46 102.712 927.343 103.062 927.306 103.454H931.604ZM938.862 107.5L938.778 106.24C938.582 106.669 938.293 107.005 937.91 107.248C937.528 107.481 937.042 107.598 936.454 107.598C935.95 107.598 935.521 107.519 935.166 107.36C934.812 107.201 934.536 106.977 934.34 106.688C934.154 106.389 934.06 106.039 934.06 105.638C934.06 105.05 934.28 104.569 934.718 104.196C935.157 103.813 935.792 103.58 936.622 103.496L938.778 103.258V102.698C938.778 102.306 938.634 101.993 938.344 101.76C938.055 101.517 937.663 101.396 937.168 101.396C936.683 101.396 936.277 101.508 935.95 101.732C935.633 101.956 935.414 102.278 935.292 102.698L934.34 102.362C934.527 101.746 934.868 101.265 935.362 100.92C935.866 100.575 936.478 100.402 937.196 100.402C938.027 100.402 938.671 100.617 939.128 101.046C939.595 101.466 939.828 102.04 939.828 102.768V107.5H938.862ZM938.778 104.154L936.608 104.406C936.142 104.462 935.787 104.593 935.544 104.798C935.302 104.994 935.18 105.255 935.18 105.582C935.18 105.909 935.297 106.17 935.53 106.366C935.773 106.562 936.118 106.66 936.566 106.66C937.08 106.66 937.5 106.557 937.826 106.352C938.153 106.147 938.391 105.871 938.54 105.526C938.699 105.171 938.778 104.789 938.778 104.378V104.154ZM942.325 100.5V98.54H943.375V100.5H945.237V101.48H943.375V105.246C943.375 105.675 943.463 105.988 943.641 106.184C943.827 106.38 944.061 106.497 944.341 106.534C944.63 106.571 944.929 106.571 945.237 106.534V107.444C944.873 107.528 944.513 107.551 944.159 107.514C943.813 107.477 943.501 107.374 943.221 107.206C942.95 107.029 942.731 106.781 942.563 106.464C942.404 106.147 942.325 105.741 942.325 105.246V101.48H941.275V100.5H942.325ZM949.739 107.598C949.085 107.598 948.502 107.439 947.989 107.122C947.485 106.805 947.088 106.371 946.799 105.82C946.509 105.269 946.365 104.639 946.365 103.93C946.365 103.249 946.509 102.642 946.799 102.11C947.088 101.578 947.485 101.163 947.989 100.864C948.493 100.556 949.067 100.402 949.711 100.402C950.345 100.402 950.91 100.542 951.405 100.822C951.909 101.102 952.301 101.489 952.581 101.984C952.861 102.479 952.991 103.043 952.973 103.678C952.973 103.781 952.968 103.888 952.959 104C952.949 104.112 952.94 104.233 952.931 104.364H947.513C947.531 104.803 947.639 105.19 947.835 105.526C948.031 105.862 948.287 106.128 948.605 106.324C948.931 106.511 949.3 106.604 949.711 106.604C950.252 106.604 950.709 106.501 951.083 106.296C951.465 106.091 951.741 105.797 951.909 105.414L952.819 105.778C952.539 106.366 952.133 106.819 951.601 107.136C951.069 107.444 950.448 107.598 949.739 107.598ZM951.825 103.454C951.834 103.053 951.745 102.698 951.559 102.39C951.381 102.082 951.129 101.839 950.803 101.662C950.476 101.485 950.098 101.396 949.669 101.396C949.295 101.396 948.955 101.485 948.647 101.662C948.339 101.839 948.082 102.087 947.877 102.404C947.681 102.712 947.564 103.062 947.527 103.454H951.825ZM960.105 101.914L959.993 101.928V97.42H961.043V107.5H960.077L960.007 106.198C959.792 106.59 959.47 106.921 959.041 107.192C958.621 107.463 958.098 107.598 957.473 107.598C956.829 107.598 956.264 107.453 955.779 107.164C955.303 106.865 954.93 106.445 954.659 105.904C954.398 105.363 954.267 104.728 954.267 104C954.267 103.272 954.398 102.642 954.659 102.11C954.93 101.569 955.303 101.149 955.779 100.85C956.264 100.551 956.829 100.402 957.473 100.402C958.136 100.402 958.686 100.547 959.125 100.836C959.564 101.125 959.89 101.485 960.105 101.914ZM955.401 104C955.401 104.803 955.606 105.442 956.017 105.918C956.428 106.385 956.988 106.618 957.697 106.618C958.136 106.618 958.528 106.515 958.873 106.31C959.218 106.105 959.489 105.806 959.685 105.414C959.89 105.022 959.993 104.551 959.993 104C959.993 103.449 959.89 102.983 959.685 102.6C959.489 102.208 959.218 101.909 958.873 101.704C958.528 101.489 958.136 101.382 957.697 101.382C956.997 101.382 956.437 101.62 956.017 102.096C955.606 102.563 955.401 103.197 955.401 104Z" fill="white"/>
<g filter="url(#filter0_d_5129_3405)">
<circle cx="977" cy="102.5" r="4" fill="#83BCFF"/>
</g>
</g>
<g clip-path="url(#clip3_5129_3405)">
<rect x="994" y="94" width="101" height="17" rx="2" fill="#B4B4B4"/>
<path d="M1000.04 102.6C1000.04 101.863 1000.16 101.191 1000.4 100.584C1000.64 99.968 1000.98 99.4407 1001.42 99.002C1001.87 98.554 1002.38 98.2087 1002.96 97.966C1003.55 97.7233 1004.19 97.602 1004.88 97.602C1005.89 97.602 1006.77 97.8353 1007.53 98.302C1008.29 98.7687 1008.87 99.4313 1009.26 100.29L1008.35 100.626C1008.14 100.169 1007.85 99.7953 1007.5 99.506C1007.14 99.2073 1006.74 98.9833 1006.29 98.834C1005.85 98.6847 1005.37 98.61 1004.88 98.61C1004.18 98.61 1003.55 98.7687 1002.99 99.086C1002.43 99.4033 1001.99 99.8607 1001.66 100.458C1001.34 101.055 1001.18 101.769 1001.18 102.6C1001.18 103.421 1001.34 104.131 1001.66 104.728C1001.99 105.325 1002.43 105.787 1002.99 106.114C1003.55 106.431 1004.18 106.59 1004.88 106.59C1005.38 106.59 1005.86 106.511 1006.32 106.352C1006.78 106.193 1007.19 105.946 1007.55 105.61C1007.93 105.274 1008.23 104.854 1008.45 104.35L1009.36 104.686C1008.96 105.647 1008.37 106.375 1007.6 106.87C1006.82 107.355 1005.92 107.598 1004.88 107.598C1004.19 107.598 1003.55 107.477 1002.96 107.234C1002.38 106.991 1001.87 106.646 1001.42 106.198C1000.98 105.75 1000.64 105.223 1000.4 104.616C1000.16 104 1000.04 103.328 1000.04 102.6ZM1014.24 107.598C1013.58 107.598 1012.99 107.453 1012.46 107.164C1011.94 106.875 1011.53 106.464 1011.23 105.932C1010.93 105.391 1010.78 104.751 1010.78 104.014C1010.78 103.267 1010.93 102.623 1011.23 102.082C1011.54 101.541 1011.95 101.125 1012.48 100.836C1013.01 100.547 1013.61 100.402 1014.27 100.402C1014.93 100.402 1015.52 100.547 1016.05 100.836C1016.58 101.125 1016.99 101.541 1017.29 102.082C1017.6 102.614 1017.75 103.249 1017.75 103.986C1017.75 104.733 1017.6 105.377 1017.29 105.918C1016.98 106.459 1016.56 106.875 1016.03 107.164C1015.5 107.453 1014.9 107.598 1014.24 107.598ZM1014.23 106.604C1014.64 106.604 1015.02 106.515 1015.39 106.338C1015.75 106.151 1016.05 105.867 1016.27 105.484C1016.5 105.092 1016.62 104.597 1016.62 104C1016.62 103.393 1016.51 102.899 1016.28 102.516C1016.06 102.133 1015.77 101.853 1015.4 101.676C1015.05 101.489 1014.67 101.396 1014.25 101.396C1013.84 101.396 1013.46 101.489 1013.11 101.676C1012.75 101.853 1012.46 102.138 1012.24 102.53C1012.02 102.913 1011.92 103.403 1011.92 104C1011.92 104.607 1012.02 105.101 1012.24 105.484C1012.45 105.867 1012.73 106.151 1013.08 106.338C1013.43 106.515 1013.82 106.604 1014.23 106.604ZM1019.47 100.5H1020.44L1020.51 101.508C1020.72 101.172 1020.99 100.906 1021.34 100.71C1021.69 100.505 1022.11 100.402 1022.6 100.402C1023.09 100.402 1023.54 100.523 1023.94 100.766C1024.35 100.999 1024.67 101.349 1024.89 101.816C1025.11 101.34 1025.43 100.985 1025.87 100.752C1026.31 100.519 1026.8 100.402 1027.33 100.402C1027.85 100.402 1028.31 100.519 1028.71 100.752C1029.12 100.976 1029.43 101.317 1029.65 101.774C1029.88 102.222 1029.99 102.787 1029.99 103.468V107.5H1028.94V103.594C1028.94 102.866 1028.78 102.315 1028.46 101.942C1028.15 101.559 1027.71 101.368 1027.13 101.368C1026.54 101.368 1026.08 101.573 1025.73 101.984C1025.39 102.385 1025.21 102.983 1025.21 103.776V107.5H1024.16V103.594C1024.16 102.866 1024.02 102.315 1023.72 101.942C1023.42 101.559 1022.98 101.368 1022.4 101.368C1021.81 101.368 1021.35 101.573 1021.01 101.984C1020.69 102.385 1020.52 102.983 1020.52 103.776V107.5H1019.47V100.5ZM1032.96 106.086L1033.08 106.072V110.3H1032.03V100.5H1032.99L1033.06 101.802C1033.28 101.41 1033.59 101.079 1034.01 100.808C1034.43 100.537 1034.96 100.402 1035.6 100.402C1036.2 100.402 1036.75 100.551 1037.23 100.85C1037.72 101.139 1038.1 101.555 1038.38 102.096C1038.66 102.628 1038.8 103.263 1038.8 104C1038.8 104.728 1038.67 105.363 1038.4 105.904C1038.13 106.436 1037.76 106.851 1037.28 107.15C1036.8 107.449 1036.24 107.598 1035.6 107.598C1034.92 107.598 1034.37 107.453 1033.93 107.164C1033.49 106.875 1033.17 106.515 1032.96 106.086ZM1037.67 104C1037.67 103.197 1037.46 102.563 1037.04 102.096C1036.63 101.62 1036.07 101.382 1035.37 101.382C1034.93 101.382 1034.54 101.485 1034.18 101.69C1033.84 101.895 1033.57 102.194 1033.37 102.586C1033.17 102.978 1033.08 103.449 1033.08 104C1033.08 104.541 1033.17 105.008 1033.37 105.4C1033.57 105.792 1033.84 106.095 1034.18 106.31C1034.54 106.515 1034.93 106.618 1035.37 106.618C1036.07 106.618 1036.63 106.385 1037.04 105.918C1037.46 105.442 1037.67 104.803 1037.67 104ZM1040.52 97.42H1041.57V107.5H1040.52V97.42ZM1046.64 107.598C1045.99 107.598 1045.4 107.439 1044.89 107.122C1044.39 106.805 1043.99 106.371 1043.7 105.82C1043.41 105.269 1043.27 104.639 1043.27 103.93C1043.27 103.249 1043.41 102.642 1043.7 102.11C1043.99 101.578 1044.39 101.163 1044.89 100.864C1045.4 100.556 1045.97 100.402 1046.61 100.402C1047.25 100.402 1047.81 100.542 1048.31 100.822C1048.81 101.102 1049.2 101.489 1049.48 101.984C1049.76 102.479 1049.89 103.043 1049.88 103.678C1049.88 103.781 1049.87 103.888 1049.86 104C1049.85 104.112 1049.84 104.233 1049.83 104.364H1044.42C1044.43 104.803 1044.54 105.19 1044.74 105.526C1044.93 105.862 1045.19 106.128 1045.51 106.324C1045.83 106.511 1046.2 106.604 1046.61 106.604C1047.15 106.604 1047.61 106.501 1047.99 106.296C1048.37 106.091 1048.64 105.797 1048.81 105.414L1049.72 105.778C1049.44 106.366 1049.04 106.819 1048.5 107.136C1047.97 107.444 1047.35 107.598 1046.64 107.598ZM1048.73 103.454C1048.74 103.053 1048.65 102.698 1048.46 102.39C1048.28 102.082 1048.03 101.839 1047.71 101.662C1047.38 101.485 1047 101.396 1046.57 101.396C1046.2 101.396 1045.86 101.485 1045.55 101.662C1045.24 101.839 1044.98 102.087 1044.78 102.404C1044.58 102.712 1044.47 103.062 1044.43 103.454H1048.73ZM1051.78 100.5V98.54H1052.83V100.5H1054.69V101.48H1052.83V105.246C1052.83 105.675 1052.92 105.988 1053.09 106.184C1053.28 106.38 1053.51 106.497 1053.79 106.534C1054.08 106.571 1054.38 106.571 1054.69 106.534V107.444C1054.33 107.528 1053.97 107.551 1053.61 107.514C1053.27 107.477 1052.95 107.374 1052.67 107.206C1052.4 107.029 1052.18 106.781 1052.02 106.464C1051.86 106.147 1051.78 105.741 1051.78 105.246V101.48H1050.73V100.5H1051.78ZM1059.19 107.598C1058.54 107.598 1057.96 107.439 1057.44 107.122C1056.94 106.805 1056.54 106.371 1056.25 105.82C1055.96 105.269 1055.82 104.639 1055.82 103.93C1055.82 103.249 1055.96 102.642 1056.25 102.11C1056.54 101.578 1056.94 101.163 1057.44 100.864C1057.95 100.556 1058.52 100.402 1059.16 100.402C1059.8 100.402 1060.36 100.542 1060.86 100.822C1061.36 101.102 1061.75 101.489 1062.03 101.984C1062.31 102.479 1062.44 103.043 1062.43 103.678C1062.43 103.781 1062.42 103.888 1062.41 104C1062.4 104.112 1062.39 104.233 1062.38 104.364H1056.97C1056.98 104.803 1057.09 105.19 1057.29 105.526C1057.48 105.862 1057.74 106.128 1058.06 106.324C1058.38 106.511 1058.75 106.604 1059.16 106.604C1059.71 106.604 1060.16 106.501 1060.54 106.296C1060.92 106.091 1061.19 105.797 1061.36 105.414L1062.27 105.778C1061.99 106.366 1061.59 106.819 1061.05 107.136C1060.52 107.444 1059.9 107.598 1059.19 107.598ZM1061.28 103.454C1061.29 103.053 1061.2 102.698 1061.01 102.39C1060.83 102.082 1060.58 101.839 1060.26 101.662C1059.93 101.485 1059.55 101.396 1059.12 101.396C1058.75 101.396 1058.41 101.485 1058.1 101.662C1057.79 101.839 1057.54 102.087 1057.33 102.404C1057.13 102.712 1057.02 103.062 1056.98 103.454H1061.28ZM1069.56 101.914L1069.45 101.928V97.42H1070.5V107.5H1069.53L1069.46 106.198C1069.25 106.59 1068.92 106.921 1068.49 107.192C1068.07 107.463 1067.55 107.598 1066.93 107.598C1066.28 107.598 1065.72 107.453 1065.23 107.164C1064.76 106.865 1064.38 106.445 1064.11 105.904C1063.85 105.363 1063.72 104.728 1063.72 104C1063.72 103.272 1063.85 102.642 1064.11 102.11C1064.38 101.569 1064.76 101.149 1065.23 100.85C1065.72 100.551 1066.28 100.402 1066.93 100.402C1067.59 100.402 1068.14 100.547 1068.58 100.836C1069.02 101.125 1069.34 101.485 1069.56 101.914ZM1064.85 104C1064.85 104.803 1065.06 105.442 1065.47 105.918C1065.88 106.385 1066.44 106.618 1067.15 106.618C1067.59 106.618 1067.98 106.515 1068.33 106.31C1068.67 106.105 1068.94 105.806 1069.14 105.414C1069.34 105.022 1069.45 104.551 1069.45 104C1069.45 103.449 1069.34 102.983 1069.14 102.6C1068.94 102.208 1068.67 101.909 1068.33 101.704C1067.98 101.489 1067.59 101.382 1067.15 101.382C1066.45 101.382 1065.89 101.62 1065.47 102.096C1065.06 102.563 1064.85 103.197 1064.85 104Z" fill="white"/>
<g filter="url(#filter1_d_5129_3405)">
<circle cx="1086" cy="102.5" r="4" fill="#42FF00"/>
</g>
</g>
<g clip-path="url(#clip4_5129_3405)">
<rect x="1103" y="94" width="57" height="17" rx="2" fill="#B4B4B4"/>
<path d="M1108.86 105.008C1108.92 105.26 1109.03 105.512 1109.21 105.764C1109.4 106.007 1109.65 106.212 1109.97 106.38C1110.29 106.539 1110.71 106.618 1111.21 106.618C1111.93 106.618 1112.46 106.45 1112.81 106.114C1113.15 105.778 1113.33 105.381 1113.33 104.924C1113.33 104.56 1113.23 104.261 1113.03 104.028C1112.84 103.795 1112.57 103.603 1112.23 103.454C1111.9 103.295 1111.52 103.155 1111.1 103.034C1110.73 102.931 1110.35 102.819 1109.98 102.698C1109.62 102.567 1109.28 102.409 1108.99 102.222C1108.69 102.026 1108.45 101.774 1108.27 101.466C1108.09 101.158 1108.01 100.775 1108.01 100.318C1108.01 99.7673 1108.14 99.2913 1108.4 98.89C1108.66 98.4793 1109.03 98.162 1109.5 97.938C1109.98 97.714 1110.54 97.602 1111.17 97.602C1111.72 97.602 1112.2 97.6813 1112.61 97.84C1113.02 97.9987 1113.36 98.2227 1113.63 98.512C1113.91 98.792 1114.12 99.1187 1114.25 99.492L1113.26 99.87C1113.19 99.6553 1113.06 99.45 1112.88 99.254C1112.69 99.0487 1112.45 98.8807 1112.15 98.75C1111.85 98.6193 1111.51 98.554 1111.13 98.554C1110.75 98.554 1110.41 98.6193 1110.11 98.75C1109.81 98.8807 1109.57 99.0673 1109.39 99.31C1109.21 99.5527 1109.13 99.8467 1109.13 100.192C1109.13 100.565 1109.23 100.864 1109.43 101.088C1109.65 101.303 1109.93 101.48 1110.27 101.62C1110.63 101.751 1111.02 101.877 1111.44 101.998C1111.82 102.119 1112.19 102.25 1112.54 102.39C1112.91 102.53 1113.23 102.703 1113.51 102.908C1113.8 103.113 1114.03 103.37 1114.19 103.678C1114.36 103.986 1114.45 104.364 1114.45 104.812C1114.45 105.307 1114.33 105.769 1114.1 106.198C1113.86 106.618 1113.51 106.959 1113.03 107.22C1112.57 107.472 1111.96 107.598 1111.23 107.598C1110.61 107.598 1110.07 107.505 1109.6 107.318C1109.14 107.122 1108.75 106.861 1108.45 106.534C1108.16 106.207 1107.95 105.834 1107.84 105.414L1108.86 105.008ZM1119.18 107.598C1118.53 107.598 1117.94 107.439 1117.43 107.122C1116.93 106.805 1116.53 106.371 1116.24 105.82C1115.95 105.269 1115.81 104.639 1115.81 103.93C1115.81 103.249 1115.95 102.642 1116.24 102.11C1116.53 101.578 1116.93 101.163 1117.43 100.864C1117.94 100.556 1118.51 100.402 1119.15 100.402C1119.79 100.402 1120.35 100.542 1120.85 100.822C1121.35 101.102 1121.74 101.489 1122.02 101.984C1122.3 102.479 1122.43 103.043 1122.42 103.678C1122.42 103.781 1122.41 103.888 1122.4 104C1122.39 104.112 1122.38 104.233 1122.37 104.364H1116.96C1116.97 104.803 1117.08 105.19 1117.28 105.526C1117.47 105.862 1117.73 106.128 1118.05 106.324C1118.37 106.511 1118.74 106.604 1119.15 106.604C1119.69 106.604 1120.15 106.501 1120.53 106.296C1120.91 106.091 1121.18 105.797 1121.35 105.414L1122.26 105.778C1121.98 106.366 1121.58 106.819 1121.04 107.136C1120.51 107.444 1119.89 107.598 1119.18 107.598ZM1121.27 103.454C1121.28 103.053 1121.19 102.698 1121 102.39C1120.82 102.082 1120.57 101.839 1120.25 101.662C1119.92 101.485 1119.54 101.396 1119.11 101.396C1118.74 101.396 1118.4 101.485 1118.09 101.662C1117.78 101.839 1117.52 102.087 1117.32 102.404C1117.12 102.712 1117.01 103.062 1116.97 103.454H1121.27ZM1124.14 100.5H1125.11L1125.17 101.494C1125.39 101.149 1125.68 100.883 1126.05 100.696C1126.41 100.5 1126.84 100.402 1127.32 100.402C1127.85 100.402 1128.32 100.519 1128.72 100.752C1129.12 100.976 1129.44 101.317 1129.66 101.774C1129.88 102.222 1130 102.787 1130 103.468V107.5H1128.95V103.594C1128.95 102.866 1128.79 102.315 1128.47 101.942C1128.16 101.559 1127.71 101.368 1127.13 101.368C1126.52 101.368 1126.04 101.569 1125.7 101.97C1125.36 102.371 1125.19 102.964 1125.19 103.748V107.5H1124.14V100.5ZM1132.48 100.5V98.54H1133.53V100.5H1135.39V101.48H1133.53V105.246C1133.53 105.675 1133.62 105.988 1133.8 106.184C1133.98 106.38 1134.22 106.497 1134.5 106.534C1134.79 106.571 1135.08 106.571 1135.39 106.534V107.444C1135.03 107.528 1134.67 107.551 1134.31 107.514C1133.97 107.477 1133.66 107.374 1133.38 107.206C1133.11 107.029 1132.89 106.781 1132.72 106.464C1132.56 106.147 1132.48 105.741 1132.48 105.246V101.48H1131.43V100.5H1132.48Z" fill="white"/>
<g filter="url(#filter2_d_5129_3405)">
<circle cx="1151" cy="102.5" r="4" fill="#9483FF"/>
</g>
</g>
<path d="M52 296.241C71.549 307.434 127.807 324.199 196.446 301.707C282.244 273.593 272.469 314.984 314.826 322.793C357.182 330.603 412.571 297.803 436.464 301.707C460.357 305.612 510.316 310.298 520.09 289.212C529.865 268.126 539.639 175.973 571.135 184.563C602.631 193.154 617.835 307.174 680.827 301.707C743.818 296.241 759.023 287.65 793.777 301.707C828.53 315.765 830.703 289.212 868.715 289.212C906.727 289.212 933.878 314.203 990.353 301.707C1035.53 291.711 1048.28 282.964 1049 279.84" stroke="#9483FF" stroke-opacity="0.3"/>
<path d="M51 280C54.2552 271.434 79.6456 254.925 155.166 257.417C249.566 260.532 295.139 247.293 314.67 241.063C334.201 234.833 365.667 241.842 372.178 249.629C378.688 257.417 401.474 204.462 425.346 201.347C449.217 198.232 469.833 219.258 498.045 188.109C526.256 156.959 528.426 113.35 568.574 117.244C608.721 121.137 611.976 155.402 631.507 188.109C651.038 220.816 691.185 231.718 734.588 225.488C777.99 219.258 811.627 249.629 843.094 249.629C874.561 249.629 920.133 265.204 936.409 257.417C952.685 249.629 1013.45 183.436 1046 178.764" stroke="#83BCFF" stroke-opacity="0.3"/>
</g>
<path d="M936.9 25.2C937.982 25.2 938.906 25.4007 939.672 25.802C940.446 26.194 941.039 26.7587 941.45 27.496C941.87 28.2333 942.08 29.1107 942.08 30.128C942.08 31.136 941.87 32.004 941.45 32.732C941.039 33.46 940.446 34.02 939.672 34.412C938.906 34.804 937.982 35 936.9 35H933.666V25.2H936.9ZM936.9 34.02C938.234 34.02 939.242 33.6793 939.924 32.998C940.605 32.3167 940.946 31.36 940.946 30.128C940.946 28.8867 940.605 27.9207 939.924 27.23C939.242 26.53 938.234 26.18 936.9 26.18H934.786V34.02H936.9ZM949.255 35L949.171 33.74C948.975 34.1693 948.686 34.5053 948.303 34.748C947.92 34.9813 947.435 35.098 946.847 35.098C946.343 35.098 945.914 35.0187 945.559 34.86C945.204 34.7013 944.929 34.4773 944.733 34.188C944.546 33.8893 944.453 33.5393 944.453 33.138C944.453 32.55 944.672 32.0693 945.111 31.696C945.55 31.3133 946.184 31.08 947.015 30.996L949.171 30.758V30.198C949.171 29.806 949.026 29.4933 948.737 29.26C948.448 29.0173 948.056 28.896 947.561 28.896C947.076 28.896 946.67 29.008 946.343 29.232C946.026 29.456 945.806 29.778 945.685 30.198L944.733 29.862C944.92 29.246 945.26 28.7653 945.755 28.42C946.259 28.0747 946.87 27.902 947.589 27.902C948.42 27.902 949.064 28.1167 949.521 28.546C949.988 28.966 950.221 29.54 950.221 30.268V35H949.255ZM949.171 31.654L947.001 31.906C946.534 31.962 946.18 32.0927 945.937 32.298C945.694 32.494 945.573 32.7553 945.573 33.082C945.573 33.4087 945.69 33.67 945.923 33.866C946.166 34.062 946.511 34.16 946.959 34.16C947.472 34.16 947.892 34.0573 948.219 33.852C948.546 33.6467 948.784 33.3713 948.933 33.026C949.092 32.6713 949.171 32.2887 949.171 31.878V31.654ZM953.6 28H954.636V35H953.6V28ZM954.132 26.6C953.917 26.6 953.74 26.53 953.6 26.39C953.46 26.25 953.39 26.0773 953.39 25.872C953.39 25.6573 953.46 25.48 953.6 25.34C953.74 25.2 953.917 25.13 954.132 25.13C954.328 25.13 954.496 25.2 954.636 25.34C954.785 25.48 954.86 25.6573 954.86 25.872C954.86 26.0773 954.785 26.25 954.636 26.39C954.496 26.53 954.328 26.6 954.132 26.6ZM958.119 24.92H959.169V35H958.119V24.92ZM967.17 28H968.262L964.258 37.8H963.25L964.44 34.902L961.612 28H962.76L965 33.656L967.17 28Z" fill="black"/>
<path d="M1002.59 36L999.629 25.8182H1002.35L1003.89 32.4901H1003.97L1005.72 25.8182H1007.94L1009.7 32.505H1009.78L1011.32 25.8182H1014.04L1011.08 36H1008.71L1006.87 29.8253H1006.79L1004.96 36H1002.59ZM1017.78 36.1442C1016.98 36.1442 1016.29 35.9867 1015.71 35.6719C1015.13 35.3537 1014.69 34.9013 1014.38 34.3146C1014.07 33.7247 1013.91 33.0237 1013.91 32.2116C1013.91 31.4228 1014.07 30.7334 1014.38 30.1435C1014.69 29.5502 1015.13 29.0895 1015.7 28.7614C1016.26 28.4299 1016.93 28.2642 1017.7 28.2642C1018.24 28.2642 1018.74 28.3487 1019.19 28.5178C1019.64 28.6868 1020.03 28.937 1020.36 29.2685C1020.69 29.5999 1020.94 30.0092 1021.13 30.4964C1021.31 30.9804 1021.4 31.5355 1021.4 32.1619V32.7685H1014.76V31.3565H1019.14C1019.13 31.098 1019.07 30.8677 1018.95 30.6655C1018.83 30.4633 1018.67 30.3059 1018.46 30.1932C1018.26 30.0772 1018.02 30.0192 1017.75 30.0192C1017.48 30.0192 1017.24 30.0805 1017.02 30.2031C1016.8 30.3224 1016.63 30.4865 1016.51 30.6953C1016.38 30.9008 1016.32 31.1345 1016.31 31.3963V32.8331C1016.31 33.1446 1016.37 33.4181 1016.49 33.6534C1016.62 33.8854 1016.79 34.0661 1017.02 34.1953C1017.24 34.3246 1017.51 34.3892 1017.82 34.3892C1018.04 34.3892 1018.23 34.3594 1018.41 34.2997C1018.58 34.2401 1018.73 34.1522 1018.86 34.0362C1018.99 33.9202 1019.08 33.7777 1019.14 33.6087L1021.38 33.6733C1021.28 34.1738 1021.08 34.6096 1020.76 34.9808C1020.45 35.3487 1020.04 35.6354 1019.54 35.8409C1019.03 36.0431 1018.44 36.1442 1017.78 36.1442ZM1026.21 36.1442C1025.41 36.1442 1024.72 35.9867 1024.14 35.6719C1023.57 35.3537 1023.12 34.9013 1022.81 34.3146C1022.5 33.7247 1022.35 33.0237 1022.35 32.2116C1022.35 31.4228 1022.5 30.7334 1022.82 30.1435C1023.13 29.5502 1023.57 29.0895 1024.13 28.7614C1024.7 28.4299 1025.37 28.2642 1026.14 28.2642C1026.68 28.2642 1027.18 28.3487 1027.63 28.5178C1028.08 28.6868 1028.47 28.937 1028.8 29.2685C1029.12 29.5999 1029.38 30.0092 1029.56 30.4964C1029.74 30.9804 1029.84 31.5355 1029.84 32.1619V32.7685H1023.2V31.3565H1027.57C1027.57 31.098 1027.51 30.8677 1027.39 30.6655C1027.27 30.4633 1027.11 30.3059 1026.9 30.1932C1026.69 30.0772 1026.45 30.0192 1026.19 30.0192C1025.91 30.0192 1025.67 30.0805 1025.46 30.2031C1025.24 30.3224 1025.07 30.4865 1024.94 30.6953C1024.82 30.9008 1024.75 31.1345 1024.74 31.3963V32.8331C1024.74 33.1446 1024.81 33.4181 1024.93 33.6534C1025.05 33.8854 1025.23 34.0661 1025.45 34.1953C1025.68 34.3246 1025.94 34.3892 1026.26 34.3892C1026.47 34.3892 1026.67 34.3594 1026.84 34.2997C1027.02 34.2401 1027.17 34.1522 1027.3 34.0362C1027.42 33.9202 1027.52 33.7777 1027.58 33.6087L1029.81 33.6733C1029.72 34.1738 1029.51 34.6096 1029.2 34.9808C1028.89 35.3487 1028.48 35.6354 1027.97 35.8409C1027.46 36.0431 1026.88 36.1442 1026.21 36.1442ZM1033.27 33.9964L1033.28 31.098H1033.62L1035.77 28.3636H1038.52L1035.33 32.2812H1034.69L1033.27 33.9964ZM1031.08 36V25.8182H1033.51V36H1031.08ZM1035.82 36L1033.82 32.8281L1035.42 31.103L1038.63 36H1035.82Z" fill="white"/>
<path d="M1002.59 36L999.629 25.8182H1002.35L1003.89 32.4901H1003.97L1005.72 25.8182H1007.94L1009.7 32.505H1009.78L1011.32 25.8182H1014.04L1011.08 36H1008.71L1006.87 29.8253H1006.79L1004.96 36H1002.59ZM1017.78 36.1442C1016.98 36.1442 1016.29 35.9867 1015.71 35.6719C1015.13 35.3537 1014.69 34.9013 1014.38 34.3146C1014.07 33.7247 1013.91 33.0237 1013.91 32.2116C1013.91 31.4228 1014.07 30.7334 1014.38 30.1435C1014.69 29.5502 1015.13 29.0895 1015.7 28.7614C1016.26 28.4299 1016.93 28.2642 1017.7 28.2642C1018.24 28.2642 1018.74 28.3487 1019.19 28.5178C1019.64 28.6868 1020.03 28.937 1020.36 29.2685C1020.69 29.5999 1020.94 30.0092 1021.13 30.4964C1021.31 30.9804 1021.4 31.5355 1021.4 32.1619V32.7685H1014.76V31.3565H1019.14C1019.13 31.098 1019.07 30.8677 1018.95 30.6655C1018.83 30.4633 1018.67 30.3059 1018.46 30.1932C1018.26 30.0772 1018.02 30.0192 1017.75 30.0192C1017.48 30.0192 1017.24 30.0805 1017.02 30.2031C1016.8 30.3224 1016.63 30.4865 1016.51 30.6953C1016.38 30.9008 1016.32 31.1345 1016.31 31.3963V32.8331C1016.31 33.1446 1016.37 33.4181 1016.49 33.6534C1016.62 33.8854 1016.79 34.0661 1017.02 34.1953C1017.24 34.3246 1017.51 34.3892 1017.82 34.3892C1018.04 34.3892 1018.23 34.3594 1018.41 34.2997C1018.58 34.2401 1018.73 34.1522 1018.86 34.0362C1018.99 33.9202 1019.08 33.7777 1019.14 33.6087L1021.38 33.6733C1021.28 34.1738 1021.08 34.6096 1020.76 34.9808C1020.45 35.3487 1020.04 35.6354 1019.54 35.8409C1019.03 36.0431 1018.44 36.1442 1017.78 36.1442ZM1026.21 36.1442C1025.41 36.1442 1024.72 35.9867 1024.14 35.6719C1023.57 35.3537 1023.12 34.9013 1022.81 34.3146C1022.5 33.7247 1022.35 33.0237 1022.35 32.2116C1022.35 31.4228 1022.5 30.7334 1022.82 30.1435C1023.13 29.5502 1023.57 29.0895 1024.13 28.7614C1024.7 28.4299 1025.37 28.2642 1026.14 28.2642C1026.68 28.2642 1027.18 28.3487 1027.63 28.5178C1028.08 28.6868 1028.47 28.937 1028.8 29.2685C1029.12 29.5999 1029.38 30.0092 1029.56 30.4964C1029.74 30.9804 1029.84 31.5355 1029.84 32.1619V32.7685H1023.2V31.3565H1027.57C1027.57 31.098 1027.51 30.8677 1027.39 30.6655C1027.27 30.4633 1027.11 30.3059 1026.9 30.1932C1026.69 30.0772 1026.45 30.0192 1026.19 30.0192C1025.91 30.0192 1025.67 30.0805 1025.46 30.2031C1025.24 30.3224 1025.07 30.4865 1024.94 30.6953C1024.82 30.9008 1024.75 31.1345 1024.74 31.3963V32.8331C1024.74 33.1446 1024.81 33.4181 1024.93 33.6534C1025.05 33.8854 1025.23 34.0661 1025.45 34.1953C1025.68 34.3246 1025.94 34.3892 1026.26 34.3892C1026.47 34.3892 1026.67 34.3594 1026.84 34.2997C1027.02 34.2401 1027.17 34.1522 1027.3 34.0362C1027.42 33.9202 1027.52 33.7777 1027.58 33.6087L1029.81 33.6733C1029.72 34.1738 1029.51 34.6096 1029.2 34.9808C1028.89 35.3487 1028.48 35.6354 1027.97 35.8409C1027.46 36.0431 1026.88 36.1442 1026.21 36.1442ZM1033.27 33.9964L1033.28 31.098H1033.62L1035.77 28.3636H1038.52L1035.33 32.2812H1034.69L1033.27 33.9964ZM1031.08 36V25.8182H1033.51V36H1031.08ZM1035.82 36L1033.82 32.8281L1035.42 31.103L1038.63 36H1035.82Z" fill="url(#paint0_linear_5129_3405)"/>
<path d="M1072.25 35H1071.13V25.2H1072.37L1076.01 33.46L1079.63 25.2H1080.85V35H1079.73V27.412L1076.4 35H1075.6L1072.25 27.412V35ZM1086.15 35.098C1085.48 35.098 1084.89 34.9533 1084.37 34.664C1083.85 34.3747 1083.43 33.964 1083.14 33.432C1082.84 32.8907 1082.69 32.2513 1082.69 31.514C1082.69 30.7673 1082.84 30.1233 1083.14 29.582C1083.44 29.0407 1083.86 28.6253 1084.38 28.336C1084.91 28.0467 1085.51 27.902 1086.17 27.902C1086.84 27.902 1087.43 28.0467 1087.95 28.336C1088.48 28.6253 1088.9 29.0407 1089.2 29.582C1089.51 30.114 1089.66 30.7487 1089.66 31.486C1089.66 32.2327 1089.51 32.8767 1089.2 33.418C1088.89 33.9593 1088.47 34.3747 1087.94 34.664C1087.41 34.9533 1086.81 35.098 1086.15 35.098ZM1086.13 34.104C1086.54 34.104 1086.93 34.0153 1087.29 33.838C1087.66 33.6513 1087.95 33.3667 1088.18 32.984C1088.41 32.592 1088.53 32.0973 1088.53 31.5C1088.53 30.8933 1088.41 30.3987 1088.19 30.016C1087.97 29.6333 1087.67 29.3533 1087.31 29.176C1086.95 28.9893 1086.57 28.896 1086.16 28.896C1085.75 28.896 1085.37 28.9893 1085.01 29.176C1084.66 29.3533 1084.37 29.638 1084.14 30.03C1083.93 30.4127 1083.82 30.9027 1083.82 31.5C1083.82 32.1067 1083.93 32.6013 1084.14 32.984C1084.36 33.3667 1084.64 33.6513 1084.98 33.838C1085.34 34.0153 1085.72 34.104 1086.13 34.104ZM1091.38 28H1092.35L1092.4 28.994C1092.63 28.6487 1092.92 28.3827 1093.28 28.196C1093.65 28 1094.07 27.902 1094.56 27.902C1095.09 27.902 1095.56 28.0187 1095.96 28.252C1096.36 28.476 1096.67 28.8167 1096.9 29.274C1097.12 29.722 1097.23 30.2867 1097.23 30.968V35H1096.18V31.094C1096.18 30.366 1096.02 29.8153 1095.71 29.442C1095.4 29.0593 1094.95 28.868 1094.36 28.868C1093.76 28.868 1093.28 29.0687 1092.93 29.47C1092.6 29.8713 1092.43 30.464 1092.43 31.248V35H1091.38V28ZM1099.72 28V26.04H1100.77V28H1102.63V28.98H1100.77V32.746C1100.77 33.1753 1100.86 33.488 1101.03 33.684C1101.22 33.88 1101.45 33.9967 1101.73 34.034C1102.02 34.0713 1102.32 34.0713 1102.63 34.034V34.944C1102.26 35.028 1101.91 35.0513 1101.55 35.014C1101.21 34.9767 1100.89 34.874 1100.61 34.706C1100.34 34.5287 1100.12 34.2813 1099.95 33.964C1099.8 33.6467 1099.72 33.2407 1099.72 32.746V28.98H1098.67V28H1099.72ZM1104.19 24.92H1105.24V28.952C1105.46 28.616 1105.77 28.3593 1106.15 28.182C1106.53 27.9953 1106.96 27.902 1107.44 27.902C1107.95 27.902 1108.41 28.0187 1108.81 28.252C1109.21 28.4853 1109.52 28.8307 1109.75 29.288C1109.98 29.7453 1110.1 30.3147 1110.1 30.996V35H1108.98V31.122C1108.98 30.394 1108.82 29.8387 1108.52 29.456C1108.21 29.064 1107.76 28.868 1107.17 28.868C1106.57 28.868 1106.09 29.0733 1105.74 29.484C1105.41 29.8947 1105.24 30.492 1105.24 31.276V35H1104.19V24.92Z" fill="black"/>
<path d="M1151.21 25.2H1152.45L1148.87 31.234V35H1147.75V31.248L1144.17 25.2H1145.41L1148.31 30.17L1151.21 25.2ZM1155.9 35.098C1155.25 35.098 1154.66 34.9393 1154.15 34.622C1153.65 34.3047 1153.25 33.8707 1152.96 33.32C1152.67 32.7693 1152.53 32.1393 1152.53 31.43C1152.53 30.7487 1152.67 30.142 1152.96 29.61C1153.25 29.078 1153.65 28.6627 1154.15 28.364C1154.65 28.056 1155.23 27.902 1155.87 27.902C1156.51 27.902 1157.07 28.042 1157.57 28.322C1158.07 28.602 1158.46 28.9893 1158.74 29.484C1159.02 29.9787 1159.15 30.5433 1159.13 31.178C1159.13 31.2807 1159.13 31.388 1159.12 31.5C1159.11 31.612 1159.1 31.7333 1159.09 31.864H1153.67C1153.69 32.3027 1153.8 32.69 1154 33.026C1154.19 33.362 1154.45 33.628 1154.77 33.824C1155.09 34.0107 1155.46 34.104 1155.87 34.104C1156.41 34.104 1156.87 34.0013 1157.24 33.796C1157.63 33.5907 1157.9 33.2967 1158.07 32.914L1158.98 33.278C1158.7 33.866 1158.29 34.3187 1157.76 34.636C1157.23 34.944 1156.61 35.098 1155.9 35.098ZM1157.99 30.954C1158 30.5527 1157.91 30.198 1157.72 29.89C1157.54 29.582 1157.29 29.3393 1156.96 29.162C1156.64 28.9847 1156.26 28.896 1155.83 28.896C1155.46 28.896 1155.12 28.9847 1154.81 29.162C1154.5 29.3393 1154.24 29.5867 1154.04 29.904C1153.84 30.212 1153.73 30.562 1153.69 30.954H1157.99ZM1165.24 35L1165.16 33.74C1164.96 34.1693 1164.67 34.5053 1164.29 34.748C1163.91 34.9813 1163.42 35.098 1162.84 35.098C1162.33 35.098 1161.9 35.0187 1161.55 34.86C1161.19 34.7013 1160.92 34.4773 1160.72 34.188C1160.54 33.8893 1160.44 33.5393 1160.44 33.138C1160.44 32.55 1160.66 32.0693 1161.1 31.696C1161.54 31.3133 1162.17 31.08 1163 30.996L1165.16 30.758V30.198C1165.16 29.806 1165.02 29.4933 1164.73 29.26C1164.44 29.0173 1164.04 28.896 1163.55 28.896C1163.06 28.896 1162.66 29.008 1162.33 29.232C1162.01 29.456 1161.8 29.778 1161.67 30.198L1160.72 29.862C1160.91 29.246 1161.25 28.7653 1161.74 28.42C1162.25 28.0747 1162.86 27.902 1163.58 27.902C1164.41 27.902 1165.05 28.1167 1165.51 28.546C1165.98 28.966 1166.21 29.54 1166.21 30.268V35H1165.24ZM1165.16 31.654L1162.99 31.906C1162.52 31.962 1162.17 32.0927 1161.93 32.298C1161.68 32.494 1161.56 32.7553 1161.56 33.082C1161.56 33.4087 1161.68 33.67 1161.91 33.866C1162.15 34.062 1162.5 34.16 1162.95 34.16C1163.46 34.16 1163.88 34.0573 1164.21 33.852C1164.53 33.6467 1164.77 33.3713 1164.92 33.026C1165.08 32.6713 1165.16 32.2887 1165.16 31.878V31.654ZM1168.26 28H1169.22L1169.28 29.022C1169.47 28.77 1169.69 28.5553 1169.95 28.378C1170.22 28.2007 1170.52 28.0793 1170.83 28.014C1171.16 27.9393 1171.51 27.9347 1171.87 28V29.05C1171.48 28.9753 1171.12 28.9753 1170.81 29.05C1170.5 29.1247 1170.23 29.2647 1170.01 29.47C1169.78 29.6753 1169.61 29.9367 1169.49 30.254C1169.37 30.562 1169.31 30.9213 1169.31 31.332V35H1168.26V28Z" fill="black"/>
<path d="M1143.45 162.012H1136.72V160.932L1143.16 152.4H1144.89V160.752H1146.72V162.012H1144.89V165H1143.45V162.012ZM1143.48 160.752V153.93L1138.37 160.752H1143.48ZM1148.96 158.7C1148.96 157.776 1149.03 156.924 1149.16 156.144C1149.29 155.352 1149.52 154.668 1149.84 154.092C1150.17 153.516 1150.62 153.072 1151.19 152.76C1151.78 152.436 1152.52 152.274 1153.41 152.274C1154.3 152.274 1155.03 152.436 1155.6 152.76C1156.18 153.072 1156.63 153.516 1156.95 154.092C1157.28 154.668 1157.51 155.352 1157.64 156.144C1157.77 156.924 1157.84 157.776 1157.84 158.7C1157.84 159.636 1157.77 160.5 1157.64 161.292C1157.51 162.072 1157.28 162.75 1156.95 163.326C1156.63 163.902 1156.18 164.346 1155.6 164.658C1155.03 164.97 1154.3 165.126 1153.41 165.126C1152.52 165.126 1151.78 164.97 1151.19 164.658C1150.62 164.346 1150.17 163.902 1149.84 163.326C1149.52 162.75 1149.29 162.072 1149.16 161.292C1149.03 160.5 1148.96 159.636 1148.96 158.7ZM1156.38 158.7C1156.38 157.992 1156.34 157.332 1156.27 156.72C1156.21 156.096 1156.08 155.55 1155.89 155.082C1155.7 154.602 1155.41 154.23 1155.01 153.966C1154.61 153.69 1154.08 153.552 1153.41 153.552C1152.75 153.552 1152.21 153.69 1151.81 153.966C1151.41 154.23 1151.11 154.602 1150.91 155.082C1150.71 155.55 1150.58 156.096 1150.51 156.72C1150.45 157.332 1150.42 157.992 1150.42 158.7C1150.42 159.432 1150.45 160.11 1150.51 160.734C1150.58 161.358 1150.71 161.904 1150.91 162.372C1151.11 162.84 1151.41 163.206 1151.81 163.47C1152.21 163.722 1152.75 163.848 1153.41 163.848C1154.08 163.848 1154.61 163.722 1155.01 163.47C1155.41 163.206 1155.7 162.84 1155.89 162.372C1156.08 161.904 1156.21 161.358 1156.27 160.734C1156.34 160.11 1156.38 159.432 1156.38 158.7Z" fill="#8A8B8C"/>
<path d="M1132.96 280.92L1136.79 277.374C1137.54 276.69 1138.13 276.102 1138.56 275.61C1138.99 275.118 1139.3 274.662 1139.48 274.242C1139.67 273.822 1139.76 273.384 1139.76 272.928C1139.76 272.22 1139.55 271.65 1139.13 271.218C1138.71 270.774 1138.07 270.552 1137.21 270.552C1136.62 270.552 1136.12 270.678 1135.71 270.93C1135.31 271.182 1134.99 271.53 1134.78 271.974C1134.56 272.418 1134.45 272.94 1134.44 273.54H1133.05C1133.07 272.604 1133.27 271.824 1133.63 271.2C1134 270.564 1134.5 270.084 1135.12 269.76C1135.74 269.436 1136.44 269.274 1137.21 269.274C1138.05 269.274 1138.77 269.43 1139.37 269.742C1139.97 270.042 1140.42 270.468 1140.74 271.02C1141.06 271.56 1141.22 272.196 1141.22 272.928C1141.22 273.468 1141.12 273.99 1140.92 274.494C1140.71 274.998 1140.36 275.544 1139.87 276.132C1139.39 276.708 1138.73 277.386 1137.89 278.166L1135.12 280.74H1141.58V282H1132.96V280.92ZM1143.97 275.7C1143.97 274.776 1144.04 273.924 1144.17 273.144C1144.3 272.352 1144.53 271.668 1144.85 271.092C1145.18 270.516 1145.63 270.072 1146.2 269.76C1146.79 269.436 1147.53 269.274 1148.42 269.274C1149.3 269.274 1150.04 269.436 1150.61 269.76C1151.19 270.072 1151.64 270.516 1151.96 271.092C1152.29 271.668 1152.51 272.352 1152.65 273.144C1152.78 273.924 1152.84 274.776 1152.84 275.7C1152.84 276.636 1152.78 277.5 1152.65 278.292C1152.51 279.072 1152.29 279.75 1151.96 280.326C1151.64 280.902 1151.19 281.346 1150.61 281.658C1150.04 281.97 1149.3 282.126 1148.42 282.126C1147.53 282.126 1146.79 281.97 1146.2 281.658C1145.63 281.346 1145.18 280.902 1144.85 280.326C1144.53 279.75 1144.3 279.072 1144.17 278.292C1144.04 277.5 1143.97 276.636 1143.97 275.7ZM1151.39 275.7C1151.39 274.992 1151.35 274.332 1151.28 273.72C1151.22 273.096 1151.09 272.55 1150.9 272.082C1150.71 271.602 1150.41 271.23 1150.02 270.966C1149.62 270.69 1149.09 270.552 1148.42 270.552C1147.76 270.552 1147.22 270.69 1146.81 270.966C1146.42 271.23 1146.12 271.602 1145.91 272.082C1145.72 272.55 1145.59 273.096 1145.52 273.72C1145.46 274.332 1145.43 274.992 1145.43 275.7C1145.43 276.432 1145.46 277.11 1145.52 277.734C1145.59 278.358 1145.72 278.904 1145.91 279.372C1146.12 279.84 1146.42 280.206 1146.81 280.47C1147.22 280.722 1147.76 280.848 1148.42 280.848C1149.09 280.848 1149.62 280.722 1150.02 280.47C1150.41 280.206 1150.71 279.84 1150.9 279.372C1151.09 278.904 1151.22 278.358 1151.28 277.734C1151.35 277.11 1151.39 276.432 1151.39 275.7Z" fill="#8A8B8C"/>
<g filter="url(#filter3_d_5129_3405)">
<path d="M49.7505 110V95.4545H55.4892C56.5877 95.4545 57.5252 95.651 58.3017 96.044C59.0829 96.4323 59.6771 96.9839 60.0843 97.6989C60.4963 98.4091 60.7022 99.2448 60.7022 100.206C60.7022 101.172 60.4939 102.003 60.0772 102.699C59.6606 103.39 59.0569 103.92 58.2662 104.29C57.4802 104.659 56.5285 104.844 55.411 104.844H51.5687V102.372H54.9139C55.501 102.372 55.9887 102.292 56.377 102.131C56.7652 101.97 57.054 101.728 57.2434 101.406C57.4376 101.084 57.5346 100.684 57.5346 100.206C57.5346 99.723 57.4376 99.3158 57.2434 98.9844C57.054 98.6529 56.7628 98.402 56.3699 98.2315C55.9816 98.0563 55.4915 97.9688 54.8997 97.9688H52.8258V110H49.7505ZM57.6056 103.381L61.2207 110H57.8258L54.2889 103.381H57.6056ZM67.6145 110.213C66.4924 110.213 65.5265 109.986 64.7168 109.531C63.9119 109.072 63.2916 108.423 62.856 107.585C62.4204 106.742 62.2026 105.746 62.2026 104.595C62.2026 103.473 62.4204 102.488 62.856 101.641C63.2916 100.793 63.9048 100.133 64.6955 99.6591C65.4909 99.1856 66.4237 98.9489 67.4938 98.9489C68.2135 98.9489 68.8835 99.0649 69.5037 99.2969C70.1287 99.5241 70.6732 99.8674 71.1373 100.327C71.606 100.786 71.9706 101.364 72.231 102.06C72.4914 102.751 72.6216 103.561 72.6216 104.489V105.32H63.41V103.445H69.7736C69.7736 103.009 69.6789 102.623 69.4895 102.287C69.3001 101.951 69.0373 101.688 68.7012 101.499C68.3697 101.304 67.9838 101.207 67.5435 101.207C67.0842 101.207 66.677 101.314 66.3219 101.527C65.9715 101.735 65.6969 102.017 65.498 102.372C65.2992 102.723 65.1974 103.113 65.1926 103.544V105.327C65.1926 105.866 65.2921 106.333 65.4909 106.726C65.6945 107.119 65.981 107.422 66.3503 107.635C66.7196 107.848 67.1576 107.955 67.6642 107.955C68.0004 107.955 68.3082 107.907 68.5875 107.812C68.8669 107.718 69.106 107.576 69.3049 107.386C69.5037 107.197 69.6552 106.965 69.7594 106.69L72.5577 106.875C72.4157 107.547 72.1245 108.134 71.6841 108.636C71.2485 109.134 70.6851 109.522 69.9938 109.801C69.3072 110.076 68.5141 110.213 67.6145 110.213ZM81.8049 114.091V108.253H81.7125C81.5705 108.556 81.3693 108.857 81.1088 109.155C80.8532 109.448 80.5194 109.692 80.1074 109.886C79.7002 110.08 79.2031 110.178 78.6159 110.178C77.7873 110.178 77.0369 109.964 76.3645 109.538C75.6969 109.107 75.1666 108.475 74.7736 107.642C74.3854 106.804 74.1912 105.777 74.1912 104.56C74.1912 103.31 74.3925 102.27 74.7949 101.442C75.1974 100.608 75.7324 99.9858 76.4 99.5739C77.0724 99.1572 77.8087 98.9489 78.6088 98.9489C79.2196 98.9489 79.7286 99.053 80.1358 99.2614C80.5478 99.465 80.8792 99.7206 81.1301 100.028C81.3858 100.331 81.58 100.63 81.7125 100.923H81.8404V99.0909H84.8233V114.091H81.8049ZM79.5748 107.77C80.0624 107.77 80.4744 107.637 80.8105 107.372C81.1515 107.102 81.4119 106.726 81.5918 106.243C81.7765 105.76 81.8688 105.194 81.8688 104.545C81.8688 103.897 81.7788 103.333 81.5989 102.855C81.419 102.377 81.1586 102.008 80.8176 101.747C80.4767 101.487 80.0624 101.357 79.5748 101.357C79.0776 101.357 78.6586 101.491 78.3176 101.761C77.9767 102.031 77.7187 102.405 77.5435 102.884C77.3683 103.362 77.2807 103.916 77.2807 104.545C77.2807 105.18 77.3683 105.741 77.5435 106.229C77.7234 106.712 77.9815 107.09 78.3176 107.365C78.6586 107.635 79.0776 107.77 79.5748 107.77ZM94.248 105.355V99.0909H97.2736V110H94.3688V108.018H94.2551C94.0089 108.658 93.5994 109.171 93.0265 109.56C92.4583 109.948 91.7646 110.142 90.9455 110.142C90.2163 110.142 89.5748 109.976 89.0208 109.645C88.4668 109.313 88.0336 108.842 87.7211 108.232C87.4133 107.621 87.257 106.889 87.2523 106.037V99.0909H90.2779V105.497C90.2826 106.141 90.4554 106.65 90.7963 107.024C91.1373 107.398 91.5942 107.585 92.1671 107.585C92.5317 107.585 92.8726 107.502 93.1898 107.337C93.507 107.166 93.7627 106.915 93.9569 106.584C94.1557 106.252 94.2528 105.843 94.248 105.355ZM104.665 110.213C103.543 110.213 102.577 109.986 101.768 109.531C100.963 109.072 100.342 108.423 99.9068 107.585C99.4712 106.742 99.2534 105.746 99.2534 104.595C99.2534 103.473 99.4712 102.488 99.9068 101.641C100.342 100.793 100.956 100.133 101.746 99.6591C102.542 99.1856 103.474 98.9489 104.545 98.9489C105.264 98.9489 105.934 99.0649 106.555 99.2969C107.18 99.5241 107.724 99.8674 108.188 100.327C108.657 100.786 109.021 101.364 109.282 102.06C109.542 102.751 109.672 103.561 109.672 104.489V105.32H100.461V103.445H106.824C106.824 103.009 106.73 102.623 106.54 102.287C106.351 101.951 106.088 101.688 105.752 101.499C105.421 101.304 105.035 101.207 104.594 101.207C104.135 101.207 103.728 101.314 103.373 101.527C103.022 101.735 102.748 102.017 102.549 102.372C102.35 102.723 102.248 103.113 102.243 103.544V105.327C102.243 105.866 102.343 106.333 102.542 106.726C102.745 107.119 103.032 107.422 103.401 107.635C103.77 107.848 104.208 107.955 104.715 107.955C105.051 107.955 105.359 107.907 105.638 107.812C105.918 107.718 106.157 107.576 106.356 107.386C106.555 107.197 106.706 106.965 106.81 106.69L109.608 106.875C109.466 107.547 109.175 108.134 108.735 108.636C108.299 109.134 107.736 109.522 107.045 109.801C106.358 110.076 105.565 110.213 104.665 110.213ZM120.724 102.202L117.954 102.372C117.906 102.135 117.805 101.922 117.648 101.733C117.492 101.539 117.286 101.385 117.03 101.271C116.779 101.153 116.479 101.094 116.128 101.094C115.66 101.094 115.264 101.193 114.942 101.392C114.62 101.586 114.459 101.847 114.459 102.173C114.459 102.434 114.564 102.654 114.772 102.834C114.98 103.014 115.338 103.158 115.844 103.267L117.819 103.665C118.879 103.883 119.67 104.233 120.191 104.716C120.712 105.199 120.972 105.833 120.972 106.619C120.972 107.334 120.761 107.962 120.34 108.501C119.923 109.041 119.35 109.463 118.621 109.766C117.897 110.064 117.061 110.213 116.114 110.213C114.67 110.213 113.519 109.912 112.662 109.311C111.81 108.705 111.311 107.881 111.164 106.839L114.14 106.683C114.23 107.124 114.448 107.46 114.793 107.692C115.139 107.919 115.581 108.033 116.121 108.033C116.652 108.033 117.078 107.931 117.4 107.727C117.726 107.519 117.892 107.251 117.897 106.925C117.892 106.65 117.776 106.425 117.549 106.25C117.322 106.07 116.971 105.933 116.498 105.838L114.608 105.462C113.543 105.249 112.75 104.879 112.229 104.354C111.713 103.828 111.455 103.158 111.455 102.344C111.455 101.643 111.644 101.039 112.023 100.533C112.407 100.026 112.944 99.6354 113.635 99.3608C114.331 99.0862 115.146 98.9489 116.079 98.9489C117.456 98.9489 118.541 99.2401 119.331 99.8224C120.127 100.405 120.591 101.198 120.724 102.202ZM128.68 99.0909V101.364H122.11V99.0909H128.68ZM123.602 96.4773H126.627V106.648C126.627 106.927 126.67 107.145 126.755 107.301C126.84 107.453 126.959 107.559 127.11 107.621C127.267 107.682 127.446 107.713 127.65 107.713C127.792 107.713 127.934 107.701 128.076 107.678C128.218 107.649 128.327 107.628 128.403 107.614L128.879 109.865C128.727 109.912 128.514 109.967 128.24 110.028C127.965 110.095 127.631 110.135 127.238 110.149C126.509 110.178 125.87 110.08 125.32 109.858C124.776 109.635 124.352 109.29 124.049 108.821C123.746 108.352 123.597 107.76 123.602 107.045V96.4773ZM139.591 102.202L136.821 102.372C136.773 102.135 136.672 101.922 136.515 101.733C136.359 101.539 136.153 101.385 135.898 101.271C135.647 101.153 135.346 101.094 134.996 101.094C134.527 101.094 134.131 101.193 133.809 101.392C133.488 101.586 133.327 101.847 133.327 102.173C133.327 102.434 133.431 102.654 133.639 102.834C133.847 103.014 134.205 103.158 134.711 103.267L136.686 103.665C137.747 103.883 138.537 104.233 139.058 104.716C139.579 105.199 139.839 105.833 139.839 106.619C139.839 107.334 139.629 107.962 139.207 108.501C138.791 109.041 138.218 109.463 137.488 109.766C136.764 110.064 135.928 110.213 134.981 110.213C133.537 110.213 132.387 109.912 131.53 109.311C130.677 108.705 130.178 107.881 130.031 106.839L133.007 106.683C133.097 107.124 133.315 107.46 133.66 107.692C134.006 107.919 134.449 108.033 134.988 108.033C135.519 108.033 135.945 107.931 136.267 107.727C136.594 107.519 136.759 107.251 136.764 106.925C136.759 106.65 136.643 106.425 136.416 106.25C136.189 106.07 135.838 105.933 135.365 105.838L133.476 105.462C132.41 105.249 131.617 104.879 131.096 104.354C130.58 103.828 130.322 103.158 130.322 102.344C130.322 101.643 130.512 101.039 130.89 100.533C131.274 100.026 131.811 99.6354 132.503 99.3608C133.199 99.0862 134.013 98.9489 134.946 98.9489C136.324 98.9489 137.408 99.2401 138.199 99.8224C138.994 100.405 139.458 101.198 139.591 102.202ZM154.321 99.6378C154.264 99.0649 154.02 98.6198 153.589 98.3026C153.158 97.9853 152.574 97.8267 151.835 97.8267C151.333 97.8267 150.909 97.8977 150.564 98.0398C150.218 98.1771 149.953 98.3688 149.768 98.6151C149.588 98.8613 149.498 99.1406 149.498 99.4531C149.489 99.7135 149.543 99.9408 149.662 100.135C149.785 100.329 149.953 100.497 150.166 100.639C150.379 100.777 150.625 100.897 150.905 101.001C151.184 101.101 151.482 101.186 151.8 101.257L153.106 101.57C153.741 101.712 154.323 101.901 154.854 102.138C155.384 102.375 155.843 102.666 156.231 103.011C156.62 103.357 156.92 103.764 157.133 104.233C157.351 104.702 157.462 105.239 157.467 105.845C157.462 106.735 157.235 107.507 156.785 108.161C156.34 108.809 155.696 109.313 154.854 109.673C154.015 110.028 153.005 110.206 151.821 110.206C150.647 110.206 149.624 110.026 148.753 109.666C147.886 109.306 147.209 108.774 146.721 108.068C146.238 107.358 145.985 106.48 145.961 105.433H148.937C148.97 105.921 149.11 106.328 149.356 106.655C149.607 106.977 149.941 107.221 150.358 107.386C150.779 107.547 151.255 107.628 151.785 107.628C152.306 107.628 152.758 107.552 153.142 107.401C153.53 107.249 153.831 107.038 154.044 106.768C154.257 106.499 154.363 106.188 154.363 105.838C154.363 105.511 154.266 105.237 154.072 105.014C153.883 104.792 153.604 104.602 153.234 104.446C152.87 104.29 152.422 104.148 151.892 104.02L150.308 103.622C149.082 103.324 148.113 102.857 147.403 102.223C146.693 101.589 146.34 100.734 146.345 99.6591C146.34 98.7784 146.575 98.009 147.048 97.3509C147.526 96.6927 148.182 96.179 149.015 95.8097C149.849 95.4403 150.796 95.2557 151.856 95.2557C152.936 95.2557 153.878 95.4403 154.683 95.8097C155.493 96.179 156.122 96.6927 156.572 97.3509C157.022 98.009 157.254 98.7713 157.268 99.6378H154.321ZM165.281 99.0909V101.364H158.712V99.0909H165.281ZM160.203 96.4773H163.229V106.648C163.229 106.927 163.271 107.145 163.357 107.301C163.442 107.453 163.56 107.559 163.712 107.621C163.868 107.682 164.048 107.713 164.252 107.713C164.394 107.713 164.536 107.701 164.678 107.678C164.82 107.649 164.929 107.628 165.004 107.614L165.48 109.865C165.329 109.912 165.116 109.967 164.841 110.028C164.566 110.095 164.233 110.135 163.84 110.149C163.11 110.178 162.471 110.08 161.922 109.858C161.378 109.635 160.954 109.29 160.651 108.821C160.348 108.352 160.199 107.76 160.203 107.045V96.4773ZM170.363 110.206C169.667 110.206 169.047 110.085 168.502 109.844C167.958 109.598 167.527 109.235 167.21 108.757C166.897 108.274 166.741 107.673 166.741 106.953C166.741 106.347 166.852 105.838 167.075 105.426C167.297 105.014 167.6 104.683 167.984 104.432C168.367 104.181 168.803 103.991 169.291 103.864C169.783 103.736 170.299 103.646 170.839 103.594C171.473 103.527 171.985 103.466 172.373 103.409C172.761 103.348 173.043 103.258 173.218 103.139C173.393 103.021 173.481 102.846 173.481 102.614V102.571C173.481 102.121 173.339 101.773 173.055 101.527C172.776 101.281 172.378 101.158 171.862 101.158C171.317 101.158 170.884 101.278 170.562 101.52C170.24 101.757 170.027 102.055 169.923 102.415L167.124 102.188C167.267 101.525 167.546 100.952 167.963 100.469C168.379 99.9811 168.917 99.607 169.575 99.3466C170.238 99.0814 171.005 98.9489 171.876 98.9489C172.482 98.9489 173.062 99.0199 173.616 99.1619C174.175 99.304 174.669 99.5241 175.1 99.8224C175.536 100.121 175.879 100.504 176.13 100.973C176.381 101.437 176.507 101.993 176.507 102.642V110H173.637V108.487H173.552C173.377 108.828 173.142 109.129 172.849 109.389C172.555 109.645 172.203 109.846 171.791 109.993C171.379 110.135 170.903 110.206 170.363 110.206ZM171.23 108.118C171.675 108.118 172.068 108.03 172.409 107.855C172.749 107.675 173.017 107.434 173.211 107.131C173.405 106.828 173.502 106.484 173.502 106.101V104.943C173.408 105.005 173.277 105.062 173.112 105.114C172.951 105.161 172.768 105.206 172.565 105.249C172.361 105.286 172.158 105.322 171.954 105.355C171.75 105.384 171.566 105.41 171.4 105.433C171.045 105.485 170.735 105.568 170.47 105.682C170.204 105.795 169.999 105.949 169.852 106.143C169.705 106.333 169.632 106.57 169.632 106.854C169.632 107.266 169.781 107.58 170.079 107.798C170.382 108.011 170.766 108.118 171.23 108.118ZM184.656 99.0909V101.364H178.087V99.0909H184.656ZM179.578 96.4773H182.604V106.648C182.604 106.927 182.646 107.145 182.732 107.301C182.817 107.453 182.935 107.559 183.087 107.621C183.243 107.682 183.423 107.713 183.627 107.713C183.769 107.713 183.911 107.701 184.053 107.678C184.195 107.649 184.304 107.628 184.379 107.614L184.855 109.865C184.704 109.912 184.491 109.967 184.216 110.028C183.941 110.095 183.608 110.135 183.215 110.149C182.485 110.178 181.846 110.08 181.297 109.858C180.753 109.635 180.329 109.29 180.026 108.821C179.723 108.352 179.574 107.76 179.578 107.045V96.4773ZM195.567 102.202L192.797 102.372C192.75 102.135 192.648 101.922 192.492 101.733C192.336 101.539 192.13 101.385 191.874 101.271C191.623 101.153 191.323 101.094 190.972 101.094C190.503 101.094 190.108 101.193 189.786 101.392C189.464 101.586 189.303 101.847 189.303 102.173C189.303 102.434 189.407 102.654 189.616 102.834C189.824 103.014 190.181 103.158 190.688 103.267L192.662 103.665C193.723 103.883 194.514 104.233 195.035 104.716C195.555 105.199 195.816 105.833 195.816 106.619C195.816 107.334 195.605 107.962 195.184 108.501C194.767 109.041 194.194 109.463 193.465 109.766C192.741 110.064 191.905 110.213 190.958 110.213C189.514 110.213 188.363 109.912 187.506 109.311C186.654 108.705 186.154 107.881 186.008 106.839L188.983 106.683C189.073 107.124 189.291 107.46 189.637 107.692C189.983 107.919 190.425 108.033 190.965 108.033C191.495 108.033 191.921 107.931 192.243 107.727C192.57 107.519 192.736 107.251 192.741 106.925C192.736 106.65 192.62 106.425 192.393 106.25C192.165 106.07 191.815 105.933 191.341 105.838L189.452 105.462C188.387 105.249 187.594 104.879 187.073 104.354C186.557 103.828 186.299 103.158 186.299 102.344C186.299 101.643 186.488 101.039 186.867 100.533C187.251 100.026 187.788 99.6354 188.479 99.3608C189.175 99.0862 189.99 98.9489 190.922 98.9489C192.3 98.9489 193.385 99.2401 194.175 99.8224C194.971 100.405 195.435 101.198 195.567 102.202Z" fill="black"/>
</g>
<line x1="48" y1="140.9" x2="1099" y2="140.9" stroke="#01A1F5" stroke-width="0.2"/>
<line x1="48" y1="276.9" x2="1099" y2="276.9" stroke="#01A1F5" stroke-width="0.2"/>
<rect opacity="0.5" x="521" y="107" width="93" height="300" rx="12" fill="url(#paint1_linear_5129_3405)"/>
<g filter="url(#filter4_d_5129_3405)">
<path d="M48 357C48 357 116.545 268.641 156.066 288.793C195.587 308.945 172.972 340.664 231.019 340.147C289.066 339.63 317.239 268.641 354.908 299.128C360.912 303.987 366.257 308.19 371.001 311.822C387.143 324.182 406.77 314.451 412.116 294.836C417.949 273.437 427.359 251.105 441.36 250.039C468.531 247.971 464.826 295.509 487.674 288.793C510.523 282.077 515.491 134.337 578.478 146.739C641.465 159.141 645.76 319.28 678.488 334.264C711.217 349.249 709.468 267.112 751.828 276.491C794.188 285.871 805.919 296.971 820.908 288.216C830.683 282.506 833.113 264.93 856.951 268.641C864.87 269.874 872.092 277.528 878.208 287.201C890.67 306.913 918.842 315.194 936.934 300.478C951.717 288.453 968.365 276.065 982.308 268.641C1016.27 250.557 1049 246.94 1049 246.94" stroke="url(#paint2_linear_5129_3405)" stroke-width="3" stroke-linecap="round"/>
</g>
<path d="M62.6615 380.909H64.0422L68.7915 392.312H68.9065L73.6558 380.909H75.0365V394H73.9115V383.434H73.8092L69.3923 394H68.3057L63.8888 383.434H63.7865V394H62.6615V380.909ZM89.2492 387.455C89.2492 388.818 89.0063 390.005 88.5205 391.015C88.0347 392.021 87.3657 392.8 86.5134 393.354C85.6654 393.904 84.6895 394.179 83.5858 394.179C82.4822 394.179 81.5042 393.904 80.6519 393.354C79.8039 392.8 79.137 392.021 78.6512 391.015C78.1697 390.005 77.9289 388.818 77.9289 387.455C77.9289 386.091 78.1697 384.906 78.6512 383.901C79.137 382.891 79.806 382.111 80.6583 381.561C81.5106 381.007 82.4864 380.73 83.5858 380.73C84.6895 380.73 85.6654 381.007 86.5134 381.561C87.3657 382.111 88.0347 382.891 88.5205 383.901C89.0063 384.906 89.2492 386.091 89.2492 387.455ZM88.0858 387.455C88.0858 386.283 87.8898 385.279 87.4978 384.444C87.1057 383.604 86.5709 382.963 85.8934 382.52C85.2158 382.077 84.4466 381.855 83.5858 381.855C82.7293 381.855 81.9623 382.077 81.2847 382.52C80.6072 382.963 80.0702 383.602 79.6739 384.438C79.2819 385.273 79.0858 386.278 79.0858 387.455C79.0858 388.626 79.2819 389.63 79.6739 390.465C80.066 391.3 80.6008 391.942 81.2783 392.389C81.9559 392.832 82.7251 393.054 83.5858 393.054C84.4466 393.054 85.2158 392.832 85.8934 392.389C86.5752 391.946 87.1121 391.307 87.5042 390.472C87.8962 389.632 88.0901 388.626 88.0858 387.455ZM102.335 380.909V394H101.172L93.4376 383.038H93.3353V394H92.14V380.909H93.297L101.057 391.884H101.159V380.909H102.335Z" fill="black"/>
<path d="M226.21 381.983V380.909H235.702V381.983H231.553V394H230.358V381.983H226.21ZM247.118 380.909H248.313V389.577C248.313 390.467 248.105 391.264 247.687 391.967C247.269 392.666 246.688 393.218 245.942 393.623C245.2 394.023 244.338 394.224 243.353 394.224C242.373 394.224 241.51 394.021 240.764 393.616C240.019 393.212 239.437 392.66 239.019 391.961C238.602 391.262 238.393 390.467 238.393 389.577V380.909H239.588V389.494C239.588 390.188 239.744 390.808 240.055 391.354C240.366 391.895 240.803 392.321 241.365 392.632C241.932 392.943 242.595 393.099 243.353 393.099C244.112 393.099 244.774 392.943 245.341 392.632C245.908 392.321 246.345 391.895 246.651 391.354C246.963 390.808 247.118 390.188 247.118 389.494V380.909ZM251.787 394V380.909H259.381V381.983H252.983V386.911H258.979V387.985H252.983V392.926H259.509V394H251.787Z" fill="black"/>
<path d="M386.343 394L382.757 380.909H383.972L386.938 392.165H387.04L390.006 380.909H391.387L394.353 392.165H394.455L397.421 380.909H398.642L395.056 394H393.777L390.741 382.897H390.658L387.622 394H386.343ZM400.802 394V380.909H408.396V381.983H401.997V386.911H407.993V387.985H401.997V392.926H408.524V394H400.802ZM415.325 394H411.49V380.909H415.555C416.804 380.909 417.871 381.169 418.757 381.689C419.648 382.209 420.33 382.955 420.803 383.926C421.276 384.898 421.512 386.063 421.512 387.423C421.512 388.795 421.269 389.973 420.784 390.957C420.302 391.937 419.599 392.69 418.674 393.214C417.754 393.738 416.637 394 415.325 394ZM412.685 392.926H415.255C416.38 392.926 417.321 392.705 418.08 392.261C418.838 391.818 419.407 391.185 419.786 390.363C420.166 389.54 420.355 388.56 420.355 387.423C420.351 386.293 420.164 385.322 419.793 384.508C419.426 383.694 418.881 383.07 418.157 382.635C417.436 382.2 416.546 381.983 415.485 381.983H412.685V392.926Z" fill="black"/>
<path d="M546.84 380.4H556.74V382.182H552.87V393H550.728V382.182H546.84V380.4ZM561.133 380.4H563.275V385.728H569.215V380.4H571.339V393H569.215V387.51H563.275V393H561.133V380.4ZM576.359 380.4H578.483V388.428C578.483 389.064 578.609 389.598 578.861 390.03C579.125 390.462 579.479 390.786 579.923 391.002C580.367 391.206 580.871 391.308 581.435 391.308C582.023 391.308 582.539 391.206 582.983 391.002C583.427 390.786 583.775 390.462 584.027 390.03C584.291 389.598 584.423 389.064 584.423 388.428V380.4H586.547V388.374C586.547 389.178 586.403 389.88 586.115 390.48C585.839 391.068 585.455 391.56 584.963 391.956C584.483 392.352 583.937 392.646 583.325 392.838C582.725 393.03 582.089 393.126 581.417 393.126C580.529 393.126 579.701 392.952 578.933 392.604C578.165 392.256 577.541 391.734 577.061 391.038C576.593 390.33 576.359 389.442 576.359 388.374V380.4Z" fill="black"/>
<path d="M708.95 394V380.909H716.524V381.983H710.145V386.911H715.93V387.985H710.145V394H708.95ZM719.496 394V380.909H723.722C724.651 380.909 725.426 381.077 726.048 381.414C726.675 381.746 727.146 382.209 727.461 382.801C727.781 383.389 727.94 384.065 727.94 384.827C727.94 385.59 727.781 386.263 727.461 386.847C727.146 387.431 726.677 387.887 726.055 388.215C725.433 388.543 724.661 388.707 723.741 388.707H720.142V387.614H723.709C724.391 387.614 724.957 387.501 725.409 387.276C725.865 387.05 726.204 386.728 726.425 386.31C726.651 385.893 726.764 385.398 726.764 384.827C726.764 384.256 726.651 383.758 726.425 383.332C726.2 382.901 725.859 382.569 725.403 382.335C724.951 382.1 724.38 381.983 723.69 381.983H720.692V394H719.496ZM725.268 388.094L728.49 394H727.109L723.92 388.094H725.268ZM732.047 380.909V394H730.852V380.909H732.047Z" fill="black"/>
<path d="M861.35 384.182C861.277 383.453 860.955 382.874 860.384 382.443C859.813 382.013 859.095 381.798 858.23 381.798C857.621 381.798 857.084 381.902 856.619 382.111C856.159 382.32 855.797 382.609 855.533 382.98C855.273 383.347 855.143 383.764 855.143 384.233C855.143 384.578 855.217 384.881 855.367 385.141C855.516 385.401 855.716 385.624 855.967 385.812C856.223 385.995 856.504 386.153 856.811 386.285C857.122 386.417 857.435 386.528 857.751 386.617L859.131 387.013C859.549 387.129 859.967 387.276 860.384 387.455C860.802 387.634 861.183 387.859 861.528 388.132C861.878 388.401 862.157 388.731 862.366 389.123C862.579 389.511 862.685 389.977 862.685 390.523C862.685 391.222 862.504 391.85 862.142 392.408C861.78 392.967 861.26 393.41 860.582 393.738C859.905 394.062 859.093 394.224 858.147 394.224C857.256 394.224 856.483 394.077 855.827 393.783C855.171 393.484 854.655 393.073 854.28 392.549C853.905 392.025 853.694 391.418 853.647 390.727H854.874C854.917 391.243 855.087 391.68 855.386 392.038C855.684 392.396 856.072 392.668 856.549 392.856C857.026 393.039 857.559 393.131 858.147 393.131C858.799 393.131 859.379 393.022 859.886 392.805C860.397 392.583 860.798 392.276 861.087 391.884C861.381 391.488 861.528 391.028 861.528 390.504C861.528 390.06 861.413 389.69 861.183 389.391C860.953 389.089 860.631 388.835 860.218 388.631C859.809 388.426 859.334 388.245 858.793 388.087L857.227 387.627C856.2 387.32 855.403 386.896 854.836 386.355C854.269 385.814 853.986 385.124 853.986 384.284C853.986 383.581 854.173 382.963 854.548 382.43C854.928 381.893 855.439 381.476 856.082 381.178C856.73 380.875 857.457 380.724 858.262 380.724C859.076 380.724 859.796 380.873 860.423 381.171C861.049 381.469 861.546 381.881 861.912 382.405C862.283 382.925 862.481 383.517 862.506 384.182H861.35ZM865.581 394H864.328L869.09 380.909H870.369L875.131 394H873.878L869.774 382.462H869.685L865.581 394ZM866.482 388.982H872.977V390.056H866.482V388.982ZM875.052 381.983V380.909H884.545V381.983H880.396V394H879.201V381.983H875.052Z" fill="black"/>
<path d="M1012.65 384.182C1012.58 383.453 1012.26 382.874 1011.69 382.443C1011.12 382.013 1010.4 381.798 1009.53 381.798C1008.92 381.798 1008.39 381.902 1007.92 382.111C1007.46 382.32 1007.1 382.609 1006.83 382.98C1006.57 383.347 1006.44 383.764 1006.44 384.233C1006.44 384.578 1006.52 384.881 1006.67 385.141C1006.82 385.401 1007.02 385.624 1007.27 385.812C1007.52 385.995 1007.81 386.153 1008.11 386.285C1008.42 386.417 1008.74 386.528 1009.05 386.617L1010.43 387.013C1010.85 387.129 1011.27 387.276 1011.69 387.455C1012.1 387.634 1012.49 387.859 1012.83 388.132C1013.18 388.401 1013.46 388.731 1013.67 389.123C1013.88 389.511 1013.99 389.977 1013.99 390.523C1013.99 391.222 1013.81 391.85 1013.44 392.408C1013.08 392.967 1012.56 393.41 1011.88 393.738C1011.21 394.062 1010.39 394.224 1009.45 394.224C1008.56 394.224 1007.78 394.077 1007.13 393.783C1006.47 393.484 1005.96 393.073 1005.58 392.549C1005.21 392.025 1005 391.418 1004.95 390.727H1006.18C1006.22 391.243 1006.39 391.68 1006.69 392.038C1006.99 392.396 1007.37 392.668 1007.85 392.856C1008.33 393.039 1008.86 393.131 1009.45 393.131C1010.1 393.131 1010.68 393.022 1011.19 392.805C1011.7 392.583 1012.1 392.276 1012.39 391.884C1012.68 391.488 1012.83 391.028 1012.83 390.504C1012.83 390.06 1012.72 389.69 1012.49 389.391C1012.25 389.089 1011.93 388.835 1011.52 388.631C1011.11 388.426 1010.64 388.245 1010.09 388.087L1008.53 387.627C1007.5 387.32 1006.7 386.896 1006.14 386.355C1005.57 385.814 1005.29 385.124 1005.29 384.284C1005.29 383.581 1005.48 382.963 1005.85 382.43C1006.23 381.893 1006.74 381.476 1007.38 381.178C1008.03 380.875 1008.76 380.724 1009.56 380.724C1010.38 380.724 1011.1 380.873 1011.72 381.171C1012.35 381.469 1012.85 381.881 1013.21 382.405C1013.58 382.925 1013.78 383.517 1013.81 384.182H1012.65ZM1025.59 380.909H1026.78V389.577C1026.78 390.467 1026.58 391.264 1026.16 391.967C1025.74 392.666 1025.16 393.218 1024.41 393.623C1023.67 394.023 1022.81 394.224 1021.82 394.224C1020.84 394.224 1019.98 394.021 1019.24 393.616C1018.49 393.212 1017.91 392.66 1017.49 391.961C1017.07 391.262 1016.86 390.467 1016.86 389.577V380.909H1018.06V389.494C1018.06 390.188 1018.21 390.808 1018.53 391.354C1018.84 391.895 1019.27 392.321 1019.84 392.632C1020.4 392.943 1021.07 393.099 1021.82 393.099C1022.58 393.099 1023.25 392.943 1023.81 392.632C1024.38 392.321 1024.82 391.895 1025.12 391.354C1025.43 390.808 1025.59 390.188 1025.59 389.494V380.909ZM1040.45 380.909V394H1039.29L1031.56 383.038H1031.45V394H1030.26V380.909H1031.42L1039.18 391.884H1039.28V380.909H1040.45Z" fill="black"/>
<g filter="url(#filter5_d_5129_3405)">
<circle cx="567.5" cy="145.5" r="11.5" fill="url(#paint3_linear_5129_3405)"/>
</g>
<g filter="url(#filter6_b_5129_3405)">
<rect x="-2" y="-13" width="1231" height="489" rx="10" fill="#E9E9E9" fill-opacity="0.5"/>
<g filter="url(#filter7_d_5129_3405)">
<rect x="421" y="211" width="369" height="42" rx="5" fill="#F3F1F1"/>
</g>
<path d="M461.336 223.2V240H458.432L450.608 227.688V240H447.752V223.2H450.68L458.504 235.464V223.2H461.336ZM470.093 240.168C468.893 240.168 467.837 239.904 466.925 239.376C466.029 238.848 465.325 238.112 464.813 237.168C464.317 236.224 464.069 235.136 464.069 233.904C464.069 232.736 464.317 231.696 464.813 230.784C465.309 229.872 465.997 229.152 466.877 228.624C467.757 228.096 468.757 227.832 469.877 227.832C471.013 227.832 472.013 228.08 472.877 228.576C473.741 229.072 474.413 229.768 474.893 230.664C475.389 231.544 475.637 232.568 475.637 233.736C475.637 233.928 475.629 234.136 475.613 234.36C475.597 234.568 475.573 234.792 475.541 235.032H466.997C467.077 235.592 467.253 236.08 467.525 236.496C467.813 236.896 468.173 237.208 468.605 237.432C469.037 237.656 469.533 237.768 470.093 237.768C470.765 237.768 471.365 237.632 471.893 237.36C472.437 237.088 472.813 236.728 473.021 236.28L475.397 237.072C474.917 238.032 474.205 238.792 473.261 239.352C472.317 239.896 471.261 240.168 470.093 240.168ZM472.685 232.824C472.669 232.328 472.533 231.88 472.277 231.48C472.021 231.08 471.685 230.768 471.269 230.544C470.853 230.304 470.389 230.184 469.877 230.184C469.429 230.184 469.005 230.296 468.605 230.52C468.205 230.744 467.861 231.056 467.573 231.456C467.301 231.84 467.125 232.296 467.045 232.824H472.685ZM483.498 240H480.834L477.138 228H479.898L482.154 236.784L484.482 228H487.122L489.354 236.76L491.586 228H494.298L490.626 240H487.914L485.73 231.888L483.498 240ZM503.299 223.2H514.771V225.576H506.155V230.304H512.611V232.68H506.155V240H503.299V223.2ZM522.617 240.168C521.417 240.168 520.361 239.904 519.449 239.376C518.553 238.848 517.849 238.112 517.337 237.168C516.841 236.224 516.593 235.136 516.593 233.904C516.593 232.736 516.841 231.696 517.337 230.784C517.833 229.872 518.521 229.152 519.401 228.624C520.281 228.096 521.281 227.832 522.401 227.832C523.537 227.832 524.537 228.08 525.401 228.576C526.265 229.072 526.937 229.768 527.417 230.664C527.913 231.544 528.161 232.568 528.161 233.736C528.161 233.928 528.153 234.136 528.137 234.36C528.121 234.568 528.097 234.792 528.065 235.032H519.521C519.601 235.592 519.777 236.08 520.049 236.496C520.337 236.896 520.697 237.208 521.129 237.432C521.561 237.656 522.057 237.768 522.617 237.768C523.289 237.768 523.889 237.632 524.417 237.36C524.961 237.088 525.337 236.728 525.545 236.28L527.921 237.072C527.441 238.032 526.729 238.792 525.785 239.352C524.841 239.896 523.785 240.168 522.617 240.168ZM525.209 232.824C525.193 232.328 525.057 231.88 524.801 231.48C524.545 231.08 524.209 230.768 523.793 230.544C523.377 230.304 522.913 230.184 522.401 230.184C521.953 230.184 521.529 230.296 521.129 230.52C520.729 230.744 520.385 231.056 520.097 231.456C519.825 231.84 519.649 232.296 519.569 232.824H525.209ZM537.869 240L537.629 238.536C537.245 239.048 536.789 239.44 536.261 239.712C535.733 239.984 535.029 240.12 534.149 240.12C533.317 240.12 532.597 239.984 531.989 239.712C531.381 239.424 530.909 239.032 530.573 238.536C530.253 238.024 530.093 237.432 530.093 236.76C530.093 235.752 530.461 234.912 531.197 234.24C531.949 233.552 533.045 233.128 534.485 232.968L537.629 232.632V231.696C537.629 231.312 537.461 230.968 537.125 230.664C536.789 230.344 536.253 230.184 535.517 230.184C534.877 230.184 534.317 230.344 533.837 230.664C533.373 230.968 533.061 231.432 532.901 232.056L530.549 231.192C530.853 230.136 531.453 229.312 532.349 228.72C533.261 228.128 534.365 227.832 535.661 227.832C537.229 227.832 538.405 228.224 539.189 229.008C539.973 229.792 540.365 230.792 540.365 232.008V240H537.869ZM537.629 234.72L534.749 235.08C534.141 235.16 533.685 235.336 533.381 235.608C533.077 235.864 532.925 236.192 532.925 236.592C532.925 236.96 533.069 237.28 533.357 237.552C533.661 237.808 534.069 237.936 534.581 237.936C535.237 237.936 535.789 237.816 536.237 237.576C536.701 237.336 537.045 236.992 537.269 236.544C537.509 236.096 537.629 235.544 537.629 234.888V234.72ZM544.142 228V224.64H546.902V228H549.71V230.376H546.902V235.704C546.902 236.424 547.038 236.928 547.31 237.216C547.582 237.488 547.934 237.64 548.366 237.672C548.814 237.688 549.262 237.664 549.71 237.6V239.904C549.022 240.048 548.342 240.088 547.67 240.024C547.014 239.976 546.422 239.8 545.894 239.496C545.366 239.176 544.942 238.712 544.622 238.104C544.302 237.496 544.142 236.696 544.142 235.704V230.376H542.462V228H544.142ZM562.318 240H559.822L559.654 238.8C559.254 239.232 558.774 239.568 558.214 239.808C557.654 240.048 557.062 240.168 556.438 240.168C555.494 240.168 554.678 239.976 553.99 239.592C553.318 239.192 552.798 238.616 552.43 237.864C552.062 237.096 551.878 236.152 551.878 235.032V228H554.59V234.672C554.59 235.664 554.79 236.424 555.19 236.952C555.59 237.464 556.206 237.72 557.038 237.72C557.838 237.72 558.462 237.464 558.91 236.952C559.374 236.424 559.606 235.648 559.606 234.624V228H562.318V240ZM565.475 228H567.923L568.139 229.488C568.459 229.088 568.835 228.76 569.267 228.504C569.699 228.232 570.163 228.048 570.659 227.952C571.171 227.856 571.683 227.872 572.195 228V230.496C571.779 230.352 571.331 230.32 570.851 230.4C570.387 230.464 569.955 230.64 569.555 230.928C569.155 231.2 568.827 231.592 568.571 232.104C568.315 232.6 568.187 233.216 568.187 233.952V240H565.475V228ZM579.711 240.168C578.511 240.168 577.455 239.904 576.543 239.376C575.647 238.848 574.943 238.112 574.431 237.168C573.935 236.224 573.687 235.136 573.687 233.904C573.687 232.736 573.935 231.696 574.431 230.784C574.927 229.872 575.615 229.152 576.495 228.624C577.375 228.096 578.375 227.832 579.495 227.832C580.631 227.832 581.631 228.08 582.495 228.576C583.359 229.072 584.031 229.768 584.511 230.664C585.007 231.544 585.255 232.568 585.255 233.736C585.255 233.928 585.247 234.136 585.231 234.36C585.215 234.568 585.191 234.792 585.159 235.032H576.615C576.695 235.592 576.871 236.08 577.143 236.496C577.431 236.896 577.791 237.208 578.223 237.432C578.655 237.656 579.151 237.768 579.711 237.768C580.383 237.768 580.983 237.632 581.511 237.36C582.055 237.088 582.431 236.728 582.639 236.28L585.015 237.072C584.535 238.032 583.823 238.792 582.879 239.352C581.935 239.896 580.879 240.168 579.711 240.168ZM582.303 232.824C582.287 232.328 582.151 231.88 581.895 231.48C581.639 231.08 581.303 230.768 580.887 230.544C580.471 230.304 580.007 230.184 579.495 230.184C579.047 230.184 578.623 230.296 578.223 230.52C577.823 230.744 577.479 231.056 577.191 231.456C576.919 231.84 576.743 232.296 576.663 232.824H582.303ZM593.818 231.6C593.818 230.336 594.034 229.184 594.466 228.144C594.914 227.088 595.522 226.184 596.29 225.432C597.074 224.664 597.978 224.072 599.002 223.656C600.042 223.24 601.154 223.032 602.338 223.032C603.986 223.032 605.474 223.424 606.802 224.208C608.146 224.992 609.17 226.12 609.874 227.592L607.546 228.384C607.178 227.68 606.706 227.112 606.13 226.68C605.554 226.248 604.946 225.936 604.306 225.744C603.666 225.552 603.034 225.456 602.41 225.456C601.322 225.456 600.346 225.712 599.482 226.224C598.618 226.72 597.938 227.432 597.442 228.36C596.962 229.272 596.722 230.352 596.722 231.6C596.722 232.832 596.962 233.912 597.442 234.84C597.938 235.752 598.618 236.464 599.482 236.976C600.346 237.488 601.322 237.744 602.41 237.744C603.05 237.744 603.698 237.648 604.354 237.456C605.026 237.248 605.658 236.896 606.25 236.4C606.858 235.888 607.362 235.208 607.762 234.36L610.066 235.104C609.33 236.832 608.282 238.112 606.922 238.944C605.562 239.76 604.034 240.168 602.338 240.168C601.154 240.168 600.042 239.96 599.002 239.544C597.978 239.128 597.074 238.536 596.29 237.768C595.522 237 594.914 236.096 594.466 235.056C594.034 234 593.818 232.848 593.818 231.6ZM618.171 240.168C617.019 240.168 615.987 239.92 615.075 239.424C614.163 238.912 613.451 238.2 612.939 237.288C612.427 236.36 612.171 235.272 612.171 234.024C612.171 232.76 612.435 231.664 612.963 230.736C613.491 229.808 614.219 229.096 615.147 228.6C616.075 228.088 617.107 227.832 618.243 227.832C619.395 227.832 620.427 228.088 621.339 228.6C622.267 229.096 623.003 229.808 623.547 230.736C624.091 231.648 624.363 232.728 624.363 233.976C624.363 235.24 624.083 236.336 623.523 237.264C622.979 238.192 622.235 238.912 621.291 239.424C620.363 239.92 619.323 240.168 618.171 240.168ZM618.147 237.744C618.707 237.744 619.235 237.608 619.731 237.336C620.243 237.064 620.659 236.656 620.979 236.112C621.299 235.552 621.459 234.84 621.459 233.976C621.459 233.144 621.307 232.456 621.003 231.912C620.699 231.352 620.299 230.936 619.803 230.664C619.307 230.392 618.771 230.256 618.195 230.256C617.635 230.256 617.115 230.392 616.635 230.664C616.171 230.936 615.795 231.352 615.507 231.912C615.219 232.456 615.075 233.16 615.075 234.024C615.075 234.856 615.211 235.552 615.483 236.112C615.771 236.656 616.147 237.064 616.611 237.336C617.075 237.608 617.587 237.744 618.147 237.744ZM626.905 228H629.353L629.545 229.128C629.945 228.728 630.417 228.416 630.961 228.192C631.505 227.952 632.097 227.832 632.737 227.832C633.537 227.832 634.257 228 634.897 228.336C635.537 228.656 636.057 229.128 636.457 229.752C636.873 229.128 637.441 228.656 638.161 228.336C638.881 228 639.657 227.832 640.489 227.832C641.433 227.832 642.249 228.032 642.937 228.432C643.641 228.816 644.185 229.392 644.569 230.16C644.953 230.912 645.145 231.856 645.145 232.992V240H642.409V233.352C642.409 232.344 642.193 231.584 641.761 231.072C641.345 230.56 640.729 230.304 639.913 230.304C639.081 230.304 638.433 230.568 637.969 231.096C637.505 231.608 637.273 232.376 637.273 233.4V240H634.561V233.352C634.561 232.344 634.361 231.584 633.961 231.072C633.577 230.56 632.977 230.304 632.161 230.304C631.329 230.304 630.697 230.568 630.265 231.096C629.833 231.608 629.617 232.368 629.617 233.376V240H626.905V228ZM648.523 228H651.235V240H648.523V228ZM649.891 226.176C649.395 226.176 648.979 226.008 648.643 225.672C648.307 225.336 648.139 224.936 648.139 224.472C648.139 223.976 648.307 223.56 648.643 223.224C648.979 222.888 649.395 222.72 649.891 222.72C650.371 222.72 650.779 222.888 651.115 223.224C651.451 223.56 651.619 223.976 651.619 224.472C651.619 224.936 651.451 225.336 651.115 225.672C650.779 226.008 650.371 226.176 649.891 226.176ZM654.819 228H657.267L657.459 229.176C657.859 228.76 658.331 228.432 658.875 228.192C659.435 227.952 660.035 227.832 660.675 227.832C661.619 227.832 662.427 228.032 663.099 228.432C663.787 228.816 664.315 229.392 664.683 230.16C665.051 230.912 665.235 231.856 665.235 232.992V240H662.523V233.352C662.523 232.344 662.315 231.584 661.899 231.072C661.499 230.56 660.891 230.304 660.075 230.304C659.243 230.304 658.611 230.568 658.179 231.096C657.747 231.608 657.531 232.368 657.531 233.376V240H654.819V228ZM677.009 228H679.457V238.2C679.457 239.56 679.121 240.728 678.449 241.704C677.777 242.696 676.809 243.456 675.545 243.984C674.281 244.528 672.761 244.8 670.985 244.8L670.577 242.472C672.593 242.424 674.121 242.04 675.161 241.32C676.217 240.6 676.745 239.568 676.745 238.224V238.2H677.057C676.689 238.744 676.153 239.208 675.449 239.592C674.761 239.976 673.937 240.168 672.977 240.168C671.921 240.168 670.985 239.912 670.169 239.4C669.353 238.888 668.713 238.168 668.249 237.24C667.801 236.312 667.577 235.232 667.577 234C667.577 232.768 667.801 231.688 668.249 230.76C668.713 229.832 669.353 229.112 670.169 228.6C670.985 228.088 671.921 227.832 672.977 227.832C673.569 227.832 674.105 227.912 674.585 228.072C675.081 228.216 675.513 228.416 675.881 228.672C676.265 228.912 676.577 229.184 676.817 229.488L677.009 228ZM670.481 234C670.481 235.104 670.769 236 671.345 236.688C671.921 237.376 672.689 237.72 673.649 237.72C674.209 237.72 674.721 237.576 675.185 237.288C675.649 236.984 676.025 236.552 676.313 235.992C676.601 235.432 676.745 234.768 676.745 234C676.745 233.2 676.601 232.528 676.313 231.984C676.025 231.424 675.641 231 675.161 230.712C674.697 230.424 674.193 230.28 673.649 230.28C672.689 230.28 671.921 230.624 671.345 231.312C670.769 231.984 670.481 232.88 670.481 234ZM691.43 235.392C691.526 235.84 691.71 236.248 691.982 236.616C692.27 236.968 692.646 237.248 693.11 237.456C693.59 237.664 694.158 237.768 694.814 237.768C695.822 237.768 696.574 237.536 697.07 237.072C697.566 236.592 697.814 236.032 697.814 235.392C697.814 234.864 697.654 234.424 697.334 234.072C697.03 233.72 696.598 233.424 696.038 233.184C695.478 232.928 694.838 232.688 694.118 232.464C693.462 232.272 692.83 232.072 692.222 231.864C691.614 231.64 691.062 231.368 690.566 231.048C690.086 230.712 689.702 230.288 689.414 229.776C689.126 229.248 688.99 228.592 689.006 227.808C689.006 226.784 689.246 225.92 689.726 225.216C690.206 224.496 690.878 223.952 691.742 223.584C692.606 223.216 693.598 223.032 694.718 223.032C695.662 223.032 696.51 223.168 697.262 223.44C698.03 223.696 698.678 224.08 699.206 224.592C699.734 225.088 700.126 225.704 700.382 226.44L697.766 227.304C697.67 226.952 697.478 226.64 697.19 226.368C696.902 226.08 696.542 225.856 696.11 225.696C695.694 225.536 695.238 225.448 694.742 225.432C694.198 225.416 693.71 225.496 693.278 225.672C692.862 225.848 692.526 226.104 692.27 226.44C692.014 226.76 691.886 227.136 691.886 227.568C691.886 228.064 692.03 228.456 692.318 228.744C692.606 229.016 692.982 229.248 693.446 229.44C693.926 229.616 694.454 229.8 695.03 229.992C695.702 230.184 696.366 230.408 697.022 230.664C697.694 230.904 698.302 231.216 698.846 231.6C699.406 231.968 699.854 232.44 700.19 233.016C700.526 233.592 700.694 234.312 700.694 235.176C700.694 236.104 700.478 236.944 700.046 237.696C699.63 238.448 698.99 239.048 698.126 239.496C697.262 239.944 696.19 240.168 694.91 240.168C693.87 240.168 692.918 240.016 692.054 239.712C691.206 239.392 690.494 238.944 689.918 238.368C689.358 237.776 688.99 237.08 688.814 236.28L691.43 235.392ZM708.71 240.168C707.558 240.168 706.526 239.92 705.614 239.424C704.702 238.912 703.99 238.2 703.478 237.288C702.966 236.36 702.71 235.272 702.71 234.024C702.71 232.76 702.974 231.664 703.502 230.736C704.03 229.808 704.758 229.096 705.686 228.6C706.614 228.088 707.646 227.832 708.782 227.832C709.934 227.832 710.966 228.088 711.878 228.6C712.806 229.096 713.542 229.808 714.086 230.736C714.63 231.648 714.902 232.728 714.902 233.976C714.902 235.24 714.622 236.336 714.062 237.264C713.518 238.192 712.774 238.912 711.83 239.424C710.902 239.92 709.862 240.168 708.71 240.168ZM708.686 237.744C709.246 237.744 709.774 237.608 710.27 237.336C710.782 237.064 711.198 236.656 711.518 236.112C711.838 235.552 711.998 234.84 711.998 233.976C711.998 233.144 711.846 232.456 711.542 231.912C711.238 231.352 710.838 230.936 710.342 230.664C709.846 230.392 709.31 230.256 708.734 230.256C708.174 230.256 707.654 230.392 707.174 230.664C706.71 230.936 706.334 231.352 706.046 231.912C705.758 232.456 705.614 233.16 705.614 234.024C705.614 234.856 705.75 235.552 706.022 236.112C706.31 236.656 706.686 237.064 707.15 237.336C707.614 237.608 708.126 237.744 708.686 237.744ZM722.796 240.168C721.644 240.168 720.612 239.92 719.7 239.424C718.788 238.912 718.076 238.2 717.564 237.288C717.052 236.36 716.796 235.272 716.796 234.024C716.796 232.76 717.06 231.664 717.588 230.736C718.116 229.808 718.844 229.096 719.772 228.6C720.7 228.088 721.732 227.832 722.868 227.832C724.02 227.832 725.052 228.088 725.964 228.6C726.892 229.096 727.628 229.808 728.172 230.736C728.716 231.648 728.988 232.728 728.988 233.976C728.988 235.24 728.708 236.336 728.148 237.264C727.604 238.192 726.86 238.912 725.916 239.424C724.988 239.92 723.948 240.168 722.796 240.168ZM722.772 237.744C723.332 237.744 723.86 237.608 724.356 237.336C724.868 237.064 725.284 236.656 725.604 236.112C725.924 235.552 726.084 234.84 726.084 233.976C726.084 233.144 725.932 232.456 725.628 231.912C725.324 231.352 724.924 230.936 724.428 230.664C723.932 230.392 723.396 230.256 722.82 230.256C722.26 230.256 721.74 230.392 721.26 230.664C720.796 230.936 720.42 231.352 720.132 231.912C719.844 232.456 719.7 233.16 719.7 234.024C719.7 234.856 719.836 235.552 720.108 236.112C720.396 236.656 720.772 237.064 721.236 237.336C721.7 237.608 722.212 237.744 722.772 237.744ZM731.53 228H733.978L734.17 229.176C734.57 228.76 735.042 228.432 735.586 228.192C736.146 227.952 736.746 227.832 737.386 227.832C738.33 227.832 739.138 228.032 739.81 228.432C740.498 228.816 741.026 229.392 741.394 230.16C741.762 230.912 741.946 231.856 741.946 232.992V240H739.234V233.352C739.234 232.344 739.026 231.584 738.61 231.072C738.21 230.56 737.602 230.304 736.786 230.304C735.954 230.304 735.322 230.568 734.89 231.096C734.458 231.608 734.242 232.368 734.242 233.376V240H731.53V228ZM746.448 240.168C745.936 240.168 745.504 240 745.152 239.664C744.816 239.312 744.648 238.88 744.648 238.368C744.648 237.872 744.816 237.456 745.152 237.12C745.504 236.768 745.936 236.592 746.448 236.592C746.944 236.592 747.368 236.768 747.72 237.12C748.072 237.456 748.248 237.872 748.248 238.368C748.248 238.88 748.072 239.312 747.72 239.664C747.368 240 746.944 240.168 746.448 240.168ZM752.683 240.168C752.171 240.168 751.739 240 751.387 239.664C751.051 239.312 750.883 238.88 750.883 238.368C750.883 237.872 751.051 237.456 751.387 237.12C751.739 236.768 752.171 236.592 752.683 236.592C753.179 236.592 753.603 236.768 753.955 237.12C754.307 237.456 754.483 237.872 754.483 238.368C754.483 238.88 754.307 239.312 753.955 239.664C753.603 240 753.179 240.168 752.683 240.168ZM758.917 240.168C758.405 240.168 757.973 240 757.621 239.664C757.285 239.312 757.117 238.88 757.117 238.368C757.117 237.872 757.285 237.456 757.621 237.12C757.973 236.768 758.405 236.592 758.917 236.592C759.413 236.592 759.837 236.768 760.189 237.12C760.541 237.456 760.717 237.872 760.717 238.368C760.717 238.88 760.541 239.312 760.189 239.664C759.837 240 759.413 240.168 758.917 240.168ZM765.151 240.168C764.639 240.168 764.207 240 763.855 239.664C763.519 239.312 763.351 238.88 763.351 238.368C763.351 237.872 763.519 237.456 763.855 237.12C764.207 236.768 764.639 236.592 765.151 236.592C765.647 236.592 766.071 236.768 766.423 237.12C766.775 237.456 766.951 237.872 766.951 238.368C766.951 238.88 766.775 239.312 766.423 239.664C766.071 240 765.647 240.168 765.151 240.168Z" fill="black"/>
</g>
</g>
<defs>
<filter id="filter0_d_5129_3405" x="963" y="88.5" width="28" height="28" filterUnits="userSpaceOnUse" color-interpolation-filters="sRGB">
<feFlood flood-opacity="0" result="BackgroundImageFix"/>
<feColorMatrix in="SourceAlpha" type="matrix" values="0 0 0 0 0 0 0 0 0 0 0 0 0 0 0 0 0 0 127 0" result="hardAlpha"/>
<feOffset/>
<feGaussianBlur stdDeviation="5"/>
<feComposite in2="hardAlpha" operator="out"/>
<feColorMatrix type="matrix" values="0 0 0 0 1 0 0 0 0 1 0 0 0 0 1 0 0 0 0.25 0"/>
<feBlend mode="normal" in2="BackgroundImageFix" result="effect1_dropShadow_5129_3405"/>
<feBlend mode="normal" in="SourceGraphic" in2="effect1_dropShadow_5129_3405" result="shape"/>
</filter>
<filter id="filter1_d_5129_3405" x="1072" y="88.5" width="28" height="28" filterUnits="userSpaceOnUse" color-interpolation-filters="sRGB">
<feFlood flood-opacity="0" result="BackgroundImageFix"/>
<feColorMatrix in="SourceAlpha" type="matrix" values="0 0 0 0 0 0 0 0 0 0 0 0 0 0 0 0 0 0 127 0" result="hardAlpha"/>
<feOffset/>
<feGaussianBlur stdDeviation="5"/>
<feComposite in2="hardAlpha" operator="out"/>
<feColorMatrix type="matrix" values="0 0 0 0 1 0 0 0 0 1 0 0 0 0 1 0 0 0 0.25 0"/>
<feBlend mode="normal" in2="BackgroundImageFix" result="effect1_dropShadow_5129_3405"/>
<feBlend mode="normal" in="SourceGraphic" in2="effect1_dropShadow_5129_3405" result="shape"/>
</filter>
<filter id="filter2_d_5129_3405" x="1137" y="88.5" width="28" height="28" filterUnits="userSpaceOnUse" color-interpolation-filters="sRGB">
<feFlood flood-opacity="0" result="BackgroundImageFix"/>
<feColorMatrix in="SourceAlpha" type="matrix" values="0 0 0 0 0 0 0 0 0 0 0 0 0 0 0 0 0 0 127 0" result="hardAlpha"/>
<feOffset/>
<feGaussianBlur stdDeviation="5"/>
<feComposite in2="hardAlpha" operator="out"/>
<feColorMatrix type="matrix" values="0 0 0 0 1 0 0 0 0 1 0 0 0 0 1 0 0 0 0.25 0"/>
<feBlend mode="normal" in2="BackgroundImageFix" result="effect1_dropShadow_5129_3405"/>
<feBlend mode="normal" in="SourceGraphic" in2="effect1_dropShadow_5129_3405" result="shape"/>
</filter>
<filter id="filter3_d_5129_3405" x="16.75" y="61.2557" width="212.066" height="84.8352" filterUnits="userSpaceOnUse" color-interpolation-filters="sRGB">
<feFlood flood-opacity="0" result="BackgroundImageFix"/>
<feColorMatrix in="SourceAlpha" type="matrix" values="0 0 0 0 0 0 0 0 0 0 0 0 0 0 0 0 0 0 127 0" result="hardAlpha"/>
<feOffset dy="-1"/>
<feGaussianBlur stdDeviation="16.5"/>
<feComposite in2="hardAlpha" operator="out"/>
<feColorMatrix type="matrix" values="0 0 0 0 0.1 0 0 0 0 0.745395 0 0 0 0 1 0 0 0 0.5 0"/>
<feBlend mode="normal" in2="BackgroundImageFix" result="effect1_dropShadow_5129_3405"/>
<feBlend mode="normal" in="SourceGraphic" in2="effect1_dropShadow_5129_3405" result="shape"/>
</filter>
<filter id="filter4_d_5129_3405" x="13.5" y="110.499" width="1070" height="280.001" filterUnits="userSpaceOnUse" color-interpolation-filters="sRGB">
<feFlood flood-opacity="0" result="BackgroundImageFix"/>
<feColorMatrix in="SourceAlpha" type="matrix" values="0 0 0 0 0 0 0 0 0 0 0 0 0 0 0 0 0 0 127 0" result="hardAlpha"/>
<feOffset dy="-1"/>
<feGaussianBlur stdDeviation="16.5"/>
<feComposite in2="hardAlpha" operator="out"/>
<feColorMatrix type="matrix" values="0 0 0 0 0.1 0 0 0 0 0.745395 0 0 0 0 1 0 0 0 0.5 0"/>
<feBlend mode="normal" in2="BackgroundImageFix" result="effect1_dropShadow_5129_3405"/>
<feBlend mode="normal" in="SourceGraphic" in2="effect1_dropShadow_5129_3405" result="shape"/>
</filter>
<filter id="filter5_d_5129_3405" x="523" y="100" width="89" height="89" filterUnits="userSpaceOnUse" color-interpolation-filters="sRGB">
<feFlood flood-opacity="0" result="BackgroundImageFix"/>
<feColorMatrix in="SourceAlpha" type="matrix" values="0 0 0 0 0 0 0 0 0 0 0 0 0 0 0 0 0 0 127 0" result="hardAlpha"/>
<feOffset dy="-1"/>
<feGaussianBlur stdDeviation="16.5"/>
<feComposite in2="hardAlpha" operator="out"/>
<feColorMatrix type="matrix" values="0 0 0 0 0.1 0 0 0 0 0.745395 0 0 0 0 1 0 0 0 0.5 0"/>
<feBlend mode="normal" in2="BackgroundImageFix" result="effect1_dropShadow_5129_3405"/>
<feBlend mode="normal" in="SourceGraphic" in2="effect1_dropShadow_5129_3405" result="shape"/>
</filter>
<filter id="filter6_b_5129_3405" x="-7" y="-18" width="1241" height="499" filterUnits="userSpaceOnUse" color-interpolation-filters="sRGB">
<feFlood flood-opacity="0" result="BackgroundImageFix"/>
<feGaussianBlur in="BackgroundImageFix" stdDeviation="2.5"/>
<feComposite in2="SourceAlpha" operator="in" result="effect1_backgroundBlur_5129_3405"/>
<feBlend mode="normal" in="SourceGraphic" in2="effect1_backgroundBlur_5129_3405" result="shape"/>
</filter>
<filter id="filter7_d_5129_3405" x="417" y="211" width="377" height="50" filterUnits="userSpaceOnUse" color-interpolation-filters="sRGB">
<feFlood flood-opacity="0" result="BackgroundImageFix"/>
<feColorMatrix in="SourceAlpha" type="matrix" values="0 0 0 0 0 0 0 0 0 0 0 0 0 0 0 0 0 0 127 0" result="hardAlpha"/>
<feOffset dy="4"/>
<feGaussianBlur stdDeviation="2"/>
<feComposite in2="hardAlpha" operator="out"/>
<feColorMatrix type="matrix" values="0 0 0 0 0 0 0 0 0 0 0 0 0 0 0 0 0 0 0.25 0"/>
<feBlend mode="normal" in2="BackgroundImageFix" result="effect1_dropShadow_5129_3405"/>
<feBlend mode="normal" in="SourceGraphic" in2="effect1_dropShadow_5129_3405" result="shape"/>
</filter>
<linearGradient id="paint0_linear_5129_3405" x1="1018.68" y1="20.5889" x2="1018.68" y2="39" gradientUnits="userSpaceOnUse">
<stop stop-color="#00285F"/>
<stop offset="1" stop-color="#007BE5"/>
</linearGradient>
<linearGradient id="paint1_linear_5129_3405" x1="570.914" y1="110.192" x2="598.108" y2="404.169" gradientUnits="userSpaceOnUse">
<stop stop-color="#26E2B3" stop-opacity="0"/>
<stop offset="1" stop-color="#67DE7F"/>
</linearGradient>
<linearGradient id="paint2_linear_5129_3405" x1="585.243" y1="148.245" x2="586.972" y2="400.409" gradientUnits="userSpaceOnUse">
<stop stop-color="#67DE7F"/>
<stop offset="1" stop-color="white"/>
</linearGradient>
<linearGradient id="paint3_linear_5129_3405" x1="570.962" y1="135.151" x2="568.565" y2="167.506" gradientUnits="userSpaceOnUse">
<stop stop-color="#67DE7F"/>
<stop offset="1" stop-color="#85E599"/>
</linearGradient>
<clipPath id="clip0_5129_3405">
<rect width="1204" height="464" rx="6" fill="white"/>
</clipPath>
<clipPath id="clip1_5129_3405">
<rect x="33" y="80" width="1140" height="342" rx="4" fill="white"/>
</clipPath>
<clipPath id="clip2_5129_3405">
<rect x="905" y="94" width="81" height="17" rx="2" fill="white"/>
</clipPath>
<clipPath id="clip3_5129_3405">
<rect x="994" y="94" width="101" height="17" rx="2" fill="white"/>
</clipPath>
<clipPath id="clip4_5129_3405">
<rect x="1103" y="94" width="57" height="17" rx="2" fill="white"/>
</clipPath>
</defs>
</svg>
