<svg width="27" height="28" viewBox="0 0 27 28" fill="none" xmlns="http://www.w3.org/2000/svg">
<path d="M7.72266 15.4445L16.3893 15.4445" stroke="white" stroke-width="2" stroke-linecap="round"/>
<path d="M7.72266 9.66663L13.5004 9.66663" stroke="white" stroke-width="2" stroke-linecap="round"/>
<path d="M7.72266 21.2222L13.5004 21.2222" stroke="white" stroke-width="2" stroke-linecap="round"/>
<path d="M22.1675 15.4444V21C22.1675 23.8284 22.1675 25.2426 21.2889 26.1213C20.4102 27 18.996 27 16.1675 27H7.94531C5.11688 27 3.70267 27 2.82399 26.1213C1.94531 25.2426 1.94531 23.8284 1.94531 21V7C1.94531 4.17157 1.94531 2.75736 2.82399 1.87868C3.70267 1 5.11689 1 7.94531 1H10.612" stroke="white" stroke-width="2"/>
<path d="M20.7227 1L20.7227 9.66667" stroke="white" stroke-width="2" stroke-linecap="round"/>
<path d="M25.0547 5.33337L16.388 5.33337" stroke="white" stroke-width="2" stroke-linecap="round"/>
</svg>
