<svg width="22" height="22" viewBox="0 0 22 22" fill="none" xmlns="http://www.w3.org/2000/svg">
<circle cx="11" cy="11" r="11" fill="black"/>
<path fill-rule="evenodd" clip-rule="evenodd" d="M6.59701 9.6359C6.59375 9.8913 6.59375 10.1802 6.59375 10.5111C6.59375 11.8151 6.59375 12.4671 6.79301 12.9862C7.0977 13.7799 7.72489 14.4071 8.51865 14.7118C9.03773 14.9111 9.68974 14.9111 10.9937 14.9111C12.2978 14.9111 12.9498 14.9111 13.4689 14.7118C14.2626 14.4071 14.8898 13.7799 15.1945 12.9862C15.3937 12.4671 15.3937 11.8151 15.3937 10.5111C15.3937 10.1772 15.3937 9.88613 15.3904 9.62904C15.3411 10.3945 14.7047 11 13.9268 11H13.5966C13.2099 11 12.8665 11.2475 12.7443 11.6144L12.7046 11.7334L12.7046 11.7334L12.7045 11.7335C12.6888 11.7808 12.6809 11.8044 12.6728 11.8255C12.5302 12.1964 12.1816 12.4477 11.7846 12.4657C11.762 12.4667 11.7371 12.4667 11.6871 12.4667H10.2998C10.2499 12.4667 10.2249 12.4667 10.2023 12.4657C9.80538 12.4477 9.45675 12.1964 9.31417 11.8255C9.30605 11.8044 9.29815 11.7807 9.28237 11.7334L9.28237 11.7334L9.2427 11.6144C9.12041 11.2475 8.77708 11 8.39036 11H8.06015C7.2846 11 6.64964 10.3981 6.59701 9.6359Z" fill="white"/>
<path d="M12.9493 7.08887V7.08887C13.3623 7.08887 13.5687 7.08887 13.741 7.11925C14.5691 7.26525 15.2174 7.91355 15.3634 8.74157C15.3937 8.91389 15.3937 9.12036 15.3937 9.53331V11C15.3937 12.7993 15.3937 13.6989 14.8565 14.2751C14.8247 14.3091 14.7918 14.3421 14.7577 14.3738C14.1816 14.9111 13.2819 14.9111 11.4826 14.9111H10.5049C8.70557 14.9111 7.80593 14.9111 7.22975 14.3738C7.19571 14.3421 7.16279 14.3091 7.13104 14.2751C6.59375 13.6989 6.59375 12.7993 6.59375 11V9.53331C6.59375 9.12036 6.59375 8.91389 6.62413 8.74157C6.77014 7.91355 7.41843 7.26525 8.24645 7.11925C8.41877 7.08887 8.62525 7.08887 9.03819 7.08887V7.08887" stroke="white"/>
<path d="M9.04297 9.04441L10.9985 10.5111M10.9985 10.5111L12.9541 9.04441M10.9985 10.5111L10.9985 5.62219" stroke="white"/>
</svg>
