<svg width="150" height="25" viewBox="0 0 150 25" fill="none" xmlns="http://www.w3.org/2000/svg">
<path d="M8.2416 24.9132C6.64426 24.9132 5.22534 24.5223 3.98485 23.7491C2.74437 22.976 1.76727 21.9139 1.06206 20.5714C0.356853 19.229 0 17.6911 0 15.9578C0 14.2246 0.356853 12.8141 1.06206 11.5142C1.76727 10.2142 2.73587 9.19464 3.96786 8.45545C5.19985 7.71625 6.60177 7.34241 8.17362 7.34241C9.74548 7.34241 11.1049 7.68227 12.3284 8.37048C13.5434 9.0502 14.495 10.0018 15.1832 11.2083C15.863 12.4148 16.1858 13.7912 16.1433 15.3461C16.1433 15.5925 16.1348 15.8559 16.1094 16.1278C16.0839 16.3997 16.0669 16.697 16.0414 17.0199H2.81234C2.85482 18.0905 3.11821 19.0336 3.60251 19.8577C4.07832 20.6819 4.71555 21.3191 5.49723 21.7864C6.27891 22.2538 7.17954 22.4832 8.18212 22.4832C9.49908 22.4832 10.6206 22.2368 11.5467 21.7355C12.4728 21.2342 13.1356 20.5205 13.5434 19.5858L15.761 20.478C15.0813 21.9139 14.0872 23.0099 12.7872 23.7746C11.4873 24.5393 9.97488 24.9216 8.2416 24.9216V24.9132ZM13.331 14.8023C13.3565 13.8252 13.1441 12.9586 12.7023 12.2024C12.2604 11.4547 11.6402 10.86 10.8415 10.4266C10.0429 9.99331 9.12523 9.7809 8.07167 9.7809C7.16254 9.7809 6.32989 9.99331 5.5822 10.4266C4.8345 10.86 4.20576 11.4547 3.72146 12.2194C3.22867 12.9841 2.93979 13.8422 2.84632 14.8023H13.331Z" fill="url(#paint0_linear_389_3349)"/>
<path d="M29.016 0.765747C30.9532 0.765747 32.5505 1.1056 33.8165 1.77683C35.0825 2.44805 36.0256 3.34868 36.6543 4.47871C37.2831 5.60874 37.5974 6.83224 37.5974 8.14919C37.5974 9.04133 37.436 9.91647 37.1216 10.8001C36.7988 11.6752 36.2975 12.4739 35.6178 13.1876C34.938 13.9013 34.0544 14.4791 32.9669 14.9124C31.8878 15.3457 30.5708 15.5581 29.0245 15.5581H23.7991V24.6834H19.1855V0.765747H29.0245H29.016ZM32.8734 8.14919C32.8734 7.07864 32.5505 6.22899 31.8963 5.58326C31.2421 4.93752 30.2395 4.62315 28.8715 4.62315H23.7821V11.6922H28.8715C29.7807 11.6922 30.5369 11.5478 31.1231 11.2674C31.7179 10.987 32.1512 10.5707 32.4401 10.0354C32.729 9.50014 32.8649 8.87139 32.8649 8.1407L32.8734 8.14919ZM31.6074 14.0288L38.0648 24.6919H32.9074L26.7219 14.0288H31.6074Z" fill="white"/>
<path d="M48.2776 24.9132C46.5698 24.9132 45.0659 24.5393 43.7659 23.7831C42.466 23.0354 41.4634 21.9819 40.7412 20.6394C40.0275 19.297 39.6621 17.7506 39.6621 15.9918C39.6621 14.2331 40.019 12.8141 40.7412 11.5142C41.4549 10.2142 42.4405 9.19464 43.6979 8.45545C44.9469 7.71625 46.3828 7.34241 48.0057 7.34241C49.6285 7.34241 51.0899 7.69926 52.3474 8.40447C53.5964 9.10968 54.5735 10.0953 55.2702 11.3612C55.9669 12.6272 56.3152 14.0971 56.3152 15.7879C56.3152 16.0343 56.2982 16.3147 56.2643 16.6291C56.2303 16.9349 56.1878 17.2578 56.1453 17.6062H44.3947C44.4881 18.3369 44.7175 18.9571 45.0914 19.4669C45.4652 19.9767 45.9325 20.376 46.4933 20.6649C47.0541 20.9538 47.6828 21.0897 48.388 21.0897C49.2292 21.0897 49.9853 20.9198 50.6566 20.5799C51.3278 20.2401 51.8121 19.7728 52.1095 19.178L55.9669 20.342C55.2872 21.8034 54.2676 22.925 52.9251 23.7236C51.5827 24.5223 50.0363 24.9216 48.2776 24.9216V24.9132ZM51.5232 14.4285C51.4977 13.7912 51.3278 13.2135 51.0134 12.7037C50.6906 12.1939 50.2742 11.7946 49.7474 11.5057C49.2207 11.2253 48.6429 11.0809 48.0057 11.0809C47.4364 11.0809 46.9011 11.2253 46.3998 11.5057C45.8985 11.7946 45.4737 12.1854 45.1169 12.6867C44.76 13.188 44.5306 13.7658 44.4201 14.4285H51.5232Z" fill="white"/>
<path d="M59.6191 6.0592C59.6191 4.58081 59.891 3.3743 60.4263 2.43969C60.9616 1.50507 61.7603 0.833856 62.8138 0.426025C63.8759 0.0181931 65.2013 -0.100759 66.7902 0.0861637V3.94357C65.7876 3.80763 65.0739 3.94357 64.6576 4.3514C64.2327 4.75923 64.0288 5.39647 64.0288 6.26311V7.59706H66.9686V11.4545H64.0288V24.675H59.6191V11.4545H57.6055V7.59706H59.6191V6.0592Z" fill="white"/>
<path d="M76.6389 24.9132C74.9311 24.9132 73.4272 24.5393 72.1272 23.7831C70.8273 23.0354 69.8247 21.9819 69.1025 20.6394C68.3888 19.297 68.0234 17.7506 68.0234 15.9918C68.0234 14.2331 68.3803 12.8141 69.1025 11.5142C69.8162 10.2142 70.8018 9.19464 72.0593 8.45545C73.3083 7.71625 74.7442 7.34241 76.367 7.34241C77.9898 7.34241 79.4512 7.69926 80.7087 8.40447C81.9577 9.10968 82.9348 10.0953 83.6315 11.3612C84.3282 12.6272 84.6766 14.0971 84.6766 15.7879C84.6766 16.0343 84.6596 16.3147 84.6256 16.6291C84.5916 16.9349 84.5491 17.2578 84.5066 17.6062H72.756C72.8494 18.3369 73.0788 18.9571 73.4527 19.4669C73.8265 19.9767 74.2938 20.376 74.8546 20.6649C75.4154 20.9538 76.0441 21.0897 76.7493 21.0897C77.5905 21.0897 78.3467 20.9198 79.0179 20.5799C79.6891 20.2401 80.1734 19.7728 80.4708 19.178L84.3282 20.342C83.6485 21.8034 82.6289 22.925 81.2865 23.7236C79.944 24.5223 78.3977 24.9216 76.6389 24.9216V24.9132ZM79.8845 14.4285C79.8591 13.7912 79.6891 13.2135 79.3748 12.7037C79.0519 12.1939 78.6356 11.7946 78.1088 11.5057C77.582 11.2253 77.0042 11.0809 76.367 11.0809C75.7977 11.0809 75.2624 11.2253 74.7612 11.5057C74.2599 11.7946 73.835 12.1854 73.4782 12.6867C73.1213 13.188 72.8919 13.7658 72.7815 14.4285H79.8845Z" fill="white"/>
<path d="M87.1569 7.59704H91.1163L91.4222 9.78064C91.898 9.18589 92.4418 8.70159 93.045 8.32774C93.6483 7.9539 94.311 7.69051 95.0417 7.53757C95.7724 7.39313 96.5371 7.41013 97.3272 7.58855V11.6924C96.7155 11.4884 96.0698 11.429 95.3985 11.5224C94.7273 11.6159 94.0986 11.8538 93.5208 12.2361C92.943 12.627 92.4587 13.1792 92.0849 13.8929C91.7111 14.6067 91.5241 15.5158 91.5241 16.6118V24.675H87.1484V7.59704H87.1569Z" fill="white"/>
<path d="M99.2819 7.59704H103.241L103.547 9.78064C104.023 9.18589 104.567 8.70159 105.17 8.32774C105.773 7.9539 106.436 7.69051 107.167 7.53757C107.897 7.39313 108.662 7.41013 109.452 7.58855V11.6924C108.84 11.4884 108.195 11.429 107.524 11.5224C106.852 11.6159 106.224 11.8538 105.646 12.2361C105.068 12.627 104.584 13.1792 104.21 13.8929C103.836 14.6067 103.649 15.5158 103.649 16.6118V24.675H99.2734V7.59704H99.2819Z" fill="white"/>
<path d="M121.458 24.6748L121.118 22.5932C120.549 23.2984 119.903 23.8592 119.19 24.267C118.476 24.6748 117.507 24.8787 116.301 24.8787C115.162 24.8787 114.168 24.6833 113.31 24.284C112.452 23.8847 111.789 23.3239 111.313 22.6102C110.838 21.8965 110.6 21.0468 110.6 20.0612C110.6 18.6253 111.118 17.4358 112.154 16.4927C113.191 15.5496 114.754 14.9464 116.853 14.7L121.127 14.2242V13.0261C121.127 12.5503 120.906 12.1 120.481 11.6922C120.048 11.2844 119.368 11.0805 118.433 11.0805C117.609 11.0805 116.904 11.2759 116.301 11.6752C115.697 12.0745 115.29 12.6693 115.086 13.468L111.33 12.1C111.789 10.5707 112.647 9.39815 113.93 8.58248C115.205 7.75832 116.777 7.35049 118.646 7.35049C120.923 7.35049 122.639 7.91126 123.786 9.04129C124.933 10.1713 125.511 11.6582 125.511 13.502V24.6748H121.484H121.458ZM121.118 17.2659L117.431 17.7417C116.683 17.8352 116.105 18.0561 115.723 18.4044C115.332 18.7613 115.145 19.1861 115.145 19.6874C115.145 20.1887 115.341 20.571 115.723 20.9024C116.114 21.2338 116.658 21.3952 117.363 21.3952C118.161 21.3952 118.841 21.2508 119.393 20.9534C119.954 20.656 120.379 20.2227 120.676 19.6534C120.974 19.0841 121.118 18.3789 121.118 17.5378V17.2659Z" fill="white"/>
<path d="M128.629 0.0775146H133.005V24.6749H128.629V0.0775146Z" fill="white"/>
<path d="M139.428 19.11C139.564 19.6793 139.802 20.1126 140.125 20.41C140.456 20.7074 140.83 20.9198 141.255 21.0387C141.68 21.1662 142.104 21.2256 142.538 21.2256C143.336 21.2256 143.965 21.0727 144.415 20.7668C144.874 20.461 145.095 20.0701 145.095 19.5858C145.095 19.178 144.934 18.8551 144.619 18.6087C144.296 18.3708 143.897 18.1839 143.404 18.048C142.912 17.912 142.393 17.7846 141.85 17.6741C141.238 17.5127 140.584 17.3343 139.887 17.1473C139.19 16.9519 138.536 16.6715 137.924 16.3062C137.312 15.9408 136.803 15.465 136.403 14.8873C136.004 14.3095 135.809 13.5703 135.809 12.6867C135.809 11.6161 136.097 10.69 136.667 9.89983C137.236 9.10966 138.035 8.49791 139.071 8.0391C140.108 7.58029 141.306 7.35938 142.674 7.35938C144.288 7.35938 145.656 7.69923 146.777 8.38745C147.891 9.06717 148.698 10.0528 149.199 11.3272L145.376 12.4233C145.24 12.1004 145.036 11.8455 144.764 11.6331C144.492 11.4292 144.169 11.2763 143.787 11.1913C143.404 11.1063 143.031 11.0553 142.64 11.0553C141.977 11.0553 141.433 11.1828 141 11.4462C140.567 11.7096 140.354 12.0664 140.354 12.5252C140.354 12.7971 140.431 13.018 140.592 13.188C140.753 13.3579 140.974 13.5023 141.255 13.6128C141.535 13.7232 141.867 13.8252 142.249 13.9187C142.631 14.0121 143.039 14.1141 143.498 14.2245C144.203 14.4115 144.917 14.6154 145.63 14.8533C146.344 15.0912 147.007 15.3971 147.61 15.7624C148.213 16.1278 148.698 16.6121 149.063 17.2323C149.428 17.844 149.632 18.6257 149.675 19.5518C149.675 20.5544 149.386 21.4636 148.817 22.2707C148.247 23.0779 147.423 23.7236 146.353 24.1994C145.282 24.6752 143.982 24.9131 142.461 24.9131C140.685 24.9131 139.173 24.5393 137.933 23.7831C136.692 23.0354 135.876 21.8629 135.494 20.2655L139.42 19.1015L139.428 19.11Z" fill="white"/>
<defs>
<linearGradient id="paint0_linear_389_3349" x1="-11.9036" y1="33.5031" x2="24.3594" y2="2.42293" gradientUnits="userSpaceOnUse">
<stop stop-color="#67DE7F"/>
<stop offset="1" stop-color="#4699F7"/>
</linearGradient>
</defs>
</svg>
