<svg width="22" height="22" viewBox="0 0 22 22" fill="none" xmlns="http://www.w3.org/2000/svg">
<circle cx="11" cy="11" r="11" fill="black"/>
<path d="M5.86328 10.2667C5.86328 9.70196 5.86328 9.41961 5.91991 9.18673C6.09661 8.46001 6.66402 7.8926 7.39074 7.7159C7.62362 7.65927 7.90597 7.65927 8.47069 7.65927H8.52685C8.8311 7.65927 8.98323 7.65927 9.12728 7.68035C9.51621 7.73728 9.87975 7.90755 10.1725 8.16989C10.2809 8.26706 10.3783 8.38393 10.5731 8.61766L11.404 9.61483H12.0559C12.9252 9.61483 13.3599 9.61483 13.7059 9.74767C14.2351 9.9508 14.6532 10.3689 14.8564 10.8981C14.9892 11.2441 14.9892 11.6788 14.9892 12.5482C14.9892 13.4175 14.9892 13.8522 14.8564 14.1982C14.6532 14.7274 14.2351 15.1455 13.7059 15.3487C13.3599 15.4815 12.9252 15.4815 12.0559 15.4815H11.0781C9.94867 15.4815 9.38395 15.4815 8.91819 15.3682C7.46476 15.0148 6.32995 13.88 5.97653 12.4266C5.86328 11.9608 5.86328 11.3961 5.86328 10.2667Z" fill="white"/>
<path d="M8.46875 7.00742V10.8741C8.46875 11.9787 9.36418 12.8741 10.4688 12.8741H15.6391" stroke="black"/>
<path d="M8.46875 7.71541C8.46875 7.09833 8.46875 6.78978 8.53627 6.53657C8.72081 5.84447 9.26137 5.30391 9.95347 5.11937C10.2067 5.05185 10.5152 5.05185 11.1323 5.05185C11.4366 5.05185 11.5887 5.05185 11.7327 5.07293C12.1217 5.12986 12.4852 5.30013 12.7779 5.56247C12.8864 5.65964 12.9837 5.77651 13.1785 6.01024L14.0095 7.00741H14.6613C15.5307 7.00741 15.9654 7.00741 16.3114 7.14024C16.8406 7.34337 17.2587 7.7615 17.4618 8.29067C17.5947 8.63673 17.5947 9.0714 17.5947 9.94074C17.5947 10.8101 17.5947 11.2448 17.4618 11.5908C17.2587 12.12 16.8406 12.5381 16.3114 12.7412C15.9654 12.8741 15.5307 12.8741 14.6613 12.8741H11.6688C10.5486 12.8741 9.98859 12.8741 9.56077 12.6561C9.18444 12.4643 8.87848 12.1584 8.68674 11.7821C8.46875 11.3542 8.46875 10.7942 8.46875 9.67407V7.71541Z" fill="white"/>
</svg>
