<svg width="22" height="22" viewBox="0 0 22 22" fill="none" xmlns="http://www.w3.org/2000/svg">
<circle cx="11" cy="11" r="11" fill="black"/>
<path fill-rule="evenodd" clip-rule="evenodd" d="M11 16C13.7614 16 16 13.7614 16 11C16 8.23858 13.7614 6 11 6C8.23858 6 6 8.23858 6 11C6 13.7614 8.23858 16 11 16ZM13.9904 9.97352C14.344 9.54924 14.2867 8.91868 13.8624 8.56511C13.4381 8.21155 12.8076 8.26887 12.454 8.69315L11.0783 10.344C10.7316 10.7601 10.5366 10.9904 10.381 11.132L10.3751 11.1374L10.3687 11.1325C10.2009 11.0057 9.9859 10.7939 9.60294 10.4109L9.48488 10.2929C9.09436 9.90237 8.4612 9.90237 8.07067 10.2929C7.68015 10.6834 7.68015 11.3166 8.07067 11.7071L8.18873 11.8252L8.22954 11.866C8.55604 12.1926 8.87014 12.5068 9.16238 12.7278C9.48975 12.9754 9.91846 13.2081 10.4679 13.1832C11.0173 13.1583 11.4232 12.8876 11.7268 12.6115C11.9978 12.365 12.2822 12.0236 12.5777 11.6688L12.5778 11.6688L12.6147 11.6244L13.9904 9.97352Z" fill="white"/>
</svg>
