<svg xmlns="http://www.w3.org/2000/svg" width="22" height="22" viewBox="0 0 22 22" fill="none">
<circle cx="11" cy="11" r="11" fill="black"/>
<path fill-rule="evenodd" clip-rule="evenodd" d="M16 11C16 13.7614 13.7614 16 11 16C8.23858 16 6 13.7614 6 11C6 8.23858 8.23858 6 11 6C13.7614 6 16 8.23858 16 11ZM8.07067 13.9293C7.68015 13.5388 7.68015 12.9056 8.07067 12.5151L9.58579 11L8.07067 9.48488C7.68015 9.09436 7.68015 8.46119 8.07067 8.07067C8.46119 7.68015 9.09436 7.68015 9.48488 8.07067L11 9.58579L12.5151 8.07067C12.9056 7.68015 13.5388 7.68015 13.9293 8.07067C14.3199 8.46119 14.3199 9.09436 13.9293 9.48488L12.4142 11L13.9293 12.5151C14.3199 12.9056 14.3199 13.5388 13.9293 13.9293C13.5388 14.3199 12.9056 14.3199 12.5151 13.9293L11 12.4142L9.48488 13.9293C9.09436 14.3199 8.4612 14.3199 8.07067 13.9293Z" fill="white"/>
</svg>