<svg width="29" height="28" viewBox="0 0 29 28" fill="none" xmlns="http://www.w3.org/2000/svg">
<rect x="0.5" width="28" height="28" rx="14" fill="black"/>
<path d="M11.9107 15.1439L14.6581 17.0088C15.0608 17.2821 15.6018 17.2259 15.9396 16.8756L21.5547 11.0525" stroke="white" stroke-width="2" stroke-linecap="round"/>
<path fill-rule="evenodd" clip-rule="evenodd" d="M15.2182 14.2075L17.6287 11.2613C17.9784 10.8339 17.9154 10.2039 17.488 9.85412C17.0605 9.5044 16.4305 9.5674 16.0808 9.99484L13.6817 12.9271L15.2182 14.2075ZM11.9892 18.0253L10.0769 16.4317C9.66927 16.092 9.39713 15.6501 9.26671 15.1744L9.04147 15.0055C8.59964 14.6741 7.97284 14.7637 7.64147 15.2055C7.31009 15.6473 7.39964 16.2741 7.84146 16.6055L9.66326 17.9718C10.3633 18.4969 11.2997 18.4952 11.9892 18.0253Z" fill="white"/>
</svg>
