<svg width="31" height="30" viewBox="0 0 31 30" fill="none" xmlns="http://www.w3.org/2000/svg">
<g id="Group 118">
<circle id="Ellipse 91" cx="15.5" cy="15" r="15" fill="black"/>
<g id="Group 117">
<path id="Intersect" fill-rule="evenodd" clip-rule="evenodd" d="M8.00004 13.9975C8 14.0931 8 14.1905 8 14.2896V16.5001C8 19.3285 8 20.7427 8.87868 21.6214C9.75736 22.5001 11.1716 22.5001 14 22.5001H16.9997C19.8281 22.5001 21.2423 22.5001 22.121 21.6214C22.9997 20.7427 22.9997 19.3285 22.9997 16.5001V14.2896C22.9997 14.1444 22.9997 14.0029 22.9996 13.8651C22.9995 14.1748 22.9985 14.3362 22.9787 14.4726C22.8511 15.3481 22.1634 16.0358 21.2879 16.1634C21.1445 16.1843 20.9734 16.1843 20.6311 16.1843H19.9226C19.5567 16.1843 19.3738 16.1843 19.2155 16.2388C19.035 16.301 18.8761 16.4135 18.7575 16.5632C18.6535 16.6944 18.5928 16.867 18.4713 17.2121L18.4163 17.3685C18.2416 17.8651 18.1542 18.1134 17.9778 18.28C17.9097 18.3442 17.8329 18.3986 17.7497 18.4415C17.534 18.5527 17.2708 18.5527 16.7443 18.5527H14.2551C13.7286 18.5527 13.4654 18.5527 13.2498 18.4415C13.1665 18.3986 13.0898 18.3442 13.0217 18.28C12.8452 18.1134 12.7579 17.8651 12.5831 17.3685L12.5281 17.2121C12.4067 16.867 12.346 16.6944 12.2419 16.5632C12.1234 16.4135 11.9645 16.301 11.784 16.2388C11.6257 16.1843 11.4427 16.1843 11.0768 16.1843H10.3683C10.0261 16.1843 9.85495 16.1843 9.71154 16.1634C8.83601 16.0358 8.14834 15.3481 8.02078 14.4726C8.00395 14.3571 8.00068 14.2237 8.00004 13.9975Z" fill="white"/>
<path id="Rectangle 3" d="M18.8333 10H19C20.8856 10 21.8284 10 22.4142 10.5858C23 11.1716 23 12.1144 23 14V18.5C23 20.3856 23 21.3284 22.4142 21.9142C21.8284 22.5 20.8856 22.5 19 22.5H12C10.1144 22.5 9.17157 22.5 8.58579 21.9142C8 21.3284 8 20.3856 8 18.5V14C8 12.1144 8 11.1716 8.58579 10.5858C9.17157 10 10.1144 10 12 10H12.1667" stroke="white" stroke-linecap="round" stroke-linejoin="round"/>
<path id="Vector 9" d="M11.75 12.75L15.5 15M15.5 15L19.25 12.75M15.5 15L15.5 7.5" stroke="white" stroke-linecap="round" stroke-linejoin="round"/>
</g>
</g>
</svg>
