<svg width="31" height="30" viewBox="0 0 31 30" fill="none" xmlns="http://www.w3.org/2000/svg">
<g id="Group 115">
<circle id="Ellipse 89" cx="15.5" cy="15" r="15" fill="black"/>
<path id="Subtract" fill-rule="evenodd" clip-rule="evenodd" d="M20.3519 13.3202L21.7595 11.9126L21.7595 11.9126C22.0182 11.6539 22.1476 11.5245 22.239 11.3993C22.752 10.6967 22.752 9.74305 22.239 9.04045C22.1476 8.91527 22.0182 8.7859 21.7595 8.52715C21.5007 8.26841 21.3713 8.13903 21.2462 8.04763C20.5436 7.53458 19.5899 7.53458 18.8873 8.04763C18.7621 8.13903 18.6327 8.26841 18.374 8.52716L16.9468 9.95436C17.7568 11.3557 18.9315 12.5212 20.3519 13.3202ZM15.4922 11.4089L9.92029 16.9808C9.49523 17.4059 9.2827 17.6184 9.14297 17.8795C9.00323 18.1406 8.94429 18.4353 8.8264 19.0248L8.36463 21.3336C8.29811 21.6662 8.26485 21.8325 8.35946 21.9272C8.45407 22.0218 8.62037 21.9885 8.95298 21.922L11.2618 21.4602C11.8513 21.3423 12.146 21.2834 12.4071 21.1436C12.6682 21.0039 12.8807 20.7914 13.3058 20.3663L18.8936 14.7785C17.5243 13.9149 16.3641 12.7627 15.4922 11.4089Z" fill="white"/>
</g>
</svg>
