<svg width="263" height="53" viewBox="0 0 263 53" fill="none" xmlns="http://www.w3.org/2000/svg">
<path d="M13.768 40.7835C11.0996 40.7835 8.72923 40.1306 6.65692 38.8389C4.58462 37.5473 2.95232 35.7731 1.77423 33.5304C0.596142 31.2878 0 28.7187 0 25.8232C0 22.9276 0.596142 20.5714 1.77423 18.3998C2.95232 16.2281 4.57042 14.5249 6.62853 13.29C8.68664 12.0551 11.0286 11.4306 13.6545 11.4306C16.2804 11.4306 18.5514 11.9984 20.5953 13.1481C22.625 14.2836 24.2147 15.8733 25.3644 17.8888C26.4999 19.9043 27.0393 22.2037 26.9683 24.8012C26.9683 25.2128 26.9541 25.6528 26.9116 26.1071C26.869 26.5613 26.8406 27.058 26.798 27.5974H4.69817C4.76914 29.3858 5.20915 30.9614 6.0182 32.3382C6.81305 33.715 7.87759 34.7795 9.18343 35.5602C10.4893 36.3408 11.9938 36.7241 13.6687 36.7241C15.8687 36.7241 17.7423 36.3124 19.2895 35.475C20.8366 34.6376 21.9437 33.4453 22.625 31.884L26.3296 33.3743C25.1941 35.7731 23.5334 37.6041 21.3618 38.8815C19.1901 40.159 16.6636 40.7977 13.768 40.7977V40.7835ZM22.2702 23.8928C22.3128 22.2605 21.9579 20.8127 21.2198 19.5495C20.4817 18.3004 19.4456 17.3069 18.1114 16.583C16.7771 15.8591 15.2442 15.5042 13.4842 15.5042C11.9654 15.5042 10.5744 15.8591 9.32537 16.583C8.07631 17.3069 7.02596 18.3004 6.21691 19.5779C5.39367 20.8553 4.91108 22.2889 4.75494 23.8928H22.2702Z" fill="white"/>
<path d="M245.05 31.515C245.323 32.6065 245.791 33.4445 246.453 34.0292C247.155 34.6139 247.915 35.0232 248.734 35.2571C249.552 35.452 250.332 35.5494 251.073 35.5494C252.593 35.5494 253.782 35.2571 254.639 34.6724C255.536 34.0487 255.984 33.2691 255.984 32.3336C255.984 31.554 255.692 30.9498 255.107 30.5211C254.522 30.0923 253.762 29.761 252.827 29.5271C251.93 29.2542 250.995 28.9814 250.02 28.7085C248.968 28.4356 247.837 28.1238 246.629 27.773C245.459 27.4222 244.349 26.9349 243.296 26.3113C242.244 25.6876 241.386 24.8885 240.723 23.914C240.061 22.9395 239.729 21.7311 239.729 20.2889C239.729 18.4569 240.236 16.8782 241.25 15.5529C242.263 14.1886 243.647 13.1361 245.401 12.3955C247.155 11.6549 249.124 11.2846 251.306 11.2846C253.918 11.2846 256.179 11.8303 258.089 12.9218C259.999 14.0132 261.383 15.6113 262.24 17.7162L256.452 19.5873C256.179 19.0416 255.77 18.5738 255.224 18.184C254.717 17.7942 254.093 17.5213 253.353 17.3654C252.651 17.1705 251.93 17.0731 251.189 17.0731C249.942 17.0731 248.89 17.3264 248.032 17.8332C247.175 18.3399 246.746 19.061 246.746 19.9966C246.746 20.4643 246.882 20.8736 247.155 21.2244C247.467 21.5752 247.876 21.8676 248.383 22.1015C248.89 22.2964 249.494 22.4913 250.196 22.6862C250.897 22.8421 251.638 23.037 252.417 23.2708C253.665 23.6217 254.893 24.0115 256.101 24.4402C257.348 24.83 258.479 25.3368 259.492 25.9604C260.545 26.5841 261.363 27.4027 261.948 28.4162C262.572 29.4296 262.922 30.716 263 32.2751C263 33.9513 262.513 35.491 261.539 36.8942C260.564 38.2585 259.161 39.3499 257.329 40.1685C255.536 40.9481 253.392 41.3379 250.897 41.3379C248.013 41.3379 245.537 40.7142 243.472 39.4669C241.406 38.2195 240.002 36.2121 239.262 33.4445L245.05 31.515Z" fill="white"/>
<path d="M223.343 11.694V3.5083H230.067V11.694H236.908V17.4825H230.067V30.4627C230.067 32.2168 230.398 33.4447 231.061 34.1463C231.723 34.8089 232.581 35.1793 233.633 35.2572C234.725 35.2962 235.816 35.2377 236.908 35.0818V40.6949C235.232 41.0457 233.575 41.1431 231.938 40.9872C230.34 40.8703 228.897 40.4415 227.611 39.7009C226.325 38.9213 225.292 37.7909 224.512 36.3097C223.733 34.8284 223.343 32.8795 223.343 30.4627V17.4825H219.25V11.694H223.343Z" fill="white"/>
<path d="M199.05 31.515C199.323 32.6065 199.791 33.4445 200.453 34.0292C201.155 34.6139 201.915 35.0232 202.734 35.2571C203.552 35.452 204.332 35.5494 205.073 35.5494C206.593 35.5494 207.782 35.2571 208.639 34.6724C209.536 34.0487 209.984 33.2691 209.984 32.3336C209.984 31.554 209.692 30.9498 209.107 30.5211C208.522 30.0923 207.762 29.761 206.827 29.5271C205.93 29.2542 204.995 28.9814 204.02 28.7085C202.968 28.4356 201.837 28.1238 200.629 27.773C199.459 27.4222 198.349 26.9349 197.296 26.3113C196.244 25.6876 195.386 24.8885 194.723 23.914C194.061 22.9395 193.729 21.7311 193.729 20.2889C193.729 18.4569 194.236 16.8782 195.25 15.5529C196.263 14.1886 197.647 13.1361 199.401 12.3955C201.155 11.6549 203.124 11.2846 205.306 11.2846C207.918 11.2846 210.179 11.8303 212.089 12.9218C213.999 14.0132 215.383 15.6113 216.24 17.7162L210.452 19.5873C210.179 19.0416 209.77 18.5738 209.224 18.184C208.717 17.7942 208.093 17.5213 207.353 17.3654C206.651 17.1705 205.93 17.0731 205.189 17.0731C203.942 17.0731 202.89 17.3264 202.032 17.8332C201.175 18.3399 200.746 19.061 200.746 19.9966C200.746 20.4643 200.882 20.8736 201.155 21.2244C201.467 21.5752 201.876 21.8676 202.383 22.1015C202.89 22.2964 203.494 22.4913 204.196 22.6862C204.897 22.8421 205.638 23.037 206.417 23.2708C207.665 23.6217 208.893 24.0115 210.101 24.4402C211.348 24.83 212.479 25.3368 213.492 25.9604C214.545 26.5841 215.363 27.4027 215.948 28.4162C216.572 29.4296 216.922 30.716 217 32.2751C217 33.9513 216.513 35.491 215.539 36.8942C214.564 38.2585 213.161 39.3499 211.329 40.1685C209.536 40.9481 207.392 41.3379 204.897 41.3379C202.013 41.3379 199.537 40.7142 197.472 39.4669C195.406 38.2195 194.002 36.2121 193.262 33.4445L199.05 31.515Z" fill="white"/>
<path d="M176.863 41.3379C173.94 41.3379 171.367 40.6947 169.145 39.4084C166.963 38.1221 165.247 36.329 164 34.0292C162.792 31.7294 162.188 29.0788 162.188 26.0774C162.188 23.2319 162.792 20.6982 164 18.4763C165.208 16.2545 166.885 14.5004 169.028 13.2141C171.172 11.9278 173.609 11.2846 176.337 11.2846C179.105 11.2846 181.541 11.8888 183.646 13.0972C185.751 14.3055 187.388 16.0011 188.557 18.184C189.766 20.3279 190.37 22.8226 190.37 25.6681C190.37 26.1358 190.35 26.6426 190.311 27.1883C190.272 27.695 190.214 28.2407 190.136 28.8254H169.321C169.516 30.1897 169.944 31.3786 170.607 32.3921C171.309 33.3666 172.186 34.1267 173.238 34.6724C174.291 35.2181 175.499 35.491 176.863 35.491C178.5 35.491 179.962 35.1596 181.249 34.497C182.574 33.8343 183.49 32.9573 183.997 31.8659L189.785 33.7953C188.616 36.1341 186.881 37.9857 184.581 39.3499C182.281 40.6753 179.709 41.3379 176.863 41.3379ZM183.178 23.4463C183.139 22.2379 182.808 21.1465 182.184 20.172C181.56 19.1975 180.742 18.4374 179.728 17.8917C178.715 17.307 177.584 17.0146 176.337 17.0146C175.246 17.0146 174.213 17.2875 173.238 17.8332C172.264 18.3789 171.426 19.139 170.724 20.1135C170.061 21.049 169.633 22.1599 169.438 23.4463H183.178Z" fill="white"/>
<path d="M157.825 40.9286H151.744L151.335 38.0052C150.36 39.0576 149.191 39.8762 147.827 40.4609C146.462 41.0456 145.02 41.3379 143.5 41.3379C141.2 41.3379 139.212 40.8702 137.536 39.9347C135.899 38.9602 134.632 37.5569 133.735 35.7249C132.839 33.8538 132.391 31.554 132.391 28.8255V11.6939H138.998V27.9484C138.998 30.3652 139.485 32.2167 140.459 33.503C141.434 34.7504 142.935 35.374 144.962 35.374C146.911 35.374 148.431 34.7504 149.522 33.503C150.653 32.2167 151.218 30.3262 151.218 27.8315V11.6939H157.825V40.9286Z" fill="white"/>
<path d="M120.955 36.6019C120.019 37.9272 118.694 39.0576 116.979 39.9931C115.264 40.8896 113.256 41.3379 110.957 41.3379C108.345 41.3379 106.045 40.7142 104.057 39.4669C102.108 38.2195 100.588 36.4655 99.4965 34.2046C98.4051 31.9438 97.8594 29.3127 97.8594 26.3113C97.8594 23.2708 98.4051 20.6397 99.4965 18.4179C100.588 16.1571 102.108 14.403 104.057 13.1556C106.045 11.9083 108.345 11.2846 110.957 11.2846C113.1 11.2846 114.952 11.6744 116.511 12.454C118.07 13.2336 119.357 14.1886 120.37 15.319L120.838 11.6939H126.802V52.6225H120.195V36.4265L120.955 36.6019ZM104.934 26.3113C104.934 29.0009 105.636 31.1837 107.039 32.8598C108.442 34.536 110.274 35.374 112.535 35.374C113.899 35.374 115.147 35.0232 116.277 34.3216C117.447 33.6199 118.382 32.6065 119.084 31.2812C119.824 29.9169 120.195 28.2602 120.195 26.3113C120.195 24.3233 119.824 22.6667 119.084 21.3414C118.382 20.016 117.447 19.0026 116.277 18.3009C115.147 17.5993 113.899 17.2485 112.535 17.2485C110.274 17.2485 108.442 18.0866 107.039 19.7627C105.636 21.4388 104.934 23.6217 104.934 26.3113Z" fill="white"/>
<path d="M81.461 41.3379C78.5375 41.3379 75.9649 40.6947 73.743 39.4084C71.5602 38.1221 69.8451 36.329 68.5977 34.0292C67.3893 31.7294 66.7852 29.0788 66.7852 26.0774C66.7852 23.2319 67.3893 20.6982 68.5977 18.4763C69.8061 16.2545 71.4822 14.5004 73.6261 13.2141C75.77 11.9278 78.2062 11.2846 80.9348 11.2846C83.7023 11.2846 86.1385 11.8888 88.2434 13.0972C90.3483 14.3055 91.9855 16.0011 93.1549 18.184C94.3632 20.3279 94.9674 22.8226 94.9674 25.6681C94.9674 26.1358 94.9479 26.6426 94.909 27.1883C94.87 27.695 94.8115 28.2407 94.7336 28.8254H73.9184C74.1133 30.1897 74.5421 31.3786 75.2048 32.3921C75.9064 33.3666 76.7834 34.1267 77.8359 34.6724C78.8883 35.2181 80.0967 35.491 81.461 35.491C83.0981 35.491 84.5599 35.1596 85.8462 34.497C87.1715 33.8343 88.0875 32.9573 88.5943 31.8659L94.3827 33.7953C93.2134 36.1341 91.4788 37.9857 89.179 39.3499C86.8792 40.6753 84.3065 41.3379 81.461 41.3379ZM87.7757 23.4463C87.7367 22.2379 87.4054 21.1465 86.7817 20.172C86.158 19.1975 85.3395 18.4374 84.326 17.8917C83.3125 17.307 82.1821 17.0146 80.9348 17.0146C79.8433 17.0146 78.8104 17.2875 77.8359 17.8332C76.8614 18.3789 76.0233 19.139 75.3217 20.1135C74.659 21.049 74.2303 22.1599 74.0354 23.4463H87.7757Z" fill="white"/>
<path d="M56.1142 12.3371C56.1142 10.3101 55.51 8.71195 54.3017 7.54256C53.0933 6.37317 51.2223 5.78848 48.6886 5.78848H39.6258V18.9441H48.6886C50.4037 18.9441 51.7875 18.6907 52.8399 18.184C53.9314 17.6383 54.7499 16.8782 55.2956 15.9037C55.8414 14.8902 56.1142 13.7013 56.1142 12.3371ZM48.6886 0C51.9629 0 54.6525 0.565205 56.7574 1.69562C58.9013 2.78705 60.4994 4.28776 61.5519 6.19776C62.6043 8.06878 63.1306 10.1152 63.1306 12.3371C63.1306 13.8183 62.8772 15.28 62.3705 16.7223C61.8637 18.1645 61.0451 19.5093 59.9147 20.7567C58.7843 21.965 57.2836 22.9395 55.4126 23.6801C53.5805 24.3818 51.3392 24.7326 48.6886 24.7326H39.6258V40.9286H32.668V0H48.6886ZM52.8399 22.4523L64.0076 40.9286H56.1727L45.4143 22.4523H52.8399Z" fill="white"/>
</svg>
