<svg width="270" height="44" viewBox="0 0 270 44" fill="none" xmlns="http://www.w3.org/2000/svg">
<path d="M13.8714 43.333C11.1429 43.333 8.72857 42.6805 6.64286 41.3611C4.55714 40.049 2.92858 38.2349 1.75715 35.926C0.585719 33.6172 0 30.9498 0 27.9383C0 25.0773 0.592857 22.5318 1.78571 20.3018C2.97857 18.0719 4.60715 16.3151 6.67144 15.046C8.73572 13.7768 11.1 13.1387 13.7571 13.1387C16.4143 13.1387 18.7 13.7195 20.75 14.8739C22.8 16.0283 24.4 17.6201 25.55 19.635C26.7 21.6499 27.2571 23.9515 27.2143 26.54C27.2143 26.9344 27.2071 27.3503 27.1857 27.802C27.1643 28.2537 27.1357 28.7342 27.1 29.2433H3.62857C3.66429 31.3944 4.13572 33.2945 5.03572 34.9437C5.93572 36.5857 7.13572 37.8692 8.63572 38.7941C10.1357 39.7119 11.8429 40.1709 13.7571 40.1709C16.1786 40.1709 18.25 39.6689 19.9929 38.6723C21.7286 37.6756 22.9857 36.2558 23.7714 34.4131L26.6357 35.589C25.5429 38.0986 23.8857 40.0131 21.6643 41.3468C19.4429 42.6805 16.8429 43.3473 13.8786 43.3473L13.8714 43.333ZM23.5857 26.2962C23.6214 24.3387 23.2357 22.6179 22.4143 21.1264C21.5929 19.635 20.4357 18.4662 18.9286 17.5986C17.4286 16.7382 15.6571 16.308 13.6286 16.308C11.8357 16.308 10.2143 16.7382 8.77144 17.5986C7.32858 18.4591 6.15 19.6493 5.22858 21.1551C4.31429 22.6609 3.77143 24.3746 3.62143 26.2962H23.5786H23.5857Z" fill="white"/>
<path d="M50.8643 1.78809C54.1786 1.78809 56.9143 2.36888 59.0571 3.52331C61.2 4.67773 62.8214 6.22653 63.9143 8.16252C65.0071 10.0985 65.55 12.2066 65.55 14.4796C65.55 16.0069 65.2786 17.527 64.7286 19.0328C64.1786 20.5385 63.3214 21.9081 62.15 23.1485C60.9786 24.389 59.4643 25.3713 57.6143 26.117C55.7643 26.8628 53.5071 27.2356 50.8571 27.2356H41.9V42.9243H34V1.78809H50.8571H50.8643ZM57.4786 14.4796C57.4786 12.601 56.9214 11.1239 55.8143 10.0411C54.7 8.9656 52.9786 8.42782 50.6357 8.42782H41.9143V20.5887H50.6357C52.2357 20.5887 53.5357 20.3521 54.5286 19.886C55.5214 19.4128 56.2643 18.7101 56.75 17.7708C57.2357 16.8315 57.4786 15.7344 57.4786 14.4796ZM55.3143 24.5826L66.3786 42.9172H57.5429L46.95 24.5826H55.3214H55.3143Z" fill="white"/>
<path d="M85.3931 43.333C82.4288 43.333 79.8359 42.6876 77.6074 41.397C75.386 40.1063 73.6574 38.3066 72.4288 35.9905C71.2002 33.6817 70.5859 31.0143 70.5859 28.0028C70.5859 25.1418 71.2002 22.5964 72.4288 20.3664C73.6574 18.1364 75.3431 16.3725 77.4931 15.0747C79.6359 13.784 82.0931 13.1387 84.8645 13.1387C87.636 13.1387 90.1502 13.7338 92.3002 14.9313C94.4431 16.1287 96.1145 17.8209 97.3074 20.015C98.5002 22.2092 99.1145 24.7546 99.1502 27.6514C99.1502 28.0817 99.1217 28.5621 99.0645 29.0927C99.0074 29.6233 98.9217 30.1826 98.8002 30.7634H78.6645C78.8217 32.0182 79.2217 33.0866 79.8645 33.9685C80.5074 34.8505 81.3074 35.5388 82.2645 36.0264C83.2217 36.514 84.3217 36.7578 85.5717 36.7578C86.9788 36.7578 88.2502 36.4638 89.4074 35.8758C90.5574 35.2878 91.386 34.4848 91.8931 33.4666L98.5645 35.4026C97.3931 37.9122 95.6502 39.8554 93.3288 41.2464C91.0074 42.6375 88.3645 43.333 85.4002 43.333H85.3931ZM90.9502 25.2924C90.8717 24.1953 90.5574 23.2058 90.0145 22.3239C89.4645 21.4419 88.7574 20.7607 87.8788 20.266C87.0002 19.7784 85.9931 19.5346 84.8645 19.5346C83.886 19.5705 82.9717 19.8358 82.1145 20.3305C81.2574 20.8181 80.5217 21.4849 79.9217 22.331C79.3145 23.17 78.9145 24.1595 78.7217 25.2996H90.9502V25.2924Z" fill="white"/>
<path d="M106.291 10.9589C106.291 8.37043 106.741 6.26952 107.634 4.64185C108.534 3.01418 109.884 1.8741 111.698 1.20726C113.512 0.540418 115.784 0.346817 118.52 0.61929V7.25902C116.841 7.06543 115.634 7.30205 114.891 7.96172C114.148 8.62856 113.777 9.72562 113.777 11.2529V13.5474H118.812V20.1871H113.777V42.9243H106.284V20.1871H102.77V13.5474H106.284V10.9661L106.291 10.9589Z" fill="white"/>
<path d="M136.901 43.333C133.937 43.333 131.344 42.6876 129.115 41.397C126.894 40.1063 125.165 38.3066 123.937 35.9905C122.708 33.6817 122.094 31.0143 122.094 28.0028C122.094 25.1418 122.708 22.5964 123.937 20.3664C125.165 18.1364 126.851 16.3725 129.001 15.0747C131.144 13.784 133.601 13.1387 136.372 13.1387C139.144 13.1387 141.658 13.7338 143.808 14.9313C145.951 16.1287 147.622 17.8209 148.815 20.015C150.008 22.2092 150.622 24.7546 150.658 27.6514C150.658 28.0817 150.629 28.5621 150.572 29.0927C150.515 29.6233 150.429 30.1826 150.308 30.7634H130.172C130.329 32.0182 130.729 33.0866 131.372 33.9685C132.015 34.8505 132.815 35.5388 133.772 36.0264C134.729 36.514 135.829 36.7578 137.079 36.7578C138.487 36.7578 139.758 36.4638 140.915 35.8758C142.065 35.2878 142.894 34.4848 143.401 33.4666L150.072 35.4026C148.901 37.9122 147.158 39.8554 144.837 41.2464C142.515 42.6375 139.872 43.333 136.908 43.333H136.901ZM142.458 25.2924C142.379 24.1953 142.065 23.2058 141.522 22.3239C140.972 21.4419 140.265 20.7607 139.387 20.266C138.508 19.7784 137.501 19.5346 136.372 19.5346C135.394 19.5705 134.479 19.8358 133.622 20.3305C132.765 20.8181 132.029 21.4849 131.429 22.331C130.822 23.17 130.422 24.1595 130.229 25.2996H142.458V25.2924Z" fill="white"/>
<path d="M156.328 13.5401H163.178L163.65 17.3045C164.471 16.2863 165.392 15.4474 166.428 14.7805C167.464 14.1137 168.592 13.662 169.821 13.4325C171.05 13.1959 172.364 13.2389 173.771 13.5472V20.5383C172.757 20.2228 171.664 20.1511 170.492 20.3017C169.321 20.4594 168.235 20.8682 167.242 21.535C166.25 22.2018 165.428 23.1627 164.785 24.4103C164.142 25.6651 163.821 27.2139 163.821 29.0495V42.9169H156.328V13.5401Z" fill="white"/>
<path d="M178.57 13.5401H185.42L185.892 17.3045C186.713 16.2863 187.635 15.4474 188.67 14.7805C189.706 14.1137 190.835 13.662 192.063 13.4325C193.292 13.1959 194.606 13.2389 196.013 13.5472V20.5383C194.999 20.2228 193.906 20.1511 192.735 20.3017C191.563 20.4594 190.477 20.8682 189.485 21.535C188.492 22.2018 187.67 23.1627 187.027 24.4103C186.385 25.6651 186.063 27.2139 186.063 29.0495V42.9169H178.57V13.5401Z" fill="white"/>
<path d="M218.021 42.9169L217.435 39.3318C216.457 40.5866 215.357 41.5546 214.128 42.2429C212.9 42.9313 211.25 43.2683 209.185 43.2683C207.235 43.2683 205.528 42.9241 204.064 42.2429C202.6 41.5617 201.457 40.6009 200.643 39.3676C199.821 38.1343 199.414 36.6716 199.414 34.9937C199.414 32.5271 200.3 30.4764 202.078 28.8559C203.857 27.2282 206.535 26.2029 210.128 25.7727L217.443 25.0054V22.8902C217.443 22.0297 217.071 21.2553 216.328 20.567C215.585 19.8786 214.414 19.5416 212.814 19.5416C211.407 19.5416 210.193 19.8858 209.157 20.567C208.121 21.2553 207.428 22.2807 207.078 23.6502L200.585 21.2984C201.443 18.674 202.964 16.6592 205.15 15.2466C207.335 13.834 210.007 13.1313 213.171 13.1313C217.035 13.1313 219.957 14.1137 221.95 16.0712C223.943 18.0287 224.935 20.5742 224.935 23.7076V42.9169H218.028H218.021ZM217.435 30.2254L211.114 30.9281C209.785 31.1217 208.8 31.5233 208.157 32.1327C207.514 32.7422 207.193 33.4521 207.193 34.2767C207.193 35.1013 207.535 35.8542 208.214 36.4206C208.9 36.9871 209.821 37.2739 210.993 37.2739C212.357 37.2739 213.521 37.0301 214.478 36.5425C215.435 36.0549 216.164 35.3092 216.671 34.3125C217.178 33.3159 217.435 32.0897 217.435 30.6413V30.2326V30.2254Z" fill="white"/>
<path d="M231.77 0.619141H239.262V42.9241H231.77V0.619141Z" fill="white"/>
<path d="M251.727 33.3446C251.92 34.3269 252.313 35.0654 252.899 35.5745C253.484 36.0836 254.134 36.4493 254.863 36.6644C255.584 36.8795 256.313 36.9871 257.056 36.9871C258.42 36.9871 259.484 36.7218 260.249 36.1912C261.013 35.6606 261.391 35.0081 261.391 34.2193C261.391 33.4306 261.127 32.9072 260.599 32.5128C260.07 32.1256 259.377 31.8101 258.52 31.5735C257.663 31.3369 256.784 31.0859 255.884 30.8063C254.834 30.5696 253.699 30.29 252.492 29.953C251.284 29.6232 250.149 29.1427 249.099 28.5118C248.049 27.8879 247.177 27.0705 246.492 26.0738C245.806 25.0772 245.47 23.808 245.47 22.2807C245.47 20.4379 245.97 18.8318 246.963 17.4623C247.956 16.0927 249.341 15.0243 251.12 14.2571C252.899 13.4971 254.956 13.1099 257.292 13.1099C260.063 13.1099 262.406 13.6978 264.313 14.8738C266.227 16.0497 267.613 17.7347 268.47 19.9289L261.913 21.8075C261.677 21.2625 261.327 20.8108 260.856 20.4595C260.384 20.1081 259.82 19.85 259.156 19.6922C258.491 19.5345 257.849 19.4556 257.227 19.4556C256.099 19.4556 255.156 19.6851 254.42 20.1296C253.677 20.5814 253.306 21.2195 253.306 22.0369C253.306 22.4672 253.441 22.8328 253.713 23.1268C253.984 23.4208 254.363 23.6789 254.856 23.8941C255.342 24.1092 255.906 24.2884 256.556 24.4247C257.199 24.5609 257.892 24.7473 258.634 24.9839C259.884 25.2994 261.12 25.6508 262.349 26.0452C263.577 26.4395 264.706 26.9486 265.742 27.5724C266.777 28.2034 267.606 29.0424 268.227 30.0964C268.849 31.1576 269.199 32.4841 269.277 34.0903C269.277 35.8112 268.791 37.3815 267.813 38.794C266.834 40.2066 265.434 41.3108 263.599 42.1139C261.763 42.917 259.541 43.3185 256.927 43.3185C253.884 43.3185 251.299 42.6732 249.17 41.3825C247.042 40.0918 245.649 38.0555 244.984 35.2734L251.713 33.3374L251.727 33.3446Z" fill="white"/>
</svg>
