<svg width="11" height="13" viewBox="0 0 11 13" fill="none" xmlns="http://www.w3.org/2000/svg">
<path fill-rule="evenodd" clip-rule="evenodd" d="M5.67998 12.3871C6.90912 11.7327 10.5645 9.47705 10.5645 5.79476C10.5645 2.87745 8.19955 0.512512 5.28224 0.512512C2.36494 0.512512 0 2.87745 0 5.79476C0 9.47705 3.65537 11.7327 4.88451 12.3871C5.13595 12.521 5.42854 12.521 5.67998 12.3871ZM5.28224 8.05857C6.53252 8.05857 7.54606 7.04503 7.54606 5.79476C7.54606 4.54448 6.53252 3.53094 5.28224 3.53094C4.03197 3.53094 3.01842 4.54448 3.01842 5.79476C3.01842 7.04503 4.03197 8.05857 5.28224 8.05857Z" fill="white"/>
</svg>
