<svg width="19" height="21" viewBox="0 0 19 21" fill="none" xmlns="http://www.w3.org/2000/svg">
<g filter="url(#filter0_d_1834_3267)">
<mask id="path-1-inside-1_1834_3267" fill="white">
<path fill-rule="evenodd" clip-rule="evenodd" d="M9.67998 12.387C10.9091 11.7327 14.5645 9.47699 14.5645 5.79469C14.5645 2.87739 12.1995 0.512451 9.28224 0.512451C6.36494 0.512451 4 2.87739 4 5.79469C4 9.47699 7.65537 11.7327 8.88451 12.387C9.13595 12.5209 9.42854 12.5209 9.67998 12.387ZM9.28224 8.05851C10.5325 8.05851 11.5461 7.04497 11.5461 5.79469C11.5461 4.54442 10.5325 3.53088 9.28224 3.53088C8.03197 3.53088 7.01842 4.54442 7.01842 5.79469C7.01842 7.04497 8.03197 8.05851 9.28224 8.05851Z"/>
</mask>
<path fill-rule="evenodd" clip-rule="evenodd" d="M9.67998 12.387C10.9091 11.7327 14.5645 9.47699 14.5645 5.79469C14.5645 2.87739 12.1995 0.512451 9.28224 0.512451C6.36494 0.512451 4 2.87739 4 5.79469C4 9.47699 7.65537 11.7327 8.88451 12.387C9.13595 12.5209 9.42854 12.5209 9.67998 12.387ZM9.28224 8.05851C10.5325 8.05851 11.5461 7.04497 11.5461 5.79469C11.5461 4.54442 10.5325 3.53088 9.28224 3.53088C8.03197 3.53088 7.01842 4.54442 7.01842 5.79469C7.01842 7.04497 8.03197 8.05851 9.28224 8.05851Z" fill="white"/>
<path d="M9.67998 12.387L9.21003 11.5043L9.21003 11.5043L9.67998 12.387ZM8.88451 12.387L8.41457 13.2697L8.41457 13.2697L8.88451 12.387ZM13.5645 5.79469C13.5645 7.2834 12.8286 8.5321 11.8636 9.53186C10.8983 10.532 9.77873 11.2016 9.21003 11.5043L10.1499 13.2697C10.8104 12.9181 12.133 12.1327 13.3027 10.9208C14.4727 9.70856 15.5645 7.98828 15.5645 5.79469H13.5645ZM9.28224 1.51245C11.6473 1.51245 13.5645 3.42968 13.5645 5.79469H15.5645C15.5645 2.32511 12.7518 -0.487549 9.28224 -0.487549V1.51245ZM5 5.79469C5 3.42968 6.91723 1.51245 9.28224 1.51245V-0.487549C5.81266 -0.487549 3 2.32511 3 5.79469H5ZM9.35446 11.5043C8.78576 11.2016 7.66617 10.532 6.70085 9.53186C5.73591 8.5321 5 7.2834 5 5.79469H3C3 7.98828 4.09178 9.70856 5.2618 10.9208C6.43146 12.1327 7.75412 12.9181 8.41457 13.2697L9.35446 11.5043ZM9.21003 11.5043C9.22761 11.495 9.25281 11.4874 9.28224 11.4874C9.31167 11.4874 9.33687 11.495 9.35446 11.5043L8.41457 13.2697C8.95978 13.56 9.60471 13.56 10.1499 13.2697L9.21003 11.5043ZM10.5461 5.79469C10.5461 6.49268 9.98023 7.05851 9.28224 7.05851V9.05851C11.0848 9.05851 12.5461 7.59725 12.5461 5.79469H10.5461ZM9.28224 4.53088C9.98023 4.53088 10.5461 5.09671 10.5461 5.79469H12.5461C12.5461 3.99214 11.0848 2.53088 9.28224 2.53088V4.53088ZM8.01842 5.79469C8.01842 5.09671 8.58426 4.53088 9.28224 4.53088V2.53088C7.47969 2.53088 6.01842 3.99214 6.01842 5.79469H8.01842ZM9.28224 7.05851C8.58426 7.05851 8.01842 6.49268 8.01842 5.79469H6.01842C6.01842 7.59725 7.47969 9.05851 9.28224 9.05851V7.05851Z" fill="black" mask="url(#path-1-inside-1_1834_3267)"/>
</g>
<defs>
<filter id="filter0_d_1834_3267" x="0" y="0.512451" width="18.5664" height="19.9751" filterUnits="userSpaceOnUse" color-interpolation-filters="sRGB">
<feFlood flood-opacity="0" result="BackgroundImageFix"/>
<feColorMatrix in="SourceAlpha" type="matrix" values="0 0 0 0 0 0 0 0 0 0 0 0 0 0 0 0 0 0 127 0" result="hardAlpha"/>
<feOffset dy="4"/>
<feGaussianBlur stdDeviation="2"/>
<feComposite in2="hardAlpha" operator="out"/>
<feColorMatrix type="matrix" values="0 0 0 0 0 0 0 0 0 0 0 0 0 0 0 0 0 0 0.25 0"/>
<feBlend mode="normal" in2="BackgroundImageFix" result="effect1_dropShadow_1834_3267"/>
<feBlend mode="normal" in="SourceGraphic" in2="effect1_dropShadow_1834_3267" result="shape"/>
</filter>
</defs>
</svg>
