<svg width="516" height="106" viewBox="0 0 516 106" fill="none" xmlns="http://www.w3.org/2000/svg">
<path d="M69.9568 22.8148C68.3868 9.98015 57.2986 0 43.8853 0H0V85.9258H52.6048L57.429 99.5976C58.2005 101.792 59.7922 103.568 61.9055 104.593C63.1388 105.194 64.4643 105.494 65.7954 105.494C66.7678 105.494 67.7457 105.333 68.6964 105.006C75.6829 102.597 80.3767 96.0723 80.3767 88.7589V88.4048L69.9622 22.8148H69.9568ZM9.23558 76.8042V47.5237H27.5057V38.4021H9.23558V9.12164H43.8853C52.6265 9.12164 59.8466 15.657 60.8081 24.0382C60.8842 24.6928 60.9222 25.3367 60.9222 25.9537C60.9222 26.2435 60.9114 26.5332 60.9005 26.8176C60.9005 26.9142 60.8896 27.0108 60.8788 27.1074C60.8679 27.2952 60.8516 27.4883 60.8299 27.6761C60.819 27.7888 60.8081 27.9068 60.7918 28.0195C60.7701 28.1859 60.7484 28.3576 60.7212 28.5239C60.7049 28.6419 60.6832 28.7654 60.6669 28.8834C60.6343 29.0605 60.5963 29.2322 60.5637 29.4039C60.5148 29.6453 60.455 29.8814 60.3953 30.1229C60.3735 30.2195 60.3464 30.3107 60.3192 30.4072C60.2703 30.5843 60.216 30.756 60.1617 30.9331C60.1399 31.0082 60.1128 31.078 60.091 31.1531C60.0313 31.3409 59.9661 31.5287 59.8955 31.7165C59.89 31.7379 59.8792 31.7594 59.8737 31.7809C59.6347 32.4194 59.3576 33.0364 59.048 33.6374C59.0317 33.6749 59.0099 33.7071 58.9936 33.7447C58.8958 33.9271 58.798 34.1096 58.6894 34.292C58.6622 34.3349 58.6351 34.3832 58.6079 34.4261C58.3145 34.9198 57.9994 35.4027 57.6572 35.8641C57.5648 35.9929 57.467 36.1217 57.3692 36.2451C57.3041 36.3256 57.2389 36.4114 57.1737 36.4919C57.027 36.6744 56.8749 36.8514 56.7173 37.0285C56.6956 37.0553 56.6684 37.0821 56.6467 37.109C56.0219 37.8065 55.332 38.4558 54.5877 39.0513L54.2889 39.2928C52.2408 40.8596 49.8069 41.9756 47.1286 42.4854C44.8034 42.9254 42.7879 44.3419 41.609 46.3594C40.4355 48.3715 40.2074 50.7807 40.9788 52.9699L49.3886 76.8149H9.23558V76.8042ZM66.029 96.2547L50.122 51.1617C55.5765 49.8524 60.3029 46.8852 63.7961 42.8717L71.1303 89.0755C71.0053 92.252 69.0006 95.0636 66.029 96.2547Z" fill="url(#paint0_linear_5397_3157)"/>
<path d="M141.267 75.1349C137.255 75.1349 133.691 74.1532 130.575 72.2112C127.46 70.2691 125.005 67.6015 123.234 64.2295C121.463 60.8576 120.566 56.9949 120.566 52.6412C120.566 48.2876 121.463 44.745 123.234 41.4798C125.005 38.2146 127.438 35.6536 130.533 33.7969C133.627 31.9402 137.149 31.0012 141.097 31.0012C145.045 31.0012 148.459 31.8549 151.533 33.5835C154.584 35.2908 156.975 37.681 158.703 40.7115C160.411 43.7419 161.221 47.1992 161.115 51.1047C161.115 51.7236 161.093 52.3851 161.029 53.0681C160.965 53.751 160.923 54.4979 160.859 55.3089H127.63C127.737 57.9979 128.399 60.3668 129.615 62.4369C130.81 64.507 132.411 66.1076 134.374 67.2813C136.338 68.4551 138.6 69.0313 141.118 69.0313C144.426 69.0313 147.243 68.4124 149.569 67.1533C151.895 65.8942 153.56 64.1015 154.584 61.754L160.154 63.9948C158.447 67.6015 155.95 70.3545 152.685 72.2752C149.42 74.1959 145.621 75.1563 141.267 75.1563V75.1349ZM154.051 49.7388C154.115 47.2846 153.581 45.1078 152.472 43.2084C151.362 41.3304 149.804 39.8365 147.798 38.7481C145.792 37.6597 143.487 37.1261 140.841 37.1261C138.557 37.1261 136.466 37.6597 134.588 38.7481C132.71 39.8365 131.13 41.3304 129.914 43.2511C128.676 45.1718 127.95 47.3273 127.716 49.7388H154.051Z" fill="url(#paint1_linear_5397_3157)"/>
<path d="M489.01 61.1994C489.42 62.8404 490.123 64.1005 491.12 64.9796C492.175 65.8588 493.318 66.4741 494.548 66.8258C495.779 67.1188 496.951 67.2654 498.065 67.2654C500.351 67.2654 502.138 66.8258 503.428 65.9467C504.775 65.0089 505.449 63.8368 505.449 62.4302C505.449 61.258 505.01 60.3496 504.131 59.7049C503.252 59.0602 502.109 58.5621 500.702 58.2104C499.354 57.8002 497.948 57.3899 496.482 56.9796C494.9 56.5694 493.2 56.1005 491.384 55.5731C489.625 55.0456 487.955 54.313 486.373 53.3753C484.79 52.4375 483.501 51.2361 482.504 49.7709C481.508 48.3057 481.01 46.4888 481.01 44.3203C481.01 41.5657 481.772 39.1921 483.296 37.1994C484.819 35.1482 486.9 33.5657 489.537 32.4522C492.175 31.3386 495.134 30.7819 498.416 30.7819C502.343 30.7819 505.743 31.6024 508.614 33.2434C511.486 34.8844 513.567 37.2874 514.856 40.4522L506.153 43.2654C505.743 42.4449 505.127 41.7416 504.307 41.1555C503.545 40.5694 502.607 40.1591 501.493 39.9247C500.438 39.6317 499.354 39.4852 498.241 39.4852C496.365 39.4852 494.783 39.8661 493.493 40.628C492.204 41.3899 491.559 42.4742 491.559 43.8808C491.559 44.584 491.765 45.1994 492.175 45.7269C492.644 46.2544 493.259 46.6939 494.021 47.0456C494.783 47.3386 495.691 47.6317 496.746 47.9247C497.801 48.1591 498.915 48.4522 500.087 48.8038C501.962 49.3313 503.808 49.9174 505.625 50.5621C507.501 51.1481 509.2 51.91 510.724 52.8478C512.307 53.7855 513.537 55.0163 514.417 56.5401C515.354 58.0639 515.882 59.998 515.999 62.3423C515.999 64.8624 515.266 67.1774 513.801 69.2873C512.336 71.3386 510.226 72.9796 507.471 74.2104C504.775 75.3826 501.552 75.9686 497.801 75.9686C493.464 75.9686 489.743 75.0309 486.636 73.1555C483.53 71.28 481.42 68.2617 480.307 64.1005L489.01 61.1994Z" fill="#17355D"/>
<path d="M456.369 31.3972V19.0895H466.479V31.3972H476.764V40.1005H466.479V59.6169C466.479 62.2543 466.977 64.1004 467.973 65.1554C468.969 66.1517 470.259 66.7085 471.841 66.8257C473.482 66.8843 475.123 66.7964 476.764 66.562V75.0015C474.244 75.529 471.753 75.6755 469.292 75.4411C466.889 75.2653 464.72 74.6206 462.786 73.507C460.852 72.3349 459.299 70.6352 458.127 68.4081C456.955 66.181 456.369 63.2506 456.369 59.6169V40.1005H450.215V31.3972H456.369Z" fill="#17355D"/>
<path d="M419.854 61.1994C420.264 62.8404 420.967 64.1005 421.964 64.9796C423.019 65.8588 424.161 66.4741 425.392 66.8258C426.623 67.1188 427.795 67.2654 428.909 67.2654C431.194 67.2654 432.982 66.8258 434.271 65.9467C435.619 65.0089 436.293 63.8368 436.293 62.4302C436.293 61.258 435.854 60.3496 434.975 59.7049C434.095 59.0602 432.953 58.5621 431.546 58.2104C430.198 57.8002 428.791 57.3899 427.326 56.9796C425.744 56.5694 424.044 56.1005 422.227 55.5731C420.469 55.0456 418.799 54.313 417.216 53.3753C415.634 52.4375 414.345 51.2361 413.348 49.7709C412.352 48.3057 411.854 46.4888 411.854 44.3203C411.854 41.5657 412.616 39.1921 414.139 37.1994C415.663 35.1482 417.744 33.5657 420.381 32.4522C423.019 31.3386 425.978 30.7819 429.26 30.7819C433.187 30.7819 436.586 31.6024 439.458 33.2434C442.33 34.8844 444.41 37.2874 445.7 40.4522L436.997 43.2654C436.586 42.4449 435.971 41.7416 435.15 41.1555C434.388 40.5694 433.451 40.1591 432.337 39.9247C431.282 39.6317 430.198 39.4852 429.084 39.4852C427.209 39.4852 425.627 39.8661 424.337 40.628C423.048 41.3899 422.403 42.4742 422.403 43.8808C422.403 44.584 422.608 45.1994 423.019 45.7269C423.487 46.2544 424.103 46.6939 424.865 47.0456C425.627 47.3386 426.535 47.6317 427.59 47.9247C428.645 48.1591 429.758 48.4522 430.931 48.8038C432.806 49.3313 434.652 49.9174 436.469 50.5621C438.345 51.1481 440.044 51.91 441.568 52.8478C443.15 53.7855 444.381 55.0163 445.26 56.5401C446.198 58.0639 446.725 59.998 446.843 62.3423C446.843 64.8624 446.11 67.1774 444.645 69.2873C443.18 71.3386 441.07 72.9796 438.315 74.2104C435.619 75.3826 432.396 75.9686 428.645 75.9686C424.308 75.9686 420.586 75.0309 417.48 73.1555C414.374 71.28 412.264 68.2617 411.15 64.1005L419.854 61.1994Z" fill="#17355D"/>
<path d="M386.488 75.9686C382.092 75.9686 378.224 75.0016 374.883 73.0675C371.601 71.1335 369.023 68.4375 367.147 64.9796C365.33 61.5218 364.422 57.5364 364.422 53.0236C364.422 48.7452 365.33 44.9357 367.147 41.595C368.964 38.2544 371.484 35.617 374.708 33.683C377.931 31.7489 381.594 30.7819 385.697 30.7819C389.858 30.7819 393.521 31.6903 396.686 33.5071C399.85 35.324 402.312 37.8734 404.07 41.1555C405.887 44.3789 406.795 48.1298 406.795 52.4082C406.795 53.1115 406.766 53.8734 406.708 54.6939C406.649 55.4558 406.561 56.2763 406.444 57.1555H375.147C375.44 59.2067 376.085 60.9943 377.081 62.5181C378.136 63.9833 379.455 65.1262 381.037 65.9467C382.62 66.7672 384.437 67.1774 386.488 67.1774C388.949 67.1774 391.147 66.6793 393.081 65.6829C395.074 64.6866 396.451 63.3679 397.213 61.7269L405.916 64.628C404.158 68.1445 401.55 70.9284 398.092 72.9796C394.634 74.9723 390.766 75.9686 386.488 75.9686ZM395.982 49.0676C395.924 47.2507 395.426 45.6097 394.488 44.1445C393.55 42.6793 392.319 41.5364 390.795 40.7159C389.272 39.8368 387.572 39.3972 385.697 39.3972C384.056 39.3972 382.502 39.8075 381.037 40.628C379.572 41.4485 378.312 42.5914 377.257 44.0566C376.261 45.4632 375.616 47.1335 375.323 49.0676H395.982Z" fill="#17355D"/>
<path d="M357.865 75.3532H348.722L348.107 70.9576C346.641 72.54 344.883 73.7708 342.832 74.6499C340.781 75.5291 338.612 75.9686 336.326 75.9686C332.868 75.9686 329.879 75.2653 327.359 73.8587C324.898 72.3935 322.993 70.2836 321.645 67.5291C320.297 64.7159 319.623 61.258 319.623 57.1554V31.3972H329.557V55.8368C329.557 59.4705 330.29 62.2543 331.755 64.1884C333.22 66.0639 335.477 67.0016 338.524 67.0016C341.455 67.0016 343.74 66.0639 345.381 64.1884C347.081 62.2543 347.931 59.4118 347.931 55.6609V31.3972H357.865V75.3532Z" fill="#17355D"/>
<path d="M302.43 68.8478C301.024 70.8404 299.031 72.5401 296.452 73.9467C293.874 75.2946 290.855 75.9686 287.397 75.9686C283.471 75.9686 280.013 75.0309 277.024 73.1555C274.093 71.28 271.808 68.6426 270.167 65.2434C268.526 61.8441 267.705 57.8881 267.705 53.3753C267.705 48.8038 268.526 44.8478 270.167 41.5071C271.808 38.1079 274.093 35.4705 277.024 33.595C280.013 31.7196 283.471 30.7819 287.397 30.7819C290.621 30.7819 293.405 31.3679 295.749 32.5401C298.093 33.7123 300.027 35.1482 301.551 36.8478L302.255 31.3972H311.222V92.9357H301.287V68.584L302.43 68.8478ZM278.342 53.3753C278.342 57.4192 279.397 60.7013 281.507 63.2214C283.617 65.7415 286.372 67.0016 289.771 67.0016C291.822 67.0016 293.698 66.4741 295.397 65.4192C297.156 64.3643 298.562 62.8404 299.617 60.8478C300.731 58.7965 301.287 56.3057 301.287 53.3753C301.287 50.3862 300.731 47.8954 299.617 45.9027C298.562 43.9101 297.156 42.3863 295.397 41.3313C293.698 40.2764 291.822 39.7489 289.771 39.7489C286.372 39.7489 283.617 41.009 281.507 43.5291C279.397 46.0493 278.342 49.3313 278.342 53.3753Z" fill="#17355D"/>
<path d="M243.042 75.9686C238.647 75.9686 234.779 75.0016 231.438 73.0675C228.156 71.1335 225.577 68.4375 223.702 64.9796C221.885 61.5218 220.977 57.5364 220.977 53.0236C220.977 48.7452 221.885 44.9357 223.702 41.595C225.519 38.2544 228.039 35.617 231.262 33.683C234.486 31.7489 238.149 30.7819 242.251 30.7819C246.412 30.7819 250.075 31.6903 253.24 33.5071C256.405 35.324 258.867 37.8734 260.625 41.1555C262.442 44.3789 263.35 48.1298 263.35 52.4082C263.35 53.1115 263.321 53.8734 263.262 54.6939C263.204 55.4558 263.116 56.2763 262.999 57.1555H231.702C231.995 59.2067 232.64 60.9943 233.636 62.5181C234.691 63.9833 236.01 65.1262 237.592 65.9467C239.174 66.7672 240.991 67.1774 243.042 67.1774C245.504 67.1774 247.702 66.6793 249.636 65.6829C251.629 64.6866 253.006 63.3679 253.768 61.7269L262.471 64.628C260.713 68.1445 258.105 70.9284 254.647 72.9796C251.189 74.9723 247.321 75.9686 243.042 75.9686ZM252.537 49.0676C252.478 47.2507 251.98 45.6097 251.042 44.1445C250.105 42.6793 248.874 41.5364 247.35 40.7159C245.826 39.8368 244.127 39.3972 242.251 39.3972C240.61 39.3972 239.057 39.8075 237.592 40.628C236.127 41.4485 234.867 42.5914 233.812 44.0566C232.815 45.4632 232.171 47.1335 231.878 49.0676H252.537Z" fill="#17355D"/>
<path d="M204.934 32.3643C204.934 29.3166 204.026 26.9137 202.209 25.1555C200.392 23.3972 197.579 22.5181 193.77 22.5181H180.143V42.2983H193.77C196.348 42.2983 198.429 41.9174 200.011 41.1555C201.652 40.3349 202.883 39.1921 203.704 37.7269C204.524 36.2031 204.934 34.4155 204.934 32.3643ZM193.77 13.8148C198.693 13.8148 202.737 14.6646 205.901 16.3643C209.125 18.0053 211.528 20.2617 213.11 23.1335C214.693 25.9467 215.484 29.0236 215.484 32.3643C215.484 34.5914 215.103 36.7892 214.341 38.9577C213.579 41.1262 212.348 43.1481 210.649 45.0236C208.949 46.8404 206.693 48.3056 203.879 49.4192C201.125 50.4741 197.755 51.0016 193.77 51.0016H180.143V75.3532H169.682V13.8148H193.77ZM200.011 47.573L216.802 75.3532H205.022L188.846 47.573H200.011Z" fill="#17355D"/>
<defs>
<linearGradient id="paint0_linear_5397_3157" x1="40.1856" y1="10.9245" x2="40.1856" y2="120.631" gradientUnits="userSpaceOnUse">
<stop stop-color="#4699F7"/>
<stop offset="1" stop-color="#67DE7F"/>
</linearGradient>
<linearGradient id="paint1_linear_5397_3157" x1="90.6673" y1="96.7109" x2="181.752" y2="18.6446" gradientUnits="userSpaceOnUse">
<stop stop-color="#67DE7F"/>
<stop offset="1" stop-color="#4699F7"/>
</linearGradient>
</defs>
</svg>
