<svg width="30" height="30" viewBox="0 0 30 30" fill="none" xmlns="http://www.w3.org/2000/svg">
<circle cx="15" cy="15" r="14.5" fill="url(#paint0_linear_1085_3490)"/>
<g clip-path="url(#clip0_1085_3490)">
<path d="M14.1597 20.5989C13.4031 20.5989 12.6464 20.5957 11.8898 20.601C11.7187 20.602 11.6248 20.5768 11.7021 20.3942C11.757 20.2642 11.6322 20.2605 11.5498 20.2347C10.9437 20.0427 10.3834 19.7727 9.89118 19.3927C8.75222 18.5134 8.08831 17.3978 8.00933 16.028C7.89658 14.0572 8.80831 12.5732 10.6289 11.5492C10.6535 11.5355 10.6776 11.5218 10.7033 11.5107C10.7543 11.4886 10.8098 11.4444 10.8619 11.4755C10.918 11.5086 10.8859 11.5702 10.8785 11.6207C10.8086 12.1059 10.9031 12.5606 11.1732 12.9832C11.3018 13.1842 11.2728 13.3599 11.0862 13.5104C9.28793 14.9602 9.8866 17.733 12.1508 18.4487C12.2979 18.495 12.394 18.4934 12.489 18.3545C12.6659 18.095 12.9486 17.984 13.2737 17.9835C15.4291 17.9803 17.5846 17.9777 19.74 17.9845C20.3616 17.9866 20.8395 18.4303 20.8309 18.9618C20.8223 19.5059 20.3518 19.9216 19.7263 19.9242C18.727 19.9285 17.7277 19.9253 16.7283 19.9258C16.4639 19.9258 16.4639 19.9269 16.5418 20.1484C16.6478 20.4487 16.5318 20.5989 16.1938 20.5989C15.5156 20.5989 14.8379 20.5989 14.1597 20.5989Z" fill="white"/>
<path d="M15.7615 23.75C13.9627 23.75 12.1644 23.75 10.3655 23.75C9.81605 23.75 9.54934 23.5063 9.54762 23.0048C9.54762 22.8212 9.54533 22.6375 9.54877 22.4533C9.56079 21.7598 10.1629 21.203 10.9172 21.2025C14.1504 21.1998 17.3841 21.1998 20.6172 21.2025C21.3653 21.203 21.9651 21.7424 21.9926 22.4297C22.0012 22.6459 21.9994 22.8628 21.9937 23.079C21.9834 23.4879 21.6921 23.7484 21.2428 23.7489C19.4153 23.7505 17.5884 23.7495 15.7609 23.7495L15.7615 23.75Z" fill="white"/>
<path d="M13.0492 9.84364C12.6863 9.85311 12.2473 9.95626 11.8644 10.2078C11.7065 10.3115 11.659 10.2599 11.6286 10.1157C11.5777 9.8789 11.6979 9.60631 11.9646 9.46212C12.9244 8.94325 13.8871 8.42858 14.8572 7.92655C15.2206 7.73816 15.6035 7.87077 15.833 8.23388C16.5313 9.34108 17.2261 10.4499 17.9221 11.5576C18.1722 11.9554 18.4217 12.3533 18.6713 12.7511C18.9431 13.1842 18.8453 13.5294 18.376 13.7794C17.4802 14.2562 16.5834 14.7313 15.6871 15.2065C15.247 15.4397 14.8578 15.3449 14.5997 14.9392C14.4159 14.6503 14.2425 14.3561 14.0536 14.0699C13.9684 13.9404 13.9821 13.8767 14.1366 13.7994C14.891 13.4221 15.358 12.8585 15.3878 12.0465C15.4181 11.2145 15.0209 10.5798 14.2734 10.1268C13.9598 9.93678 13.55 9.84154 13.0492 9.84311V9.84364Z" fill="white"/>
<path d="M11.5157 11.9296C11.5066 11.0929 12.1905 10.4551 13.104 10.4493C14.0449 10.4435 14.7534 11.0713 14.7597 11.9165C14.766 12.7632 14.0626 13.4173 13.1394 13.4231C12.2157 13.4289 11.5254 12.7937 11.5157 11.9296Z" fill="white"/>
<path d="M10.5325 7.71604C10.5257 7.46081 10.6367 7.27347 10.8536 7.1556C11.6703 6.71198 12.4888 6.26994 13.3141 5.83947C13.6558 5.66108 14.037 5.75791 14.2545 6.05628C14.3735 6.21942 14.4857 6.38729 14.5521 6.57726C14.6001 6.71566 14.595 6.8488 14.5343 6.98036C14.4765 7.1056 14.3517 7.20769 14.4645 7.37451C14.5194 7.45555 14.3775 7.49186 14.31 7.5287C13.6031 7.91128 12.894 8.29069 12.1854 8.67116C12.1116 8.71063 12.0372 8.7501 11.9639 8.79115C11.826 8.8685 11.6909 8.95533 11.5851 8.7501C11.5542 8.69011 11.4729 8.70432 11.4094 8.70116C11.1278 8.68695 10.9223 8.56171 10.7969 8.33227C10.6859 8.12966 10.5148 7.94706 10.5325 7.71604Z" fill="white"/>
<path d="M19.2193 14.9729C19.225 15.2423 19.1066 15.4312 18.8828 15.5533C18.3116 15.8643 17.7387 16.1722 17.1589 16.469C16.7485 16.6795 16.3851 16.5758 16.1396 16.2001C15.9602 15.9261 16.0209 15.7086 16.3216 15.5475C17.0874 15.1402 17.8572 14.7387 18.6184 14.324C18.7975 14.2267 18.8931 14.2483 18.9812 14.4177C19.0785 14.605 19.2439 14.7671 19.2193 14.9729Z" fill="white"/>
</g>
<defs>
<linearGradient id="paint0_linear_1085_3490" x1="15" y1="3.32359e-06" x2="14.9049" y2="28.9997" gradientUnits="userSpaceOnUse">
<stop stop-color="#124546"/>
<stop stop-color="#3A806B"/>
<stop offset="1" stop-color="#57C96E"/>
</linearGradient>
<clipPath id="clip0_1085_3490">
<rect width="14" height="18" fill="white" transform="translate(8 5.75)"/>
</clipPath>
</defs>
</svg>
