<svg xmlns="http://www.w3.org/2000/svg" width="14" height="19" viewBox="0 0 14 19" fill="none">
  <g clip-path="url(#clip0_1085_3492)">
    <path d="M6.15969 15.5989C5.40305 15.5989 4.64642 15.5957 3.88979 15.601C3.71866 15.602 3.6248 15.5768 3.70206 15.3942C3.75701 15.2642 3.63224 15.2605 3.54982 15.2347C2.94371 15.0427 2.38339 14.7727 1.89118 14.3927C0.752223 13.5134 0.0883089 12.3978 0.00932603 11.028C-0.103425 9.05721 0.808312 7.57322 2.62892 6.54916C2.65353 6.53547 2.67757 6.52179 2.70333 6.51074C2.75427 6.48864 2.80978 6.44444 2.86187 6.47548C2.91796 6.50864 2.8859 6.57021 2.87846 6.62073C2.80864 7.10592 2.90307 7.56059 3.17322 7.98316C3.3018 8.18418 3.27281 8.35995 3.08622 8.51045C1.28793 9.96024 1.8866 12.733 4.15077 13.4487C4.29787 13.495 4.39402 13.4934 4.48903 13.3545C4.66588 13.095 4.94862 12.984 5.27371 12.9835C7.42914 12.9803 9.58457 12.9777 11.74 12.9845C12.3616 12.9866 12.8395 13.4303 12.8309 13.9618C12.8223 14.5059 12.3518 14.9216 11.7263 14.9242C10.727 14.9285 9.72765 14.9253 8.72835 14.9258C8.46393 14.9258 8.46393 14.9269 8.54177 15.1484C8.64784 15.4487 8.53184 15.5989 8.19378 15.5989C7.51556 15.5989 6.83791 15.5989 6.15969 15.5989Z" fill="white"/>
    <path d="M7.76347 18.75C5.9646 18.75 4.16631 18.75 2.36745 18.75C1.818 18.75 1.55129 18.5063 1.54958 18.0048C1.54958 17.8212 1.54729 17.6375 1.55072 17.4533C1.56274 16.7598 2.16484 16.203 2.91918 16.2025C6.15233 16.1998 9.38605 16.1998 12.6192 16.2025C13.3672 16.203 13.9671 16.7424 13.9945 17.4297C14.0031 17.6459 14.0014 17.8628 13.9957 18.079C13.9854 18.4879 13.694 18.7484 13.2448 18.7489C11.4173 18.7505 9.59037 18.7495 7.76289 18.7495L7.76347 18.75Z" fill="white"/>
    <path d="M5.04724 4.84361C4.68437 4.85308 4.24539 4.95623 3.86249 5.20777C3.70453 5.31144 3.65702 5.25987 3.62669 5.11568C3.57575 4.87887 3.69594 4.60628 3.96265 4.46209C4.92247 3.94322 5.88514 3.42855 6.85526 2.92652C7.21869 2.73813 7.60159 2.87074 7.8311 3.23385C8.52935 4.34105 9.22417 5.44984 9.92014 6.55757C10.1702 6.95541 10.4198 7.35324 10.6693 7.75108C10.9412 8.18417 10.8433 8.52939 10.374 8.77935C9.47829 9.25612 8.58143 9.73132 7.68515 10.2065C7.24502 10.4396 6.85583 10.3449 6.5977 9.93918C6.41398 9.65028 6.24056 9.35611 6.05169 9.06984C5.96641 8.94038 5.98015 8.87671 6.13468 8.79935C6.88902 8.42204 7.35605 7.85843 7.38582 7.04645C7.41615 6.21446 7.01895 5.57982 6.27147 5.12673C5.95783 4.93675 5.54803 4.84151 5.04724 4.84308V4.84361Z" fill="white"/>
    <path d="M3.51376 6.92963C3.50461 6.09291 4.18855 5.45511 5.10201 5.44932C6.04293 5.44353 6.75149 6.07133 6.75778 6.91647C6.76408 7.76319 6.06067 8.41731 5.13749 8.4231C4.21373 8.42888 3.52349 7.79371 3.51376 6.92963Z" fill="white"/>
    <path d="M2.53057 2.71603C2.52371 2.4608 2.63474 2.27346 2.85166 2.15558C3.66839 1.71196 4.48683 1.26992 5.31214 0.839457C5.65383 0.661062 6.03501 0.75789 6.2525 1.05627C6.37155 1.2194 6.48372 1.38727 6.55012 1.57724C6.59819 1.71565 6.59304 1.84878 6.53237 1.98034C6.47457 2.10559 6.3498 2.20768 6.46255 2.3745C6.51749 2.45554 6.37555 2.49185 6.30802 2.52868C5.60118 2.91126 4.89205 3.29068 4.18349 3.67115C4.10966 3.71062 4.03525 3.75008 3.962 3.79113C3.82406 3.86849 3.68899 3.95532 3.58311 3.75008C3.5522 3.69009 3.47093 3.7043 3.4074 3.70114C3.12581 3.68694 2.92034 3.56169 2.79499 3.33225C2.68396 3.12965 2.51283 2.94704 2.53057 2.71603Z" fill="white"/>
    <path d="M11.2174 9.97286C11.2231 10.2423 11.1046 10.4312 10.8808 10.5533C10.3096 10.8643 9.73673 11.1722 9.15695 11.469C8.74658 11.6794 8.38314 11.5758 8.13761 11.2C7.95828 10.926 8.01894 10.7085 8.31961 10.5475C9.0854 10.1402 9.8552 9.73868 10.6164 9.324C10.7956 9.22665 10.8911 9.24822 10.9793 9.41767C11.0766 9.60501 11.242 9.7671 11.2174 9.97286Z" fill="white"/>
  </g>
  <defs>
    <clipPath id="clip0_1085_3492">
      <rect width="14" height="18" fill="white" transform="translate(0 0.75)"/>
    </clipPath>
  </defs>
</svg>