<svg width="31" height="30" viewBox="0 0 31 30" fill="none" xmlns="http://www.w3.org/2000/svg">
<g id="Group 119">
<circle id="Ellipse 92" cx="15.5" cy="15" r="15" fill="black"/>
<path id="Subtract" fill-rule="evenodd" clip-rule="evenodd" d="M10.6444 8.08579C10.0586 8.67157 10.0586 9.61438 10.0586 11.5V17.25C10.0586 19.1356 10.0586 20.0784 10.6444 20.6642C11.2302 21.25 12.173 21.25 14.0586 21.25H17.3821C19.2677 21.25 20.2106 21.25 20.7963 20.6642C21.3821 20.0784 21.3821 19.1356 21.3821 17.25V11.5C21.3821 9.61438 21.3821 8.67157 20.7963 8.08579C20.2106 7.5 19.2677 7.5 17.3821 7.5H14.0586C12.173 7.5 11.2302 7.5 10.6444 8.08579ZM13.2942 11.0441C13.018 11.0441 12.7942 11.268 12.7942 11.5441C12.7942 11.8203 13.018 12.0441 13.2942 12.0441H18.1471C18.4233 12.0441 18.6471 11.8203 18.6471 11.5441C18.6471 11.268 18.4233 11.0441 18.1471 11.0441H13.2942ZM13.2942 14.2794C13.018 14.2794 12.7942 14.5033 12.7942 14.7794C12.7942 15.0556 13.018 15.2794 13.2942 15.2794H18.1471C18.4233 15.2794 18.6471 15.0556 18.6471 14.7794C18.6471 14.5033 18.4233 14.2794 18.1471 14.2794H13.2942ZM13.2942 17.5147C13.018 17.5147 12.7942 17.7386 12.7942 18.0147C12.7942 18.2909 13.018 18.5147 13.2942 18.5147H16.5295C16.8056 18.5147 17.0295 18.2909 17.0295 18.0147C17.0295 17.7386 16.8056 17.5147 16.5295 17.5147H13.2942Z" fill="white"/>
</g>
</svg>
