<svg xmlns="http://www.w3.org/2000/svg" width="22" height="22" viewBox="0 0 22 22" fill="none">
<circle cx="11" cy="11" r="11" fill="black"/>
<path d="M13.7412 7.77701H8.89139C7.24315 7.77701 6.41904 7.77701 5.8651 8.23332C5.76588 8.31505 5.67476 8.40617 5.59303 8.50539C5.13672 9.05933 5.13672 9.88344 5.13672 11.5317C5.13672 11.9437 5.13672 12.1498 5.2508 12.2882C5.27123 12.3131 5.29401 12.3358 5.31881 12.3563C5.4573 12.4703 5.66333 12.4703 6.07539 12.4703H8.46541C8.50381 12.4703 8.523 12.4703 8.53891 12.4668C8.59604 12.4543 8.64067 12.4097 8.65322 12.3525C8.65672 12.3366 8.65672 12.3174 8.65672 12.279C8.65672 12.0231 8.65672 11.8951 8.68001 11.7891C8.7637 11.4082 9.06121 11.1107 9.44213 11.027C9.54816 11.0037 9.67613 11.0037 9.93208 11.0037H12.0747C12.3306 11.0037 12.4586 11.0037 12.5646 11.027C12.9456 11.1107 13.2431 11.4082 13.3268 11.7891C13.3501 11.8951 13.3501 12.0231 13.3501 12.279C13.3501 12.3174 13.3501 12.3366 13.3535 12.3525C13.3661 12.4097 13.4107 12.4543 13.4679 12.4668C13.4838 12.4703 13.503 12.4703 13.5414 12.4703H15.3056C15.8321 12.4703 16.0954 12.4703 16.299 12.3737C16.507 12.2749 16.6746 12.1073 16.7734 11.8993C16.8701 11.6957 16.8701 11.4324 16.8701 10.9059C16.8701 9.85282 16.8701 9.32629 16.6767 8.91914C16.4791 8.50305 16.144 8.16791 15.7279 7.97034C15.3208 7.77701 14.7942 7.77701 13.7412 7.77701Z" fill="white"/>
<path d="M8.07031 6.45062C8.07031 6.43178 8.07031 6.42236 8.07044 6.41439C8.07904 5.87458 8.51457 5.43906 9.05438 5.43046C9.06234 5.43033 9.07176 5.43033 9.0906 5.43033H12.9167C12.9355 5.43033 12.9449 5.43033 12.9529 5.43046C13.4927 5.43906 13.9282 5.87458 13.9369 6.41439C13.937 6.42236 13.937 6.43178 13.937 6.45062C13.937 6.45344 13.937 6.45486 13.937 6.45605C13.9357 6.53702 13.8703 6.60235 13.7894 6.60364C13.7882 6.60366 13.7868 6.60366 13.7839 6.60366H8.22336C8.22053 6.60366 8.21912 6.60366 8.21792 6.60364C8.13695 6.60235 8.07162 6.53702 8.07033 6.45605C8.07031 6.45486 8.07031 6.45344 8.07031 6.45062Z" fill="white"/>
<path fill-rule="evenodd" clip-rule="evenodd" d="M6.89844 15.9141V12.7103C6.89844 11.7675 6.89844 11.2961 7.19133 11.0032C7.48422 10.7103 7.95563 10.7103 8.89843 10.7103L8.89844 10.7103L13.1118 10.7103C14.0546 10.7103 14.526 10.7103 14.8189 11.0032C15.1118 11.2961 15.1118 11.7675 15.1118 12.7103V15.9141C15.1118 16.2181 15.1118 16.3701 15.0123 16.4451C14.9129 16.5201 14.7667 16.4784 14.4744 16.3949L13.1958 16.0295C13.1276 16.01 13.0935 16.0003 13.0584 16.0003C13.0234 16.0003 12.9893 16.01 12.9211 16.0295L11.1425 16.5377C11.0742 16.5572 11.0401 16.567 11.0051 16.567C10.9701 16.567 10.936 16.5572 10.8677 16.5377L9.08913 16.0295L9.08913 16.0295C9.0209 16.01 8.98678 16.0003 8.95177 16.0003C8.91676 16.0003 8.88265 16.01 8.81443 16.0295L8.81441 16.0295L8.81441 16.0295L7.5358 16.3949C7.24349 16.4784 7.09734 16.5201 6.99789 16.4451C6.89844 16.3701 6.89844 16.2181 6.89844 15.9141ZM8.83259 12.4703C8.83259 11.918 9.2803 11.4703 9.83259 11.4703L11.5926 11.4703C12.1449 11.4703 12.5926 11.918 12.5926 12.4703C12.5926 12.7744 12.4568 13.0469 12.2426 13.2303H12.4726C13.0249 13.2303 13.4726 13.678 13.4726 14.2303C13.4726 14.7826 13.0249 15.2303 12.4726 15.2303L9.83259 15.2303C9.2803 15.2303 8.83259 14.7826 8.83259 14.2303C8.83259 13.8501 9.04478 13.5194 9.3572 13.3503C9.04478 13.1811 8.83259 12.8505 8.83259 12.4703Z" fill="white"/>
</svg>