<svg width="20" height="20" viewBox="0 0 20 20" fill="none" xmlns="http://www.w3.org/2000/svg">
<path d="M16.3529 12H17C17.9428 12 18.4142 12 18.7071 11.7071C19 11.4142 19 10.9428 19 10V9C19 7.11438 19 6.17157 18.4142 5.58579C17.8284 5 16.8856 5 15 5H5C3.11438 5 2.17157 5 1.58579 5.58579C1 6.17157 1 7.11438 1 9V11C1 11.4714 1 11.7071 1.14645 11.8536C1.29289 12 1.5286 12 2 12H3.64706" stroke="white" stroke-width="1.5"/>
<path d="M4 18.3063L4 10C4 9.05719 4 8.58579 4.29289 8.29289C4.58579 8 5.05719 8 6 8L14 8C14.9428 8 15.4142 8 15.7071 8.29289C16 8.58579 16 9.05719 16 10L16 18.3063C16 18.6228 16 18.7811 15.8962 18.856C15.7924 18.9308 15.6422 18.8807 15.3419 18.7806L13.1581 18.0527C13.0798 18.0266 13.0406 18.0135 13 18.0135C12.9594 18.0135 12.9202 18.0266 12.8419 18.0527L10.1581 18.9473C10.0798 18.9734 10.0406 18.9865 10 18.9865C9.95943 18.9865 9.92025 18.9734 9.84189 18.9473L7.15811 18.0527C7.07975 18.0266 7.04057 18.0135 7 18.0135C6.95943 18.0135 6.92025 18.0266 6.84189 18.0527L4.65811 18.7806C4.3578 18.8807 4.20764 18.9308 4.10382 18.856C4 18.7811 4 18.6228 4 18.3063Z" stroke="white" stroke-width="1.5"/>
<path d="M16 5V3.88C16 2.87191 16 2.36786 15.8038 1.98282C15.6312 1.64413 15.3559 1.36876 15.0172 1.19619C14.6321 1 14.1281 1 13.12 1H6.88C5.87191 1 5.36786 1 4.98282 1.19619C4.64413 1.36876 4.36876 1.64413 4.19619 1.98282C4 2.36786 4 2.87191 4 3.88V5" stroke="white" stroke-width="1.5"/>
<path d="M8 12L11 12" stroke="white" stroke-width="1.5" stroke-linecap="round"/>
<path d="M8 15L12.5 15" stroke="white" stroke-width="1.5" stroke-linecap="round"/>
</svg>
