<svg xmlns="http://www.w3.org/2000/svg" width="18" height="18" viewBox="0 0 18 18" fill="none">
<g clip-path="url(#clip0_1054_4954)">
<path d="M9.00895 0C13.9972 0.0425087 18.0039 4.02335 18 9.0099C17.9961 13.9834 13.9657 18.0072 8.99107 18.0005C4.00672 17.9932 -0.00627502 13.9568 7.36628e-06 8.99203C0.00628975 4.00064 4.02798 0.0323645 9.00895 0ZM1.73298 9.00217C1.73153 13.0163 4.98532 16.2687 9.00121 16.2683C13.0103 16.2678 16.2583 13.027 16.267 9.01812C16.2762 4.98559 13.0345 1.73996 8.9988 1.74044C4.97034 1.74092 1.73395 4.97545 1.73298 9.00217Z" fill="white"/>
<path d="M12.7189 8.92488C13.0741 8.92488 13.4298 8.92295 13.785 8.92488C14.2238 8.92778 14.4843 9.18911 14.4649 9.63062C14.4132 10.8064 13.9967 11.8454 13.2616 12.7598C13.0345 13.0419 12.7837 13.3018 12.501 13.5289C12.1864 13.781 11.8655 13.7467 11.6195 13.4332C11.0401 12.6941 10.465 11.9517 9.88363 11.2141C9.79181 11.0977 9.78022 11.0387 9.93679 10.9663C10.7511 10.5905 11.2372 9.95813 11.3784 9.06932C11.3972 8.95193 11.4581 8.92343 11.563 8.92392C11.9486 8.92633 12.3338 8.92488 12.7194 8.92488H12.7189Z" fill="white"/>
<path d="M5.27496 8.9244C5.64852 8.9244 6.02257 8.92875 6.39613 8.92199C6.54111 8.91957 6.602 8.95918 6.63099 9.11617C6.78564 9.94896 7.25391 10.5499 8.01747 10.9175C8.24073 11.0252 8.24315 11.0199 8.09382 11.2117C7.53469 11.929 6.97556 12.6473 6.41546 13.3637C6.13517 13.7221 5.7935 13.7593 5.45087 13.4603C4.41863 12.5584 3.77009 11.4411 3.57437 10.076C3.54972 9.90355 3.53716 9.7282 3.53523 9.5543C3.53039 9.17945 3.77589 8.93068 4.15428 8.92585C4.52784 8.92102 4.9014 8.92488 5.27545 8.9244H5.27496Z" fill="white"/>
<path d="M8.84843 3.6055C9.63131 3.61661 10.3813 3.77167 11.097 4.08566C11.4295 4.23154 11.5571 4.52862 11.4029 4.85613C11.1101 5.47733 10.8013 6.09081 10.5055 6.71057C10.4374 6.85403 10.3697 6.7951 10.2818 6.74148C9.47763 6.25408 8.65512 6.24104 7.81908 6.65502C7.7437 6.69221 7.67266 6.73955 7.60452 6.78834C7.38753 6.94485 7.38802 6.9463 7.27155 6.71347C6.97483 6.12076 6.67762 5.52854 6.38235 4.93487C6.18808 4.54408 6.29971 4.24796 6.69405 4.06779C7.37932 3.75428 8.10034 3.61372 8.84891 3.60454L8.84843 3.6055Z" fill="white"/>
<path d="M8.99376 10.5687C7.97891 10.5678 7.12644 9.76105 7.12112 8.7964C7.11533 7.68441 7.92527 6.8579 9.01889 6.85935C10.0651 6.8608 10.8852 7.70615 10.8814 8.77997C10.878 9.77603 10.0405 10.5697 8.99376 10.5687Z" fill="white"/>
</g>
<defs>
<clipPath id="clip0_1054_4954">
<rect width="18" height="18" fill="white"/>
</clipPath>
</defs>
</svg>