<svg width="30" height="30" viewBox="0 0 30 30" fill="none" xmlns="http://www.w3.org/2000/svg">
<circle cx="15" cy="15" r="14.5" fill="white"/>
<circle cx="15" cy="15" r="14.5" fill="url(#paint0_linear_1054_4953)"/>
<g clip-path="url(#clip0_1054_4953)">
<path d="M15.0089 6C19.9972 6.04251 24.0039 10.0233 24 15.0099C23.9961 19.9834 19.9657 24.0072 14.9911 24.0005C10.0067 23.9932 5.99372 19.9568 6.00001 14.992C6.00629 10.0006 10.028 6.03236 15.0089 6ZM7.73298 15.0022C7.73153 19.0163 10.9853 22.2687 15.0012 22.2683C19.0103 22.2678 22.2583 19.027 22.267 15.0181C22.2762 10.9856 19.0345 7.73996 14.9988 7.74044C10.9703 7.74092 7.73395 10.9754 7.73298 15.0022Z" fill="white"/>
<path d="M18.7189 14.9249C19.0741 14.9249 19.4298 14.9229 19.785 14.9249C20.2238 14.9278 20.4843 15.1891 20.4649 15.6306C20.4132 16.8064 19.9967 17.8454 19.2616 18.7598C19.0345 19.0419 18.7837 19.3018 18.501 19.5288C18.1864 19.781 17.8655 19.7467 17.6195 19.4332C17.0401 18.6941 16.465 17.9517 15.8836 17.214C15.7918 17.0976 15.7802 17.0387 15.9368 16.9662C16.7511 16.5904 17.2372 15.9581 17.3784 15.0693C17.3972 14.9519 17.4581 14.9234 17.563 14.9239C17.9486 14.9263 18.3338 14.9249 18.7194 14.9249H18.7189Z" fill="white"/>
<path d="M11.275 14.9244C11.6485 14.9244 12.0226 14.9287 12.3961 14.922C12.5411 14.9196 12.602 14.9592 12.631 15.1162C12.7856 15.9489 13.2539 16.5499 14.0175 16.9175C14.2407 17.0252 14.2431 17.0199 14.0938 17.2116C13.5347 17.929 12.9756 18.6473 12.4155 19.3636C12.1352 19.7221 11.7935 19.7593 11.4509 19.4603C10.4186 18.5584 9.77009 17.4411 9.57437 16.076C9.54972 15.9035 9.53716 15.7282 9.53523 15.5543C9.53039 15.1794 9.77589 14.9307 10.1543 14.9258C10.5278 14.921 10.9014 14.9249 11.2754 14.9244H11.275Z" fill="white"/>
<path d="M14.8484 9.60552C15.6313 9.61663 16.3813 9.77169 17.097 10.0857C17.4295 10.2316 17.5571 10.5286 17.4029 10.8561C17.1101 11.4773 16.8013 12.0908 16.5055 12.7106C16.4374 12.854 16.3697 12.7951 16.2818 12.7415C15.4776 12.2541 14.6551 12.2411 13.8191 12.655C13.7437 12.6922 13.6727 12.7396 13.6045 12.7884C13.3875 12.9449 13.388 12.9463 13.2715 12.7135C12.9748 12.1208 12.6776 11.5286 12.3824 10.9349C12.1881 10.5441 12.2997 10.248 12.6941 10.0678C13.3793 9.7543 14.1003 9.61373 14.8489 9.60455L14.8484 9.60552Z" fill="white"/>
<path d="M14.9938 16.5687C13.9789 16.5678 13.1264 15.7611 13.1211 14.7964C13.1153 13.6844 13.9253 12.8579 15.0189 12.8594C16.0651 12.8608 16.8852 13.7062 16.8814 14.78C16.878 15.7761 16.0405 16.5697 14.9938 16.5687Z" fill="white"/>
</g>
<defs>
<linearGradient id="paint0_linear_1054_4953" x1="14.7684" y1="-1.90723" x2="14.7684" y2="29.5" gradientUnits="userSpaceOnUse">
<stop stop-color="#00285F"/>
<stop offset="1" stop-color="#007BE5"/>
</linearGradient>
<clipPath id="clip0_1054_4953">
<rect width="18" height="18" fill="white" transform="translate(6 6)"/>
</clipPath>
</defs>
</svg>
