<svg width="167" height="139" viewBox="0 0 167 139" fill="none" xmlns="http://www.w3.org/2000/svg">
<path d="M95.7545 61.4243C95.1952 61.007 94.6636 60.5561 94.1736 60.0576V64.2304H58.5422V7.62868H86.8335C94.5058 7.62868 100.747 13.9411 100.747 21.7014C100.747 25.9694 98.8611 29.9602 95.5718 32.6487L94.1708 33.7941V39.5268C96.1726 37.6309 98.6894 36.2726 101.367 35.7265C102.538 34.3851 103.95 33.248 105.506 32.3911C107.311 29.176 108.289 25.5129 108.289 21.7014C108.289 9.73468 98.6645 0 86.8335 0H51V71.8591H99.844C99.1767 70.526 98.6922 69.081 98.4209 67.5631C97.1223 65.7763 96.2003 63.6815 95.7518 61.4243H95.7545Z" fill="url(#paint0_linear_1054_4667)"/>
<path d="M104.726 88.2227C103.641 88.2227 102.558 87.9707 101.55 87.4694C99.8253 86.6124 98.5267 85.1281 97.8955 83.2938L84.4613 44.2906C83.8301 42.4591 84.0183 40.4427 84.9763 38.7623C85.9399 37.0708 87.5818 35.8918 89.4811 35.5221C96.0099 34.2535 100.747 28.4395 100.747 21.7014C100.747 21.1889 100.717 20.6484 100.656 20.0995L108.129 19.0801L116.632 73.9315V74.2284C116.632 80.342 112.8 85.803 107.093 87.8166C106.321 88.0883 105.521 88.2255 104.726 88.2255V88.2227ZM91.9315 42.7839L104.92 80.4932C107.348 79.499 108.984 77.1438 109.087 74.4889L103.095 35.8498C100.243 39.2048 96.3837 41.6861 91.9315 42.7811V42.7839Z" fill="url(#paint1_linear_1054_4667)"/>
<path d="M73.4627 32.1165H54.7734V39.7452H73.4627V32.1165Z" fill="url(#paint2_linear_1054_4667)"/>
<path d="M16.8491 125.251C15.3279 125.251 13.9765 124.878 12.7951 124.142C11.6137 123.406 10.6831 122.394 10.0115 121.116C9.33986 119.837 9 118.372 9 116.722C9 115.071 9.33986 113.728 10.0115 112.49C10.6831 111.252 11.6056 110.281 12.7789 109.577C13.9522 108.873 15.2874 108.517 16.7844 108.517C18.2814 108.517 19.5761 108.84 20.7413 109.496C21.8985 110.143 22.8048 111.049 23.4602 112.198C24.1076 113.347 24.4151 114.658 24.3746 116.139C24.3746 116.374 24.3665 116.625 24.3422 116.884C24.318 117.142 24.3018 117.426 24.2775 117.733H11.6784C11.7189 118.753 11.9697 119.651 12.431 120.436C12.8841 121.221 13.491 121.828 14.2355 122.273C14.9799 122.718 15.8377 122.936 16.7925 122.936C18.0467 122.936 19.1149 122.702 19.9969 122.224C20.8789 121.747 21.5101 121.067 21.8985 120.177L24.0105 121.027C23.3631 122.394 22.4164 123.438 21.1783 124.166C19.9402 124.895 18.4999 125.259 16.8491 125.259V125.251ZM21.6962 115.621C21.7205 114.691 21.5182 113.865 21.0974 113.145C20.6766 112.433 20.0859 111.867 19.3253 111.454C18.5646 111.041 17.6907 110.839 16.6873 110.839C15.8215 110.839 15.0285 111.041 14.3164 111.454C13.6043 111.867 13.0055 112.433 12.5443 113.161C12.0749 113.89 11.7998 114.707 11.7108 115.621H21.6962Z" fill="url(#paint3_linear_1054_4667)"/>
<path d="M148.706 119.967C148.862 120.589 149.128 121.067 149.506 121.4C149.906 121.733 150.34 121.967 150.806 122.1C151.273 122.211 151.717 122.267 152.14 122.267C153.006 122.267 153.684 122.1 154.173 121.767C154.684 121.411 154.94 120.967 154.94 120.433C154.94 119.989 154.773 119.644 154.44 119.4C154.106 119.156 153.673 118.967 153.14 118.833C152.628 118.678 152.095 118.522 151.54 118.367C150.94 118.211 150.295 118.033 149.606 117.833C148.94 117.633 148.306 117.356 147.706 117C147.106 116.644 146.617 116.189 146.24 115.633C145.862 115.078 145.673 114.389 145.673 113.567C145.673 112.522 145.962 111.622 146.54 110.867C147.117 110.089 147.906 109.489 148.906 109.067C149.906 108.644 151.028 108.433 152.273 108.433C153.762 108.433 155.051 108.744 156.14 109.367C157.228 109.989 158.017 110.9 158.506 112.1L155.206 113.167C155.051 112.856 154.817 112.589 154.506 112.367C154.217 112.144 153.862 111.989 153.44 111.9C153.04 111.789 152.628 111.733 152.206 111.733C151.495 111.733 150.895 111.878 150.406 112.167C149.917 112.456 149.673 112.867 149.673 113.4C149.673 113.667 149.751 113.9 149.906 114.1C150.084 114.3 150.317 114.467 150.606 114.6C150.895 114.711 151.24 114.822 151.64 114.933C152.04 115.022 152.462 115.133 152.906 115.267C153.617 115.467 154.317 115.689 155.006 115.933C155.717 116.156 156.362 116.444 156.94 116.8C157.54 117.156 158.006 117.622 158.34 118.2C158.695 118.778 158.895 119.511 158.94 120.4C158.94 121.356 158.662 122.233 158.106 123.033C157.551 123.811 156.751 124.433 155.706 124.9C154.684 125.344 153.462 125.567 152.04 125.567C150.395 125.567 148.984 125.211 147.806 124.5C146.628 123.789 145.828 122.644 145.406 121.067L148.706 119.967Z" fill="#17355D"/>
<path d="M136.326 108.667V104H140.159V108.667H144.059V111.967H140.159V119.367C140.159 120.367 140.348 121.067 140.726 121.467C141.103 121.844 141.592 122.056 142.192 122.1C142.814 122.122 143.437 122.089 144.059 122V125.2C143.103 125.4 142.159 125.456 141.226 125.367C140.314 125.3 139.492 125.056 138.759 124.633C138.026 124.189 137.437 123.544 136.992 122.7C136.548 121.856 136.326 120.744 136.326 119.367V111.967H133.992V108.667H136.326Z" fill="#17355D"/>
<path d="M122.48 119.967C122.635 120.589 122.902 121.067 123.28 121.4C123.68 121.733 124.113 121.967 124.58 122.1C125.046 122.211 125.491 122.267 125.913 122.267C126.78 122.267 127.457 122.1 127.946 121.767C128.457 121.411 128.713 120.967 128.713 120.433C128.713 119.989 128.546 119.644 128.213 119.4C127.88 119.156 127.446 118.967 126.913 118.833C126.402 118.678 125.869 118.522 125.313 118.367C124.713 118.211 124.069 118.033 123.38 117.833C122.713 117.633 122.08 117.356 121.48 117C120.88 116.644 120.391 116.189 120.013 115.633C119.635 115.078 119.446 114.389 119.446 113.567C119.446 112.522 119.735 111.622 120.313 110.867C120.891 110.089 121.68 109.489 122.68 109.067C123.68 108.644 124.802 108.433 126.046 108.433C127.535 108.433 128.824 108.744 129.913 109.367C131.002 109.989 131.791 110.9 132.28 112.1L128.98 113.167C128.824 112.856 128.591 112.589 128.28 112.367C127.991 112.144 127.635 111.989 127.213 111.9C126.813 111.789 126.402 111.733 125.98 111.733C125.269 111.733 124.669 111.878 124.18 112.167C123.691 112.456 123.446 112.867 123.446 113.4C123.446 113.667 123.524 113.9 123.68 114.1C123.857 114.3 124.091 114.467 124.38 114.6C124.669 114.711 125.013 114.822 125.413 114.933C125.813 115.022 126.235 115.133 126.68 115.267C127.391 115.467 128.091 115.689 128.78 115.933C129.491 116.156 130.135 116.444 130.713 116.8C131.313 117.156 131.78 117.622 132.113 118.2C132.469 118.778 132.669 119.511 132.713 120.4C132.713 121.356 132.435 122.233 131.88 123.033C131.324 123.811 130.524 124.433 129.48 124.9C128.457 125.344 127.235 125.567 125.813 125.567C124.169 125.567 122.757 125.211 121.58 124.5C120.402 123.789 119.602 122.644 119.18 121.067L122.48 119.967Z" fill="#17355D"/>
<path d="M109.832 125.567C108.165 125.567 106.698 125.2 105.432 124.467C104.187 123.733 103.209 122.711 102.498 121.4C101.809 120.089 101.465 118.578 101.465 116.867C101.465 115.244 101.809 113.8 102.498 112.533C103.187 111.267 104.143 110.267 105.365 109.533C106.587 108.8 107.976 108.433 109.532 108.433C111.109 108.433 112.498 108.778 113.698 109.467C114.898 110.156 115.832 111.122 116.498 112.367C117.187 113.589 117.532 115.011 117.532 116.633C117.532 116.9 117.52 117.189 117.498 117.5C117.476 117.789 117.443 118.1 117.398 118.433H105.532C105.643 119.211 105.887 119.889 106.265 120.467C106.665 121.022 107.165 121.456 107.765 121.767C108.365 122.078 109.054 122.233 109.832 122.233C110.765 122.233 111.598 122.044 112.332 121.667C113.087 121.289 113.609 120.789 113.898 120.167L117.198 121.267C116.532 122.6 115.543 123.656 114.232 124.433C112.92 125.189 111.454 125.567 109.832 125.567ZM113.432 115.367C113.409 114.678 113.22 114.056 112.865 113.5C112.509 112.944 112.043 112.511 111.465 112.2C110.887 111.867 110.243 111.7 109.532 111.7C108.909 111.7 108.32 111.856 107.765 112.167C107.209 112.478 106.732 112.911 106.332 113.467C105.954 114 105.709 114.633 105.598 115.367H113.432Z" fill="#17355D"/>
<path d="M98.9805 125.333H95.5138L95.2805 123.667C94.7249 124.267 94.0582 124.733 93.2805 125.067C92.5027 125.4 91.6805 125.567 90.8138 125.567C89.5027 125.567 88.3694 125.3 87.4138 124.767C86.4805 124.211 85.7582 123.411 85.2471 122.367C84.736 121.3 84.4805 119.989 84.4805 118.433V108.667H88.2471V117.933C88.2471 119.311 88.5249 120.367 89.0805 121.1C89.636 121.811 90.4916 122.167 91.6471 122.167C92.7582 122.167 93.6249 121.811 94.2471 121.1C94.8916 120.367 95.2138 119.289 95.2138 117.867V108.667H98.9805V125.333Z" fill="#17355D"/>
<path d="M77.9596 122.867C77.4263 123.622 76.6707 124.267 75.693 124.8C74.7152 125.311 73.5707 125.567 72.2596 125.567C70.7707 125.567 69.4596 125.211 68.3263 124.5C67.2152 123.789 66.3485 122.789 65.7263 121.5C65.1041 120.211 64.793 118.711 64.793 117C64.793 115.267 65.1041 113.767 65.7263 112.5C66.3485 111.211 67.2152 110.211 68.3263 109.5C69.4596 108.789 70.7707 108.433 72.2596 108.433C73.4819 108.433 74.5374 108.656 75.4263 109.1C76.3152 109.544 77.0485 110.089 77.6263 110.733L77.893 108.667H81.293V132H77.5263V122.767L77.9596 122.867ZM68.8263 117C68.8263 118.533 69.2263 119.778 70.0263 120.733C70.8263 121.689 71.8707 122.167 73.1596 122.167C73.9374 122.167 74.6485 121.967 75.293 121.567C75.9596 121.167 76.493 120.589 76.893 119.833C77.3152 119.056 77.5263 118.111 77.5263 117C77.5263 115.867 77.3152 114.922 76.893 114.167C76.493 113.411 75.9596 112.833 75.293 112.433C74.6485 112.033 73.9374 111.833 73.1596 111.833C71.8707 111.833 70.8263 112.311 70.0263 113.267C69.2263 114.222 68.8263 115.467 68.8263 117Z" fill="#17355D"/>
<path d="M55.4448 125.567C53.7781 125.567 52.3115 125.2 51.0448 124.467C49.8003 123.733 48.8226 122.711 48.1115 121.4C47.4226 120.089 47.0781 118.578 47.0781 116.867C47.0781 115.244 47.4226 113.8 48.1115 112.533C48.8003 111.267 49.7559 110.267 50.9781 109.533C52.2003 108.8 53.5892 108.433 55.1448 108.433C56.7226 108.433 58.1115 108.778 59.3115 109.467C60.5115 110.156 61.4448 111.122 62.1115 112.367C62.8003 113.589 63.1448 115.011 63.1448 116.633C63.1448 116.9 63.1337 117.189 63.1115 117.5C63.0892 117.789 63.0559 118.1 63.0115 118.433H51.1448C51.2559 119.211 51.5003 119.889 51.8781 120.467C52.2781 121.022 52.7781 121.456 53.3781 121.767C53.9781 122.078 54.667 122.233 55.4448 122.233C56.3781 122.233 57.2115 122.044 57.9448 121.667C58.7003 121.289 59.2226 120.789 59.5115 120.167L62.8115 121.267C62.1448 122.6 61.1559 123.656 59.8448 124.433C58.5337 125.189 57.067 125.567 55.4448 125.567ZM59.0448 115.367C59.0226 114.678 58.8337 114.056 58.4781 113.5C58.1226 112.944 57.6559 112.511 57.0781 112.2C56.5003 111.867 55.8559 111.7 55.1448 111.7C54.5226 111.7 53.9337 111.856 53.3781 112.167C52.8226 112.478 52.3448 112.911 51.9448 113.467C51.567 114 51.3226 114.633 51.2115 115.367H59.0448Z" fill="#17355D"/>
<path d="M40.9917 109.033C40.9917 107.878 40.6472 106.967 39.9583 106.3C39.2694 105.633 38.2028 105.3 36.7583 105.3H31.5917V112.8H36.7583C37.7361 112.8 38.525 112.656 39.125 112.367C39.7472 112.056 40.2139 111.622 40.525 111.067C40.8361 110.489 40.9917 109.811 40.9917 109.033ZM36.7583 102C38.625 102 40.1583 102.322 41.3583 102.967C42.5806 103.589 43.4917 104.444 44.0917 105.533C44.6917 106.6 44.9917 107.767 44.9917 109.033C44.9917 109.878 44.8472 110.711 44.5583 111.533C44.2694 112.356 43.8028 113.122 43.1583 113.833C42.5139 114.522 41.6583 115.078 40.5917 115.5C39.5472 115.9 38.2694 116.1 36.7583 116.1H31.5917V125.333H27.625V102H36.7583ZM39.125 114.8L45.4917 125.333H41.025L34.8917 114.8H39.125Z" fill="#17355D"/>
<defs>
<linearGradient id="paint0_linear_1054_4667" x1="79.6458" y1="13.5574" x2="79.6458" y2="113.85" gradientUnits="userSpaceOnUse">
<stop stop-color="#4699F7"/>
<stop offset="1" stop-color="#67DE7F"/>
</linearGradient>
<linearGradient id="paint1_linear_1054_4667" x1="100.362" y1="13.5575" x2="100.362" y2="113.85" gradientUnits="userSpaceOnUse">
<stop stop-color="#4699F7"/>
<stop offset="1" stop-color="#67DE7F"/>
</linearGradient>
<linearGradient id="paint2_linear_1054_4667" x1="64.1181" y1="13.5573" x2="64.1181" y2="113.85" gradientUnits="userSpaceOnUse">
<stop stop-color="#4699F7"/>
<stop offset="1" stop-color="#67DE7F"/>
</linearGradient>
<linearGradient id="paint3_linear_1054_4667" x1="-2.33675" y1="133.431" x2="32.1995" y2="103.831" gradientUnits="userSpaceOnUse">
<stop stop-color="#67DE7F"/>
<stop offset="1" stop-color="#4699F7"/>
</linearGradient>
</defs>
</svg>
