<svg width="22" height="22" viewBox="0 0 22 22" fill="none" xmlns="http://www.w3.org/2000/svg">
<circle cx="11" cy="11" r="11" fill="black"/>
<path fill-rule="evenodd" clip-rule="evenodd" d="M9.23685 8.16791L13.0672 6.89114C14.723 6.33921 15.5509 6.06324 15.9879 6.50026C16.4249 6.93727 16.1489 7.76516 15.597 9.42094L15.597 9.42095L15.597 9.42096L14.3202 13.2513L14.3202 13.2513C13.5358 15.6045 13.1436 16.7811 12.4229 16.7811C11.7134 16.7811 11.3206 15.6362 10.5572 13.3463L13.8709 10.0325C14.2614 9.64202 14.2614 9.00886 13.8709 8.61833C13.4803 8.22781 12.8472 8.22781 12.4566 8.61833L9.14346 11.9315C6.85251 11.1677 5.70703 10.7749 5.70703 10.0653C5.70703 9.34452 6.88364 8.95232 9.23685 8.16791L9.23685 8.16791Z" fill="white"/>
</svg>
