<svg width="24" height="24" viewBox="0 0 24 24" fill="none" xmlns="http://www.w3.org/2000/svg">
  <circle cx="24" cy="24" r="16" fill="none"/>
  <path fill-rule="evenodd" clip-rule="evenodd" d="M12.3168 10.8906L17.4229 9.11886C19.6307 8.45228 20.7346 8.08432 21.3172 8.66694C21.8998 9.24956 21.5318 10.3534 20.8652 12.5612L20.8652 12.5612L20.8652 12.5613L19.0935 17.6674L19.0935 17.6674C18.0477 20.8059 17.5258 22.3752 16.5639 22.3752C15.6092 22.3752 15.0876 20.8483 14.0764 17.7949L18.4946 13.3767C19.0152 12.8561 19.0152 12.0118 18.4946 11.4913C17.9741 10.9707 17.1298 10.9707 16.6093 11.4913L12.191 15.9095C9.099 15.1769 7.5614 14.6616 7.5614 13.6986C7.5614 12.7249 9.1307 12.2091 12.3168 10.8906L12.3168 10.8906Z" fill="white"/>
</svg>
