<svg width="31" height="30" viewBox="0 0 31 30" fill="none" xmlns="http://www.w3.org/2000/svg">
<g id="Group 116">
<circle id="Ellipse 90" cx="15.5" cy="15" r="15" fill="black"/>
<path id="Subtract" fill-rule="evenodd" clip-rule="evenodd" d="M12.5215 15.859L10.9888 15.3481C8.63559 14.5637 7.45898 14.1715 7.45898 13.4508C7.45898 12.73 8.63559 12.3378 10.9888 11.5534L10.9888 11.5534L18.0729 9.19204C19.7287 8.64011 20.5566 8.36414 20.9936 8.80116C21.4306 9.23818 21.1546 10.0661 20.6027 11.7218L20.6027 11.7219L18.2413 18.8059L18.2413 18.8059C17.4569 21.1591 17.0647 22.3358 16.344 22.3358C15.6232 22.3358 15.231 21.1591 14.4466 18.8059L13.9357 17.2732L17.9717 13.2372C18.3623 12.8467 18.3623 12.2135 17.9717 11.823C17.5812 11.4325 16.948 11.4325 16.5575 11.823L12.5215 15.859Z" fill="white"/>
</g>
</svg>
