<svg width="28" height="28" viewBox="0 0 28 28" fill="none" xmlns="http://www.w3.org/2000/svg">
<rect width="28" height="28" rx="14" fill="black"/>
<path d="M10.8889 6.22217L10.1818 5.51506C10.3693 5.32752 10.6237 5.22217 10.8889 5.22217C11.1541 5.22217 11.4085 5.32752 11.596 5.51506L10.8889 6.22217ZM11.8889 17.8888C11.8889 18.4411 11.4412 18.8888 10.8889 18.8888C10.3366 18.8888 9.88889 18.4411 9.88889 17.8888L11.8889 17.8888ZM6.29289 9.40395L10.1818 5.51506L11.596 6.92927L7.70711 10.8182L6.29289 9.40395ZM11.596 5.51506L15.4849 9.40395L14.0707 10.8182L10.1818 6.92927L11.596 5.51506ZM11.8889 6.22217L11.8889 17.8888L9.88889 17.8888L9.88889 6.22217L11.8889 6.22217Z" fill="white"/>
<path d="M17.1115 21.7777L16.4044 22.4848C16.592 22.6724 16.8463 22.7777 17.1115 22.7777C17.3768 22.7777 17.6311 22.6724 17.8187 22.4848L17.1115 21.7777ZM18.1115 10.111C18.1115 9.55876 17.6638 9.11104 17.1115 9.11104C16.5593 9.11104 16.1115 9.55876 16.1115 10.111L18.1115 10.111ZM12.5155 18.5959L16.4044 22.4848L17.8187 21.0706L13.9298 17.1817L12.5155 18.5959ZM17.8187 22.4848L21.7075 18.5959L20.2933 17.1817L16.4044 21.0706L17.8187 22.4848ZM18.1115 21.7777L18.1115 10.111L16.1115 10.111L16.1115 21.7777L18.1115 21.7777Z" fill="white"/>
</svg>
