<svg width="20" height="20" viewBox="0 0 20 20" fill="none" xmlns="http://www.w3.org/2000/svg">
<path d="M8.78782 0.752537C9.28302 -0.250842 10.7138 -0.250848 11.209 0.752536L13.567 5.53026L18.8395 6.2964C19.9468 6.4573 20.3889 7.81806 19.5877 8.59909L15.7724 12.318L16.6731 17.5692C16.8622 18.6721 15.7047 19.5131 14.7143 18.9924L9.99842 16.5131L5.28252 18.9924C4.29213 19.5131 3.13459 18.6721 3.32374 17.5693L4.2244 12.318L0.409159 8.59909C-0.392086 7.81807 0.0500454 6.4573 1.15735 6.2964L6.42988 5.53026L8.78782 0.752537Z" fill="white"/>
<path d="M8.78782 0.752537C9.28302 -0.250842 10.7138 -0.250848 11.209 0.752536L13.567 5.53026L18.8395 6.2964C19.9468 6.4573 20.3889 7.81806 19.5877 8.59909L15.7724 12.318L16.6731 17.5692C16.8622 18.6721 15.7047 19.5131 14.7143 18.9924L9.99842 16.5131L5.28252 18.9924C4.29213 19.5131 3.13459 18.6721 3.32374 17.5693L4.2244 12.318L0.409159 8.59909C-0.392086 7.81807 0.0500454 6.4573 1.15735 6.2964L6.42988 5.53026L8.78782 0.752537Z" fill="url(#paint0_linear_1599_5725)"/>
<defs>
<linearGradient id="paint0_linear_1599_5725" x1="9.83872" y1="-1.58964" x2="9.83872" y2="19.1505" gradientUnits="userSpaceOnUse">
<stop stop-color="#00285F"/>
<stop offset="1" stop-color="#007BE5"/>
</linearGradient>
</defs>
</svg>
