<svg width="22" height="22" viewBox="0 0 22 22" fill="none" xmlns="http://www.w3.org/2000/svg">
<path d="M22 11C22 17.0751 17.0751 22 11 22C4.92487 22 0 17.0751 0 11C0 4.92487 4.92487 0 11 0C17.0751 0 22 4.92487 22 11Z" fill="black"/>
<path fill-rule="evenodd" clip-rule="evenodd" d="M15.7768 11.4206C15.7768 11.0332 15.5772 10.8142 15.1779 10.3763C14.2606 9.37029 12.682 8 10.8884 8C9.09485 8 7.51623 9.37029 6.59896 10.3763C6.19965 10.8142 6 11.0332 6 11.4206C6 11.8081 6.19965 12.0271 6.59896 12.465C7.51623 13.471 9.09485 14.8413 10.8884 14.8413C12.682 14.8413 14.2606 13.471 15.1779 12.465C15.5772 12.0271 15.7768 11.8081 15.7768 11.4206ZM10.8884 13.131C11.833 13.131 12.5987 12.3652 12.5987 11.4206C12.5987 10.4761 11.833 9.71032 10.8884 9.71032C9.94382 9.71032 9.17808 10.4761 9.17808 11.4206C9.17808 12.3652 9.94382 13.131 10.8884 13.131Z" fill="white"/>
</svg>
